<svg id="_1" data-name="1" xmlns="http://www.w3.org/2000/svg" width="583.934" height="456.285" viewBox="0 0 583.934 456.285">
  <path id="Path_1262" data-name="Path 1262" d="M369.114,555.687c91.055-1.731,92.167,52.32,179.69,41.6S753.016,443.6,698.918,342.758s-191.113-76.108-266.749-13.509S295.077,380.255,235.392,373.3s-76.9,56.6-70.629,84.717S179.191,559.32,369.114,555.687Z" transform="translate(-131.601 -220.666)" fill="#e9efff" opacity="0.34"/>
  <rect id="Rectangle_176" data-name="Rectangle 176" width="364.002" height="235.713" transform="translate(130.09 129.704)" fill="#d5e0f7"/>
  <rect id="Rectangle_177" data-name="Rectangle 177" width="350.091" height="186.252" transform="translate(137.046 137.432)" fill="#fff"/>
  <rect id="Rectangle_178" data-name="Rectangle 178" width="72.646" height="43.278" transform="translate(275.768 354.983)" fill="#d5e0f7"/>
  <rect id="Rectangle_179" data-name="Rectangle 179" width="149.929" height="11.592" transform="translate(237.513 394.011)" fill="#c7d2e5"/>
  <rect id="Rectangle_180" data-name="Rectangle 180" width="364.002" height="34.004" transform="translate(130.09 331.412)" fill="#e9efff"/>
  <circle id="Ellipse_126" data-name="Ellipse 126" cx="9.274" cy="9.274" r="9.274" transform="translate(302.431 339.14)" fill="#d5e0f7"/>
  <rect id="Rectangle_181" data-name="Rectangle 181" width="143.553" height="186.252" transform="translate(137.046 137.432)" fill="#e9efff" opacity="0.34"/>
  <rect id="Rectangle_182" data-name="Rectangle 182" width="178.786" height="40.063" rx="16.67" transform="translate(29.684 399.799)" fill="#fdbd28"/>
  <rect id="Rectangle_183" data-name="Rectangle 183" width="5.796" height="40.056" transform="translate(59.956 399.807)" fill="#fff" opacity="0.55"/>
  <path id="Path_1263" data-name="Path 1263" d="M359.988,683.215v14.3a12.875,12.875,0,0,1-12.883,12.875H194.085a12.868,12.868,0,0,1-12.875-12.875v-14.3a12.868,12.868,0,0,1,12.875-12.875h153.02A12.875,12.875,0,0,1,359.988,683.215Z" transform="translate(-135.613 -310.558)" fill="#4741bb"/>
  <rect id="Rectangle_184" data-name="Rectangle 184" width="5.796" height="40.056" transform="translate(75.861 359.752)" fill="#fff" opacity="0.55"/>
  <path id="Path_1264" data-name="Path 1264" d="M300.988,631.335v14.3a12.883,12.883,0,0,1-12.883,12.891H135.085a12.883,12.883,0,0,1-12.875-12.891v-14.3a12.883,12.883,0,0,1,12.875-12.875h153.02A12.906,12.906,0,0,1,300.988,631.335Z" transform="translate(-122.21 -298.772)" fill="#d5e0f7"/>
  <rect id="Rectangle_185" data-name="Rectangle 185" width="20.611" height="70.582" transform="translate(47.57 212.951) rotate(-22.35)" fill="#4f6bfd"/>
  <circle id="Ellipse_127" data-name="Ellipse 127" cx="3.864" cy="3.864" r="3.864" transform="translate(56.741 213.687)" fill="none" stroke="#fff" stroke-miterlimit="10" stroke-width="1"/>
  <line id="Line_110" data-name="Line 110" y1="2.156" x2="5.24" transform="translate(54.747 228.247)" fill="none" stroke="#fff" stroke-miterlimit="10" stroke-width="1"/>
  <line id="Line_111" data-name="Line 111" y1="3.555" x2="8.632" transform="translate(56.95 232.212)" fill="none" stroke="#fff" stroke-miterlimit="10" stroke-width="1"/>
  <line id="Line_112" data-name="Line 112" y1="2.148" x2="5.24" transform="translate(59.152 238.974)" fill="none" stroke="#fff" stroke-miterlimit="10" stroke-width="1"/>
  <line id="Line_113" data-name="Line 113" y1="3.547" x2="8.64" transform="translate(61.355 242.939)" fill="none" stroke="#fff" stroke-miterlimit="10" stroke-width="1"/>
  <line id="Line_114" data-name="Line 114" y1="2.156" x2="5.248" transform="translate(63.557 249.693)" fill="none" stroke="#fff" stroke-miterlimit="10" stroke-width="1"/>
  <line id="Line_115" data-name="Line 115" y1="3.547" x2="8.632" transform="translate(65.768 253.658)" fill="none" stroke="#fff" stroke-miterlimit="10" stroke-width="1"/>
  <line id="Line_116" data-name="Line 116" y1="2.156" x2="5.24" transform="translate(67.97 260.412)" fill="none" stroke="#fff" stroke-miterlimit="10" stroke-width="1"/>
  <path id="Path_1265" data-name="Path 1265" d="M1.862,0h0a1.87,1.87,0,0,1,1.87,1.87v8.447H0V1.87A1.87,1.87,0,0,1,1.863,0Z" transform="translate(121.629 220.323) rotate(15.25)" fill="#f7b57f"/>
  <path id="Path_1266" data-name="Path 1266" d="M282.06,518.146h0a1.152,1.152,0,0,1-.811-1.422l2.373-8.7a3.71,3.71,0,0,0-2.6-4.552l-3.014-.819.611-2.241,3.014.827a6,6,0,0,1,4.22,7.388l-2.373,8.71a1.152,1.152,0,0,1-1.422.812Z" transform="translate(-157.603 -271.954)" fill="#dd6503"/>
  <rect id="Rectangle_186" data-name="Rectangle 186" width="8.308" height="41.06" rx="4.154" transform="translate(117.421 227.058) rotate(15.25)" fill="#fa7701"/>
  <path id="Path_1267" data-name="Path 1267" d="M254.913,533.329c-1.886-4.382-3.509-8.833-5.039-13.316-.773-2.233-1.484-4.5-2.226-6.747-.363-1.128-.688-2.264-1.043-3.393l-.51-1.7-.263-.85h0v.039a1.431,1.431,0,0,0,.139.34,1.97,1.97,0,0,0,.371.5,1.892,1.892,0,0,0,.332.263,1.3,1.3,0,0,0,.247.131,1.245,1.245,0,0,0,.518.116,1.2,1.2,0,0,0,.518-.108,1.963,1.963,0,0,0,.247-.131,2.037,2.037,0,0,0,.332-.271,1.845,1.845,0,0,0,.371-.5,2.076,2.076,0,0,0,.147-.332v-.046h0l-.255.842-.518,1.7-1.012,3.408c-.773,2.249-1.43,4.513-2.218,6.747-1.546,4.482-3.153,8.934-5.047,13.316l-2.025-.6c.773-4.706,1.816-9.328,2.96-13.911.541-2.318,1.182-4.583,1.778-6.878l.958-3.416.487-1.708.24-.85.039-.124a3.633,3.633,0,0,1,.185-.44,2.9,2.9,0,0,1,.51-.68,3.373,3.373,0,0,1,.5-.4,4.164,4.164,0,0,1,.448-.232,3.432,3.432,0,0,1,1.383-.271,3.57,3.57,0,0,1,1.383.27,3.471,3.471,0,0,1,.44.232,3.035,3.035,0,0,1,.51.41,2.591,2.591,0,0,1,.5.68,2.319,2.319,0,0,1,.186.433l.039.124.24.85.487,1.708c.317,1.144.657,2.272.958,3.416.6,2.318,1.237,4.575,1.777,6.878,1.136,4.6,2.187,9.22,2.968,13.911Z" transform="translate(-148.51 -272.731)" fill="#2b1a82"/>
  <path id="Path_1268" data-name="Path 1268" d="M248.737,480.55h1.213a2.318,2.318,0,0,1,2.318,2.318v20.905H246.38v-20.9a2.318,2.318,0,0,1,2.357-2.326Z" transform="translate(-150.418 -267.443)" fill="#2b1a82"/>
  <rect id="Rectangle_187" data-name="Rectangle 187" width="10.665" height="2.875" rx="1.437" transform="translate(93.605 223.286)" fill="#2b1a82"/>
  <rect id="Rectangle_188" data-name="Rectangle 188" width="5.796" height="40.056" transform="translate(30.264 319.688)" fill="#fff" opacity="0.55"/>
  <path id="Path_1269" data-name="Path 1269" d="M266.346,529.79,253.27,598.324H210.316l-4.011-21.036-9.065-47.5Z" transform="translate(-139.255 -278.629)" fill="#c7d2e5"/>
  <path id="Path_1270" data-name="Path 1270" d="M430.282,425.189V535.7a17.389,17.389,0,0,1-17.389,17.389H333.679A17.389,17.389,0,0,1,316.29,535.7V425.189A17.389,17.389,0,0,1,333.679,407.8h79.215a17.358,17.358,0,0,1,17.389,17.389Z" transform="translate(-166.3 -250.916)" fill="#e9efff"/>
  <path id="Path_1271" data-name="Path 1271" d="M430.282,425.189v7.728H316.29v-7.728A17.389,17.389,0,0,1,333.679,407.8h79.215a17.389,17.389,0,0,1,17.389,17.389Z" transform="translate(-166.3 -250.916)" fill="#d5e0f7"/>
  <rect id="Rectangle_189" data-name="Rectangle 189" width="13.656" height="13.656" transform="translate(157.201 193.331)" fill="#423a91"/>
  <rect id="Rectangle_190" data-name="Rectangle 190" width="64.477" height="6.7" transform="translate(179.605 196.808)" fill="#d5e0f7"/>
  <rect id="Rectangle_191" data-name="Rectangle 191" width="13.656" height="13.656" transform="translate(157.201 222.698)" fill="#fa7701"/>
  <rect id="Rectangle_192" data-name="Rectangle 192" width="64.477" height="6.7" transform="translate(179.605 226.176)" fill="#d5e0f7"/>
  <rect id="Rectangle_193" data-name="Rectangle 193" width="13.656" height="13.656" transform="translate(157.201 252.066)" fill="#4f6bfd"/>
  <rect id="Rectangle_194" data-name="Rectangle 194" width="64.477" height="6.7" transform="translate(179.605 255.543)" fill="#d5e0f7"/>
  <line id="Line_117" data-name="Line 117" x2="183.531" transform="translate(286.41 196.808)" fill="none" stroke="#d5e0f7" stroke-miterlimit="10" stroke-width="3"/>
  <line id="Line_118" data-name="Line 118" x2="183.531" transform="translate(286.41 227.335)" fill="none" stroke="#d5e0f7" stroke-miterlimit="10" stroke-width="3"/>
  <line id="Line_119" data-name="Line 119" x2="183.531" transform="translate(286.41 257.862)" fill="none" stroke="#d5e0f7" stroke-miterlimit="10" stroke-width="3"/>
  <line id="Line_120" data-name="Line 120" x2="183.531" transform="translate(286.41 288.389)" fill="none" stroke="#d5e0f7" stroke-miterlimit="10" stroke-width="3"/>
  <rect id="Rectangle_195" data-name="Rectangle 195" width="13.88" height="13.88" transform="translate(297.137 205.132)" fill="#fdbd28"/>
  <rect id="Rectangle_196" data-name="Rectangle 196" width="91.967" height="4.892" transform="translate(326.968 209.63)" fill="#fdbd28"/>
  <rect id="Rectangle_197" data-name="Rectangle 197" width="13.88" height="13.88" transform="translate(297.137 235.659)" fill="#ff748f"/>
  <rect id="Rectangle_198" data-name="Rectangle 198" width="91.967" height="4.892" transform="translate(326.968 240.156)" fill="#ff748f"/>
  <rect id="Rectangle_199" data-name="Rectangle 199" width="13.88" height="13.88" transform="translate(297.137 266.185)" fill="#fa7701"/>
  <rect id="Rectangle_200" data-name="Rectangle 200" width="91.967" height="4.892" transform="translate(326.968 270.683)" fill="#fa7701"/>
  <path id="Path_1286" data-name="Path 1286" d="M802.344,395.763l-41.849,5.41L708.84,356.387,683.707,334.6l-.587-42.181,95.189,10.464,4.652,17.968Z" transform="translate(-249.633 -224.705)" fill="#2b1a82"/>
  <path id="Path_1287" data-name="Path 1287" d="M767.311,396.264l-11.592,13.378L738.848,429.1c-25.225-12.721-47.761-31.686-68.086-55.775q-4.413-5.24-8.7-10.82l16.863-19.437,11.592-13.37c17.69,4.2,33.108,11.863,45.852,22.613.348.286.7.6,1.036.889C750.34,364.415,760.449,378.9,767.311,396.264Z" transform="translate(-244.849 -233.174)" fill="#423a91"/>
  <circle id="Ellipse_128" data-name="Ellipse 128" cx="6.183" cy="6.183" r="6.183" transform="translate(21.956 80.761)" fill="#d5e0f7"/>
  <circle id="Ellipse_129" data-name="Ellipse 129" cx="4.931" cy="4.931" r="4.931" transform="translate(87.391 49.33)" fill="#d5e0f7"/>
  <circle id="Ellipse_130" data-name="Ellipse 130" cx="16.739" cy="16.739" r="16.739" transform="translate(184.435 67.715)" fill="#d5e0f7"/>
  <circle id="Ellipse_131" data-name="Ellipse 131" cx="8.911" cy="8.911" r="8.911" transform="translate(36.068 144.132)" fill="#d5e0f7"/>
  <circle id="Ellipse_132" data-name="Ellipse 132" cx="5.348" cy="5.348" r="5.348" transform="translate(83.272 161.737)" fill="#d5e0f7"/>
  <circle id="Ellipse_133" data-name="Ellipse 133" cx="4.158" cy="4.158" r="4.158" transform="translate(235.774 111.148)" fill="#d5e0f7"/>
  <circle id="Ellipse_134" data-name="Ellipse 134" cx="4.003" cy="4.003" r="4.003" transform="translate(122.084 115.314)" fill="#d5e0f7"/>
  <circle id="Ellipse_135" data-name="Ellipse 135" cx="7.751" cy="7.751" r="7.751" transform="translate(239.932)" fill="#d5e0f7"/>
  <circle id="Ellipse_136" data-name="Ellipse 136" cx="3.717" cy="3.717" r="3.717" transform="translate(318.467 60.281)" fill="#d5e0f7"/>
  <circle id="Ellipse_137" data-name="Ellipse 137" cx="12.558" cy="12.558" r="12.558" transform="translate(474.965 23.185)" fill="#d5e0f7"/>
  <circle id="Ellipse_138" data-name="Ellipse 138" cx="4.637" cy="4.637" r="4.637" transform="translate(574.66 107.81)" fill="#d5e0f7"/>
  <circle id="Ellipse_139" data-name="Ellipse 139" cx="6.955" cy="6.955" r="6.955" transform="translate(417.204 85.398)" fill="#d5e0f7"/>
  <circle id="Ellipse_140" data-name="Ellipse 140" cx="3.849" cy="3.849" r="3.849" transform="translate(345.872 107.802)" fill="#d5e0f7"/>
  <circle id="Ellipse_141" data-name="Ellipse 141" cx="12.365" cy="12.365" r="12.365" transform="translate(509.356 238.031)" fill="#d5e0f7"/>
  <circle id="Ellipse_142" data-name="Ellipse 142" cx="5.472" cy="5.472" r="5.472" transform="translate(570.023 185.865)" fill="#d5e0f7"/>
  <path id="Path_1288" data-name="Path 1288" d="M690.25,628.39h97.732L805.7,757.306H707.971Z" transform="translate(-251.253 -301.028)" fill="#ea6a00"/>
  <path id="Path_1289" data-name="Path 1289" d="M784.265,628.39,766.552,757.313H668.82l1.09-7.952L686.533,628.39Z" transform="translate(-246.384 -301.028)" fill="#fa7701"/>
  <path id="Path_1290" data-name="Path 1290" d="M709.732,691.842H693.68l2.21-16.052h16.052Z" transform="translate(-252.032 -311.796)" fill="#ffcea6" stroke="#2b1a82" stroke-miterlimit="10" stroke-width="1.75"/>
  <path id="Path_1291" data-name="Path 1291" d="M730.5,691.842H714.45l2.21-16.052H732.7Z" transform="translate(-256.75 -311.796)" fill="#ffcea6" stroke="#2b1a82" stroke-miterlimit="10" stroke-width="1.75"/>
  <path id="Path_1292" data-name="Path 1292" d="M751.272,691.842H735.22l2.2-16.052h16.052Z" transform="translate(-261.469 -311.796)" fill="#ffcea6" stroke="#2b1a82" stroke-miterlimit="10" stroke-width="1.75"/>
  <path id="Path_1293" data-name="Path 1293" d="M772.042,691.842H755.99l2.2-16.052h16.052Z" transform="translate(-266.187 -311.796)" fill="#ffcea6" stroke="#2b1a82" stroke-miterlimit="10" stroke-width="1.75"/>
  <path id="Path_1294" data-name="Path 1294" d="M792.8,691.842H776.76l2.2-16.052h16.052Z" transform="translate(-270.905 -311.796)" fill="#ffcea6" stroke="#2b1a82" stroke-miterlimit="10" stroke-width="1.75"/>
  <path id="Path_1295" data-name="Path 1295" d="M706.882,712.6H690.83l2.2-16.044h16.052Z" transform="translate(-251.384 -316.514)" fill="#ffcea6" stroke="#2b1a82" stroke-miterlimit="10" stroke-width="1.75"/>
  <path id="Path_1296" data-name="Path 1296" d="M727.652,712.6H711.6l2.2-16.044h16.052Z" transform="translate(-256.103 -316.514)" fill="#ffcea6" stroke="#2b1a82" stroke-miterlimit="10" stroke-width="1.75"/>
  <path id="Path_1297" data-name="Path 1297" d="M748.414,712.6H732.37l2.2-16.044h16.052Z" transform="translate(-260.821 -316.514)" fill="#ffcea6" stroke="#2b1a82" stroke-miterlimit="10" stroke-width="1.75"/>
  <path id="Path_1298" data-name="Path 1298" d="M769.182,712.6H753.13l2.21-16.044h16.052Z" transform="translate(-265.537 -316.514)" fill="#ffcea6" stroke="#2b1a82" stroke-miterlimit="10" stroke-width="1.75"/>
  <path id="Path_1299" data-name="Path 1299" d="M789.952,712.6H773.9l2.21-16.044h16.044Z" transform="translate(-270.256 -316.514)" fill="#ffcea6" stroke="#2b1a82" stroke-miterlimit="10" stroke-width="1.75"/>
  <path id="Path_1300" data-name="Path 1300" d="M704.032,733.372H687.98l2.2-16.052h16.052Z" transform="translate(-250.737 -321.23)" fill="#ffcea6" stroke="#2b1a82" stroke-miterlimit="10" stroke-width="1.75"/>
  <path id="Path_1301" data-name="Path 1301" d="M724.794,733.372H708.75l2.2-16.052H727Z" transform="translate(-255.455 -321.23)" fill="#ffcea6" stroke="#2b1a82" stroke-miterlimit="10" stroke-width="1.75"/>
  <path id="Path_1302" data-name="Path 1302" d="M745.562,733.372H729.51l2.21-16.052h16.044Z" transform="translate(-260.171 -321.23)" fill="#ffcea6" stroke="#2b1a82" stroke-miterlimit="10" stroke-width="1.75"/>
  <path id="Path_1303" data-name="Path 1303" d="M766.332,733.372H750.28l2.2-16.052h16.052Z" transform="translate(-264.89 -321.23)" fill="#ffcea6" stroke="#2b1a82" stroke-miterlimit="10" stroke-width="1.75"/>
  <path id="Path_1304" data-name="Path 1304" d="M787.1,733.372H771.05l2.2-16.052H789.3Z" transform="translate(-269.608 -321.23)" fill="#ffcea6" stroke="#2b1a82" stroke-miterlimit="10" stroke-width="1.75"/>
  <path id="Path_1305" data-name="Path 1305" d="M701.172,754.142H685.12l2.21-16.052h16.052Z" transform="translate(-250.087 -325.949)" fill="#ffcea6" stroke="#2b1a82" stroke-miterlimit="10" stroke-width="1.75"/>
  <path id="Path_1306" data-name="Path 1306" d="M721.942,754.142H705.89l2.21-16.052h16.044Z" transform="translate(-254.806 -325.949)" fill="#ffcea6" stroke="#2b1a82" stroke-miterlimit="10" stroke-width="1.75"/>
  <path id="Path_1307" data-name="Path 1307" d="M742.712,754.142H726.66l2.2-16.052h16.052Z" transform="translate(-259.524 -325.949)" fill="#ffcea6" stroke="#2b1a82" stroke-miterlimit="10" stroke-width="1.75"/>
  <path id="Path_1308" data-name="Path 1308" d="M763.482,754.142H747.43l2.2-16.052h16.052Z" transform="translate(-264.242 -325.949)" fill="#ffcea6" stroke="#2b1a82" stroke-miterlimit="10" stroke-width="1.75"/>
  <path id="Path_1309" data-name="Path 1309" d="M784.244,754.142H768.2l2.2-16.052h16.052Z" transform="translate(-268.961 -325.949)" fill="#ffcea6" stroke="#2b1a82" stroke-miterlimit="10" stroke-width="1.75"/>
  <ellipse id="Ellipse_143" data-name="Ellipse 143" cx="4.521" cy="3.941" rx="4.521" ry="3.941" transform="translate(448.723 343.622) rotate(-43.03)" fill="#2b1a82"/>
  <ellipse id="Ellipse_144" data-name="Ellipse 144" cx="4.521" cy="3.941" rx="4.521" ry="3.941" transform="translate(480.83 343.625) rotate(-43.03)" fill="#2b1a82"/>
  <ellipse id="Ellipse_145" data-name="Ellipse 145" cx="4.521" cy="3.941" rx="4.521" ry="3.941" transform="translate(512.925 343.625) rotate(-43.03)" fill="#2b1a82"/>
  <path id="Path_1310" data-name="Path 1310" d="M724.008,626.882c-.6-4.513-2.365-7.512-4.838-7.512-3.864,0-7.906,7.156-9.119,15.99a32.974,32.974,0,0,0-.2,7.728" transform="translate(-255.674 -298.979)" fill="none" stroke="#2b1a82" stroke-miterlimit="10" stroke-width="4.63"/>
  <path id="Path_1311" data-name="Path 1311" d="M765.468,626.882c-.533-4.513-2.172-7.512-4.5-7.512-3.609,0-7.512,7.156-8.725,15.99a34.491,34.491,0,0,0-.247,7.728" transform="translate(-265.255 -298.979)" fill="none" stroke="#2b1a82" stroke-miterlimit="10" stroke-width="4.63"/>
  <path id="Path_1312" data-name="Path 1312" d="M805.777,626.882c-.526-4.513-2.149-7.512-4.475-7.512-3.578,0-7.473,7.156-8.686,15.99a35.953,35.953,0,0,0-.255,7.728" transform="translate(-274.427 -298.979)" fill="none" stroke="#2b1a82" stroke-miterlimit="10" stroke-width="4.63"/>
  <path id="Path_1313" data-name="Path 1313" d="M295.826,621.05c-8.965,11.252-19.746,24.05-32.134,37.482-12.017,13.022-25.557,26.663-40.427,40.048a494.946,494.946,0,0,1-50.489,40.094h-8A12.883,12.883,0,0,1,151.894,725.8V711.471a12.9,12.9,0,0,1,12.883-12.891h15.9a12.868,12.868,0,0,1-12.875-12.875V671.439a12.868,12.868,0,0,1,12.875-12.875h-45.6a12.883,12.883,0,0,1-12.875-12.891v-14.3A12.883,12.883,0,0,1,135.085,618.5h153.02a12.8,12.8,0,0,1,7.721,2.55Z" transform="translate(-122.21 -298.781)" fill="#e9efff" opacity="0.15"/>
  <path id="Path_1314" data-name="Path 1314" d="M776.91,628.39c-18.818,29.885-55.265,80.7-106.65,120.979L686.884,628.39Z" transform="translate(-246.711 -301.028)" fill="#e9efff" opacity="0.15"/>
  <path id="Path_1315" data-name="Path 1315" d="M778.175,320.852a323.63,323.63,0,0,1-41.81,23.023,294.261,294.261,0,0,1-32.312,12.543,266.785,266.785,0,0,1-33.3,8.5q-4.413-5.24-8.7-10.82l16.871-19.5-.587-42.181,95.189,10.495Z" transform="translate(-244.846 -224.705)" fill="#e9efff" opacity="0.15"/>
  <path id="Path_1316" data-name="Path 1316" d="M257.258,529.8c-11.214,15.789-28.092,34.677-50.953,47.49L197.24,529.8Z" transform="translate(-139.255 -278.631)" fill="#e9efff" opacity="0.15"/>
  <text id="COURSES" transform="translate(297.089 173.843)" fill="#423a91" font-size="10" font-family="Poppins-Medium, Poppins" font-weight="500"><tspan x="0" y="0">COURSES</tspan></text>
</svg>
