<svg xmlns="http://www.w3.org/2000/svg" width="587.77" height="402" viewBox="0 0 587.77 402">
  <g id="_2" data-name="2" transform="translate(-0.001)">
    <path id="Path_1225" data-name="Path 1225" d="M188.662,625.46S106.128,608.747,113.9,511.428s124.4-84.144,214.38-164.185S492.355,197.808,596.5,279.834s3.926,243.6-31.576,271.9-17.144,73.722-17.144,73.722Z" transform="translate(-92.479 -223.46)" fill="#e9efff" opacity="0.34"/>
    <path id="Path_1226" data-name="Path 1226" d="M768.533,600.256c11.876,10.634,43.071-4.6,51.05-17.306s-11.057-24.953,0-32.014,32.48-11.3,28.716-23.767-36.949-16.24-54.6,0-9.419,23.7-18.831,32.084S751.841,585.3,768.533,600.256Z" transform="translate(-282.728 -303.808)" fill="#2ec68f"/>
    <path id="Path_1227" data-name="Path 1227" d="M781.61,611.857s14.828-10.365,26.478-11.778" transform="translate(-288.885 -328.415)" fill="none" stroke="#fff" stroke-miterlimit="10" stroke-width="2" opacity="0.72"/>
    <line id="Line_91" data-name="Line 91" y1="22.771" x2="1.963" transform="translate(507.708 236.89)" fill="none" stroke="#fff" stroke-miterlimit="10" stroke-width="2" opacity="0.72"/>
    <line id="Line_92" data-name="Line 92" y1="7.054" x2="20.476" transform="translate(519.203 236.89)" fill="none" stroke="#fff" stroke-miterlimit="10" stroke-width="2" opacity="0.72"/>
    <path id="Path_1228" data-name="Path 1228" d="M808.3,544.83s-46.954,53.309-57.193,104.5" transform="translate(-279.92 -312.176)" fill="none" stroke="#fff" stroke-miterlimit="10" stroke-width="2" opacity="0.72"/>
    <path id="Path_1229" data-name="Path 1229" d="M694.178,613.884c-10.132,9.066-36.716-3.926-43.537-14.764s9.433-21.274,0-27.3-27.7-9.631-24.487-20.272,31.512-13.846,46.6,0,7.993,20.2,16.021,27.368S708.413,601.146,694.178,613.884Z" transform="translate(-243.083 -311.441)" fill="#2ec68f"/>
    <path id="Path_1230" data-name="Path 1230" d="M704.885,623.82s-12.646-8.84-22.595-10.04" transform="translate(-259.693 -332.442)" fill="none" stroke="#fff" stroke-miterlimit="10" stroke-width="2" opacity="0.72"/>
    <line id="Line_93" data-name="Line 93" x1="1.673" y1="19.417" transform="translate(430.738 251.654)" fill="none" stroke="#fff" stroke-miterlimit="10" stroke-width="2" opacity="0.72"/>
    <line id="Line_94" data-name="Line 94" x1="17.461" y1="6.009" transform="translate(405.15 251.654)" fill="none" stroke="#fff" stroke-miterlimit="10" stroke-width="2" opacity="0.72"/>
    <path id="Path_1231" data-name="Path 1231" d="M671.22,566.62S711.262,612.078,720,655.734" transform="translate(-256.439 -318.581)" fill="none" stroke="#fff" stroke-miterlimit="10" stroke-width="2" opacity="0.72"/>
    <path id="Path_1232" data-name="Path 1232" d="M744.668,426.131c36.54,3.177,41.249,34.6,30.891,52.49s-23.534,15.534-21.648,29.415,5.839,17.786-2.824,30.474,4.434,28.243-15.534,29.987c-14.757,1.278-24.48-11.078-24.953-35.064s-22.8-17.158-13.281-48.72S689.756,421.358,744.668,426.131Z" transform="translate(-263.416 -277.148)" fill="#13a173"/>
    <path id="Path_1233" data-name="Path 1233" d="M745.453,620.082s-11.3-100.617,11.65-162.752" transform="translate(-277.44 -286.458)" fill="none" stroke="#fff" stroke-miterlimit="10" stroke-width="2" opacity="0.72"/>
    <line id="Line_95" data-name="Line 95" y1="24.247" x2="19.488" transform="translate(465.294 243.944)" fill="none" stroke="#fff" stroke-miterlimit="10" stroke-width="2" opacity="0.72"/>
    <line id="Line_96" data-name="Line 96" x1="15.16" y1="31.399" transform="translate(451.066 212.545)" fill="none" stroke="#fff" stroke-miterlimit="10" stroke-width="2" opacity="0.72"/>
    <line id="Line_97" data-name="Line 97" y1="20.123" x2="22.51" transform="translate(468.803 197.35)" fill="none" stroke="#fff" stroke-miterlimit="10" stroke-width="2" opacity="0.72"/>
    <line id="Line_98" data-name="Line 98" x1="13.797" y1="28.483" transform="translate(458.65 165.223)" fill="none" stroke="#fff" stroke-miterlimit="10" stroke-width="2" opacity="0.72"/>
    <path id="Path_1234" data-name="Path 1234" d="M763.576,679.33l-1.186,8.621-9.052,65.75h-68.49l-2.867-20.836L674.61,679.33Z" transform="translate(-257.436 -351.708)" fill="#b8c5d8"/>
    <path id="Path_1235" data-name="Path 1235" d="M758.622,686.55H672.8L663.11,665H768.316Z" transform="translate(-254.056 -347.497)" fill="#d5e0f7"/>
    <path id="Path_1236" data-name="Path 1236" d="M763.576,679.33l-1.186,8.621c-16.19,13.246-45.041,33.659-80.408,44.914L674.61,679.33Z" transform="translate(-257.436 -351.708)" fill="#e9efff" opacity="0.15"/>
    <rect id="Rectangle_160" data-name="Rectangle 160" width="335.388" height="209.706" transform="translate(101.556 183.115)" fill="#d5e0f7"/>
    <rect id="Rectangle_161" data-name="Rectangle 161" width="311.382" height="179.578" transform="translate(113.56 193.706)" fill="#fff"/>
    <rect id="Rectangle_162" data-name="Rectangle 162" width="372.811" height="18.358" transform="translate(82.492 383.642)" fill="#c3d1ea"/>
    <rect id="Rectangle_163" data-name="Rectangle 163" width="70.608" height="8.473" transform="translate(233.593 384.348)" fill="#e9efff"/>
    <rect id="Rectangle_164" data-name="Rectangle 164" width="168.047" height="142.628" transform="translate(124.271 217.473)" fill="#e9efff" opacity="0.34"/>
    <circle id="Ellipse_103" data-name="Ellipse 103" cx="31.244" cy="31.244" r="31.244" transform="translate(177.05 235.478)" fill="#4f6bfd"/>
    <path id="Path_1237" data-name="Path 1237" d="M416.4,703.145H287.49a65.623,65.623,0,0,1,128.909,0Z" transform="translate(-143.654 -343.044)" fill="#4f6bfd"/>
    <rect id="Rectangle_165" data-name="Rectangle 165" width="97.256" height="61.429" transform="translate(309.801 258.073)" fill="#4741bb"/>
    <circle id="Ellipse_104" data-name="Ellipse 104" cx="13.458" cy="13.458" r="13.458" transform="translate(348.148 265.825)" fill="#fff" opacity="0.8"/>
    <path id="Path_1238" data-name="Path 1238" d="M612.109,658.24H556.59a28.243,28.243,0,0,1,55.519,0Z" transform="translate(-222.747 -338.738)" fill="#fff" opacity="0.8"/>
    <circle id="Ellipse_105" data-name="Ellipse 105" cx="11.121" cy="11.121" r="11.121" transform="translate(165.195 334.682)" fill="#e9efff"/>
    <rect id="Rectangle_166" data-name="Rectangle 166" width="9.356" height="6.708" transform="translate(169.34 342.449)" fill="#ff748f"/>
    <path id="Path_1239" data-name="Path 1239" d="M336.86,705.357l3,1.391v-5.7l-3,1.384Z" transform="translate(-158.164 -358.092)" fill="#ff748f"/>
    <circle id="Ellipse_106" data-name="Ellipse 106" cx="11.121" cy="11.121" r="11.121" transform="translate(197.174 334.682)" fill="#e9efff"/>
    <path id="Path_1240" data-name="Path 1240" d="M372.329,707.319c-1.356-1.356-.523-4.378,1.85-6.75s5.394-3.206,6.75-1.85" transform="translate(-168.398 -357.216)" fill="none" stroke="#4f6bfd" stroke-miterlimit="10" stroke-width="2"/>
    <rect id="Rectangle_167" data-name="Rectangle 167" width="1.518" height="3.241" rx="0.759" transform="translate(213.146 339.829) rotate(45)" fill="none" stroke="#4f6bfd" stroke-miterlimit="10" stroke-width="2"/>
    <rect id="Rectangle_168" data-name="Rectangle 168" width="1.518" height="3.241" rx="0.759" transform="translate(204.543 348.429) rotate(45)" fill="none" stroke="#4f6bfd" stroke-miterlimit="10" stroke-width="2"/>
    <circle id="Ellipse_107" data-name="Ellipse 107" cx="11.121" cy="11.121" r="11.121" transform="translate(229.159 334.682)" fill="#e9efff"/>
    <ellipse id="Ellipse_108" data-name="Ellipse 108" cx="2.351" cy="3.806" rx="2.351" ry="3.806" transform="translate(237.929 338.411)" fill="none" stroke="#4741bb" stroke-miterlimit="10" stroke-width="1"/>
    <path id="Path_1241" data-name="Path 1241" d="M426.69,700.8c0,2.973-2.005,5.38-4.477,5.38s-4.484-2.408-4.484-5.38" transform="translate(-181.934 -358.019)" fill="none" stroke="#4741bb" stroke-miterlimit="10" stroke-width="1"/>
    <line id="Line_99" data-name="Line 99" y2="6.404" transform="translate(240.28 346.022)" fill="none" stroke="#4741bb" stroke-miterlimit="10" stroke-width="1"/>
    <line id="Line_100" data-name="Line 100" x2="4.702" transform="translate(237.929 352.426)" fill="none" stroke="#4741bb" stroke-miterlimit="10" stroke-width="1"/>
    <rect id="Rectangle_169" data-name="Rectangle 169" width="143.575" height="206.126" transform="translate(37.183 86.615)" fill="#fdbd28"/>
    <g id="Group_1140" data-name="Group 1140" transform="translate(48.473 106.3)" opacity="0.8">
      <path id="Path_1242" data-name="Path 1242" d="M160.974,382.2c-3.982,0-6.284-2.57-6.284-6.574,0-4.3,2.549-6.75,6.355-6.75a7.675,7.675,0,0,1,3.3.706l.515-1.723a8.819,8.819,0,0,0-3.883-.706c-5.077,0-8.544,3.474-8.544,8.593,0,5.366,3.467,8.275,8.078,8.275a10.486,10.486,0,0,0,4.321-.777l-.438-1.673a8.381,8.381,0,0,1-3.417.628Z" transform="translate(-152.43 -366.252)" fill="#fff"/>
      <path id="Path_1243" data-name="Path 1243" d="M182.465,379.156c0-2.161-1.024-5.536-4.858-5.536-3.417,0-5.507,2.824-5.507,6.355s2.161,5.917,5.776,5.917a9.56,9.56,0,0,0,3.912-.706l-.367-1.525a7.768,7.768,0,0,1-3.255.607,3.772,3.772,0,0,1-4.025-4.081h8.254A8.838,8.838,0,0,0,182.465,379.156Zm-8.318-.53c.169-1.483,1.116-3.474,3.276-3.474,2.408,0,2.987,2.118,2.966,3.474Z" transform="translate(-158.211 -368.155)" fill="#fff"/>
      <path id="Path_1244" data-name="Path 1244" d="M195.674,373.62a3.53,3.53,0,0,0-3.255,2.577h-.1l-.1-2.309H190.35c.071,1.094.1,2.281.1,3.665v8.085h2.118v-6.263a5.938,5.938,0,0,1,.1-1,2.988,2.988,0,0,1,2.86-2.74,3.2,3.2,0,0,1,.706.071V373.7A2.3,2.3,0,0,0,195.674,373.62Z" transform="translate(-163.575 -368.155)" fill="#fff"/>
      <path id="Path_1245" data-name="Path 1245" d="M207.657,374.219V372.6H204.6V369.22l-2.118.558V372.6H200.66v1.624h1.822v6.411a4.3,4.3,0,0,0,.819,3.057,2.958,2.958,0,0,0,2.309.9,5.225,5.225,0,0,0,1.892-.29l-.1-1.6a4.476,4.476,0,0,1-1.236.148c-1.186,0-1.6-.826-1.6-2.281v-6.355Z" transform="translate(-166.606 -366.861)" fill="#fff"/>
      <path id="Path_1246" data-name="Path 1246" d="M213.888,372.072v11.749h2.118V372.072Zm1.066-4.632a1.3,1.3,0,0,0-1.334,1.335,1.327,1.327,0,1,0,1.334-1.335Z" transform="translate(-170.415 -366.338)" fill="#fff"/>
      <path id="Path_1247" data-name="Path 1247" d="M223.763,371.613v-.579c0-1.871.65-3.453,2.909-3.453a4.463,4.463,0,0,1,2.478.706l.607-1.631a5.939,5.939,0,0,0-2.987-.777c-3.3,0-5.126,2.019-5.126,5.126v.607H220v1.624h1.645v10.125h2.118V373.237h4.71v10.125h2.118V371.613Z" transform="translate(-172.29 -365.88)" fill="#fff"/>
      <path id="Path_1248" data-name="Path 1248" d="M245.042,384.194c-2.33,0-4.081-1.673-4.081-4.392,0-2.457,1.462-4.448,4.152-4.448a4.892,4.892,0,0,1,2.478.565l.487-1.652a7.061,7.061,0,0,0-2.966-.607,5.969,5.969,0,0,0-6.312,6.235c0,3.615,2.309,5.995,5.853,5.995a7.916,7.916,0,0,0,3.375-.706l-.367-1.6a6.03,6.03,0,0,1-2.62.614Z" transform="translate(-177.816 -368.166)" fill="#fff"/>
      <path id="Path_1249" data-name="Path 1249" d="M263.282,382.82v-4.392c0-2.351-.876-4.808-4.462-4.808a7.329,7.329,0,0,0-3.862,1.045l.487,1.412a5.825,5.825,0,0,1,3.057-.876,2.421,2.421,0,0,1,2.669,2.718v.24c-4.54,0-7.061,1.532-7.061,4.371a3.347,3.347,0,0,0,3.587,3.375,4.37,4.37,0,0,0,3.594-1.751h.078l.169,1.483h1.942A16.238,16.238,0,0,1,263.282,382.82Zm-2.062-1.165a2.288,2.288,0,0,1-.12.706,2.923,2.923,0,0,1-2.824,1.963,1.885,1.885,0,0,1-2.019-2.033c0-2.281,2.648-2.7,4.978-2.648Z" transform="translate(-182.316 -368.154)" fill="#fff"/>
      <path id="Path_1250" data-name="Path 1250" d="M276.934,374.219V372.6h-3.057V369.22l-2.083.558V372.6H270v1.624h1.822v6.411a4.3,4.3,0,0,0,.826,3.057,2.937,2.937,0,0,0,2.295.9,5.225,5.225,0,0,0,1.892-.29l-.092-1.6a4.576,4.576,0,0,1-1.243.148c-1.186,0-1.6-.826-1.6-2.281v-6.355Z" transform="translate(-186.986 -366.861)" fill="#fff"/>
      <path id="Path_1251" data-name="Path 1251" d="M283.118,372.072v11.749h2.118V372.072Zm1.066-4.632a1.3,1.3,0,0,0-1.334,1.335,1.327,1.327,0,1,0,1.334-1.335Z" transform="translate(-190.763 -366.338)" fill="#fff"/>
      <path id="Path_1252" data-name="Path 1252" d="M295.9,373.62c-3.248,0-5.825,2.309-5.825,6.242,0,3.714,2.45,6.044,5.649,6.044,2.824,0,5.846-1.892,5.846-6.242C301.551,376.077,299.27,373.62,295.9,373.62ZM295.8,384.3c-2.118,0-3.573-1.942-3.573-4.512,0-2.238,1.094-4.568,3.615-4.568s3.53,2.528,3.53,4.519C299.369,382.361,297.837,384.3,295.8,384.3Z" transform="translate(-192.885 -368.155)" fill="#fff"/>
      <path id="Path_1253" data-name="Path 1253" d="M319.32,375.413a3.926,3.926,0,0,0-3.361-1.793,4.321,4.321,0,0,0-3.883,2.21h-.049l-.12-1.942H310c.071.974.092,1.97.092,3.177v8.572h2.118v-7.061a3.149,3.149,0,0,1,3.008-3.184,2.457,2.457,0,0,1,2.563,2.118,5.77,5.77,0,0,1,.155,1.412v6.771h2.118v-7.011A5.875,5.875,0,0,0,319.32,375.413Z" transform="translate(-198.743 -368.154)" fill="#fff"/>
    </g>
    <line id="Line_101" data-name="Line 101" x2="121.34" transform="translate(48.501 151.101)" fill="none" stroke="#fff" stroke-miterlimit="10" stroke-width="3.8" opacity="0.8"/>
    <line id="Line_102" data-name="Line 102" x2="121.34" transform="translate(48.501 161.227)" fill="none" stroke="#fff" stroke-miterlimit="10" stroke-width="3.8" opacity="0.8"/>
    <line id="Line_103" data-name="Line 103" x2="121.34" transform="translate(48.501 171.345)" fill="none" stroke="#fff" stroke-miterlimit="10" stroke-width="3.8" opacity="0.8"/>
    <line id="Line_104" data-name="Line 104" x2="48.642" transform="translate(48.501 181.463)" fill="none" stroke="#fff" stroke-miterlimit="10" stroke-width="3.8" opacity="0.8"/>
    <line id="Line_105" data-name="Line 105" x2="121.34" transform="translate(48.501 232.068)" fill="none" stroke="#fff" stroke-miterlimit="10" stroke-width="3.8" opacity="0.8"/>
    <line id="Line_106" data-name="Line 106" x2="121.34" transform="translate(48.501 242.186)" fill="none" stroke="#fff" stroke-miterlimit="10" stroke-width="3.8" opacity="0.8"/>
    <line id="Line_107" data-name="Line 107" x2="48.642" transform="translate(48.501 252.311)" fill="none" stroke="#fff" stroke-miterlimit="10" stroke-width="3.8" opacity="0.8"/>
    <line id="Line_108" data-name="Line 108" x2="121.34" transform="translate(48.501 201.706)" fill="none" stroke="#fff" stroke-miterlimit="10" stroke-width="3.8" opacity="0.8"/>
    <line id="Line_109" data-name="Line 109" x2="48.642" transform="translate(48.501 211.824)" fill="none" stroke="#fff" stroke-miterlimit="10" stroke-width="3.8" opacity="0.8"/>
    <circle id="Ellipse_109" data-name="Ellipse 109" cx="49.426" cy="49.426" r="49.426" transform="translate(272.315)" fill="#2b1a82"/>
    <circle id="Ellipse_110" data-name="Ellipse 110" cx="44.25" cy="44.25" r="44.25" transform="translate(277.49 5.176)" fill="#fff" opacity="0.95"/>
    <path id="Path_1254" data-name="Path 1254" d="M554.218,273.915H537.95V242.89h2.118V271.8h14.15Z" transform="translate(-217.269 -223.43)" fill="#2b1a82"/>
    <path id="Path_1255" data-name="Path 1255" d="M532.141,249.607a.53.53,0,0,0,.706-.162l4.357-6.835,4.349,6.835a.537.537,0,0,0,.706.162.544.544,0,0,0,.162-.706l-4.8-7.534a.53.53,0,0,0-.9,0l-4.759,7.506a.544.544,0,0,0-.085.282A.523.523,0,0,0,532.141,249.607Z" transform="translate(-215.484 -222.91)" fill="#2b1a82"/>
    <path id="Path_1256" data-name="Path 1256" d="M555.71,287.864l-.72-.777,3.827-3.559-3.827-3.552.72-.777,4.66,4.328Z" transform="translate(-222.277 -234.103)" fill="#2b1a82"/>
    <rect id="Rectangle_170" data-name="Rectangle 170" width="3.057" height="5.649" rx="1.529" transform="translate(320.208 7.767)" fill="#2b1a82"/>
    <rect id="Rectangle_171" data-name="Rectangle 171" width="3.057" height="5.649" rx="1.529" transform="translate(363.399 47.901) rotate(90)" fill="#2b1a82"/>
    <rect id="Rectangle_172" data-name="Rectangle 172" width="3.057" height="5.649" rx="1.529" transform="translate(323.266 91.092) rotate(180)" fill="#2b1a82"/>
    <rect id="Rectangle_173" data-name="Rectangle 173" width="3.057" height="5.649" rx="1.529" transform="translate(280.075 50.958) rotate(-90)" fill="#2b1a82"/>
    <rect id="Rectangle_174" data-name="Rectangle 174" width="175.108" height="106.618" transform="translate(328.914 124.27)" fill="#ff748f"/>
    <rect id="Rectangle_175" data-name="Rectangle 175" width="99.508" height="57.863" rx="14.47" transform="translate(366.718 148.651)" fill="#fff"/>
    <path id="Path_1257" data-name="Path 1257" d="M682.606,460.217,655.09,444.33V476.1Z" transform="translate(-251.698 -282.637)" fill="#ff748f"/>
    <circle id="Ellipse_111" data-name="Ellipse 111" cx="5.825" cy="5.825" r="5.825" transform="translate(532.859 317.503)" fill="#d5e0f7"/>
    <circle id="Ellipse_112" data-name="Ellipse 112" cx="17.257" cy="17.257" r="17.257" transform="translate(553.258 262.027)" fill="#d5e0f7"/>
    <circle id="Ellipse_113" data-name="Ellipse 113" cx="6.355" cy="6.355" r="6.355" transform="translate(528.382 187.352)" fill="#d5e0f7"/>
    <circle id="Ellipse_114" data-name="Ellipse 114" cx="16.007" cy="16.007" r="16.007" transform="translate(529.441 98.851)" fill="#d5e0f7"/>
    <circle id="Ellipse_115" data-name="Ellipse 115" cx="6.355" cy="6.355" r="6.355" transform="translate(427.413 98.851)" fill="#d5e0f7"/>
    <circle id="Ellipse_116" data-name="Ellipse 116" cx="14.164" cy="14.164" r="14.164" transform="translate(392.582 33.807)" fill="#d5e0f7"/>
    <circle id="Ellipse_117" data-name="Ellipse 117" cx="7.562" cy="7.562" r="7.562" transform="translate(308.318 108.666)" fill="#d5e0f7"/>
    <circle id="Ellipse_118" data-name="Ellipse 118" cx="12.942" cy="12.942" r="12.942" transform="translate(292.325 157.223)" fill="#d5e0f7"/>
    <circle id="Ellipse_119" data-name="Ellipse 119" cx="4.116" cy="4.116" r="4.116" transform="translate(198.176 167.581)" fill="#d5e0f7"/>
    <circle id="Ellipse_120" data-name="Ellipse 120" cx="8.12" cy="8.12" r="8.12" transform="translate(202.293 85.436)" fill="#d5e0f7"/>
    <circle id="Ellipse_121" data-name="Ellipse 121" cx="13.062" cy="13.062" r="13.062" transform="translate(173.223 10.591)" fill="#d5e0f7"/>
    <circle id="Ellipse_122" data-name="Ellipse 122" cx="13.232" cy="13.232" r="13.232" transform="translate(54.715 40.487)" fill="#d5e0f7"/>
    <circle id="Ellipse_123" data-name="Ellipse 123" cx="10.005" cy="10.005" r="10.005" transform="translate(0.001 201.706)" fill="#d5e0f7"/>
    <circle id="Ellipse_124" data-name="Ellipse 124" cx="5.416" cy="5.416" r="5.416" transform="translate(45.656 313.5)" fill="#d5e0f7"/>
    <circle id="Ellipse_125" data-name="Ellipse 125" cx="12.003" cy="12.003" r="12.003" transform="translate(144.747 258.193)" fill="#fa7701"/>
    <path id="Path_1258" data-name="Path 1258" d="M312.787,642.016l-12-9.885-12,9.885,4.469-31.985h15.068Z" transform="translate(-144.033 -331.34)" fill="#fa7701"/>
    <path id="Path_1259" data-name="Path 1259" d="M280.035,338v10.535c-3.636,5.19-7.548,10.676-11.707,16.409l-1.5,2.069q-2.718,3.728-5.571,7.583l-.424.572c-6.475,8.727-13.451,17.906-20.851,27.318q-3.954,5.02-8.049,10.118T223.7,422.73c-8.332,10.09-17.073,20.293-26.125,30.361q-4.568,5.084-9.257,10.118c-6.355,6.87-12.914,13.642-19.566,20.243q-5.161,5.126-10.408,10.118c-7.174,6.814-14.468,13.415-21.839,19.643V338Z" transform="translate(-99.278 -251.385)" fill="#e9efff" opacity="0.15"/>
    <path id="Path_1260" data-name="Path 1260" d="M706.282,391.33c-34.916,28.151-91.79,70.778-156.312,106.618h-.36V391.33Z" transform="translate(-220.696 -267.06)" fill="#e9efff" opacity="0.15"/>
    <path id="Path_1261" data-name="Path 1261" d="M619.8,580.83v.071c-12.879,9.01-47.682,32.219-97.256,56.381V580.83Z" transform="translate(-212.739 -322.757)" fill="#e9efff" opacity="0.15"/>
  </g>
</svg>
