<svg xmlns="http://www.w3.org/2000/svg" width="597.618" height="350.953" viewBox="0 0 597.618 350.953">
  <g id="_3" data-name="3" transform="translate(0)">
    <rect id="Rectangle_201" data-name="Rectangle 201" width="5.524" height="62.307" transform="matrix(0.814, -0.581, 0.581, 0.814, 20.879, 260.142)" fill="#2b1a82"/>
    <path id="Path_1317" data-name="Path 1317" d="M139.724,588.363s-2.43,16.279,9.3,17.771l4.49-3.212s.789-8.167-5.105-10.093-7.315-10.929-7.315-10.929A53.982,53.982,0,0,0,139.724,588.363Z" transform="translate(-125.166 -341.8)" fill="#fdbd28"/>
    <path id="Path_1318" data-name="Path 1318" d="M429.256,609.556c-91.536-.979-205.032-.71-216.869-131.109S440.572,275.963,560.775,300.82s148.351,80.717,150.458,124.2S617.9,513.143,611.956,567.347,457.64,609.863,429.256,609.556Z" transform="translate(-140.445 -281.495)" fill="#e9efff" opacity="0.34"/>
    <path id="Path_1319" data-name="Path 1319" d="M236.477,620.323l-5.887-5.437L240.3,604.36l9.588,1.428Z" transform="translate(-144.373 -346.537)" fill="#dd6400"/>
    <rect id="Rectangle_202" data-name="Rectangle 202" width="14.093" height="46.809" rx="5.08" transform="matrix(0.735, 0.678, -0.678, 0.735, 88.912, 260.977)" fill="#fa7701"/>
    <rect id="Rectangle_203" data-name="Rectangle 203" width="7.938" height="1.326" transform="matrix(0.735, 0.678, -0.678, 0.735, 83.978, 270.924)" fill="#fff" opacity="0.8"/>
    <rect id="Rectangle_204" data-name="Rectangle 204" width="7.938" height="1.326" transform="matrix(0.735, 0.678, -0.678, 0.735, 80.545, 274.641)" fill="#fff" opacity="0.8"/>
    <rect id="Rectangle_205" data-name="Rectangle 205" width="7.938" height="1.326" transform="matrix(0.735, 0.678, -0.678, 0.735, 77.112, 278.359)" fill="#fff" opacity="0.8"/>
    <rect id="Rectangle_206" data-name="Rectangle 206" width="7.938" height="1.326" transform="matrix(0.735, 0.678, -0.678, 0.735, 73.681, 282.083)" fill="#fff" opacity="0.8"/>
    <rect id="Rectangle_207" data-name="Rectangle 207" width="7.938" height="1.326" transform="matrix(0.735, 0.678, -0.678, 0.735, 70.253, 285.806)" fill="#fff" opacity="0.8"/>
    <path id="Path_1320" data-name="Path 1320" d="M216.385,646.042h-12.1l-24.02-42.154v42.154H173.56V570.88Z" transform="translate(-132.345 -339.476)" fill="#4f6bfd"/>
    <rect id="Rectangle_208" data-name="Rectangle 208" width="374.823" height="234.363" transform="translate(129.16 91.267)" fill="#d5e0f7"/>
    <rect id="Rectangle_209" data-name="Rectangle 209" width="347.994" height="200.692" transform="translate(142.575 103.104)" fill="#fff"/>
    <rect id="Rectangle_210" data-name="Rectangle 210" width="416.645" height="20.517" transform="translate(107.854 315.372)" fill="#c3d1ea"/>
    <rect id="Rectangle_211" data-name="Rectangle 211" width="78.91" height="9.469" transform="translate(276.722 316.161)" fill="#e9efff"/>
    <rect id="Rectangle_212" data-name="Rectangle 212" width="104.161" height="138.882" transform="translate(86.801 19.333)" fill="#fdbd28"/>
    <rect id="Rectangle_213" data-name="Rectangle 213" width="31.564" height="6.313" transform="translate(102.583 32.353)" fill="#fff" opacity="0.8"/>
    <rect id="Rectangle_214" data-name="Rectangle 214" width="72.597" height="6.313" transform="translate(102.583 49.445)" fill="#fff" opacity="0.8"/>
    <rect id="Rectangle_215" data-name="Rectangle 215" width="72.597" height="6.313" transform="translate(102.583 66.545)" fill="#fff" opacity="0.8"/>
    <rect id="Rectangle_216" data-name="Rectangle 216" width="72.597" height="6.313" transform="translate(102.583 83.645)" fill="#fff" opacity="0.8"/>
    <rect id="Rectangle_217" data-name="Rectangle 217" width="72.597" height="6.313" transform="translate(102.583 100.737)" fill="#fff" opacity="0.8"/>
    <path id="Path_1321" data-name="Path 1321" d="M225.392,636.12v34.042a34.032,34.032,0,0,1-34.018,34.026h-.008a33.994,33.994,0,0,1-34.026-34.026V636.12Z" transform="translate(-128.925 -353.235)" fill="#c3d1ea"/>
    <path id="Path_1322" data-name="Path 1322" d="M757.055,438.028c0,22.955-15.869,41.562-35.446,41.562s-35.439-18.607-35.439-41.562,15.869-28.408,35.439-28.408S757.055,415.081,757.055,438.028Z" transform="translate(-240.454 -305.467)" fill="#2ec68f"/>
    <path id="Path_1323" data-name="Path 1323" d="M750.594,438.028c0,22.955-11.923,41.562-26.632,41.562s-26.632-18.607-26.632-41.562,11.923-28.408,26.632-28.408S750.594,415.081,750.594,438.028Z" transform="translate(-242.808 -305.467)" fill="none" stroke="#fff" stroke-miterlimit="10" stroke-width="1.36" opacity="0.8"/>
    <path id="Path_1324" data-name="Path 1324" d="M739.03,438.028c0,22.955-4.853,41.562-10.85,41.562s-10.85-18.607-10.85-41.562,4.861-28.408,10.85-28.408S739.03,415.081,739.03,438.028Z" transform="translate(-247.026 -305.467)" fill="none" stroke="#fff" stroke-miterlimit="10" stroke-width="1.36" opacity="0.8"/>
    <path id="Path_1325" data-name="Path 1325" d="M713.188,385.7l-6.139,5.169a2.13,2.13,0,0,1-1.231.5l-3.867.237a2.107,2.107,0,0,0-1.452,3.5l3.654,4.143a2.107,2.107,0,0,1,.11,2.659l-3.062,4.1a2.107,2.107,0,0,0,1.349,3.338l5.074.836h.339l36.883.055a2.107,2.107,0,0,0,1.712-3.338h0a2.123,2.123,0,0,1,.063-2.541l2.225-2.793a2.107,2.107,0,0,0-1.46-3.417l-6.431-.568a2.107,2.107,0,0,1-1.917-2.02l-.15-4.19a2.107,2.107,0,0,0-2.943-1.854l-1.294.552a2.1,2.1,0,0,1-2.367-.529l-2.517-2.793a2.107,2.107,0,0,0-2.754-.339l-4.924,3.377a2.123,2.123,0,0,1-2.738-.316l-3.267-3.543A2.115,2.115,0,0,0,713.188,385.7Z" transform="translate(-243.365 -300.323)" fill="#13a173"/>
    <line id="Line_121" data-name="Line 121" y1="7.962" x2="6.171" transform="translate(506.35 138.093)" fill="none" stroke="#fff" stroke-miterlimit="10" stroke-width="1.36" opacity="0.8"/>
    <line id="Line_122" data-name="Line 122" x1="9.367" y1="5.121" transform="translate(497.662 118.365)" fill="none" stroke="#fff" stroke-miterlimit="10" stroke-width="1.36" opacity="0.8"/>
    <line id="Line_123" data-name="Line 123" y1="10.1" x2="7.22" transform="translate(491.097 139.142)" fill="none" stroke="#fff" stroke-miterlimit="10" stroke-width="1.36" opacity="0.8"/>
    <line id="Line_124" data-name="Line 124" x1="10.834" y1="10.392" transform="translate(481.154 124.41)" fill="none" stroke="#fff" stroke-miterlimit="10" stroke-width="1.36" opacity="0.8"/>
    <line id="Line_125" data-name="Line 125" y1="11.292" x2="6.423" transform="translate(471.511 140.326)" fill="none" stroke="#fff" stroke-miterlimit="10" stroke-width="1.36" opacity="0.8"/>
    <line id="Line_126" data-name="Line 126" x1="6.439" y1="11.316" transform="translate(463.865 123.486)" fill="none" stroke="#fff" stroke-miterlimit="10" stroke-width="1.36" opacity="0.8"/>
    <line id="Line_127" data-name="Line 127" y1="7.473" x2="7.015" transform="translate(470.919 112.841)" fill="none" stroke="#fff" stroke-miterlimit="10" stroke-width="1.36" opacity="0.8"/>
    <line id="Line_128" data-name="Line 128" x1="8.262" y1="8.507" transform="translate(449.393 143.616)" fill="none" stroke="#fff" stroke-miterlimit="10" stroke-width="1.36" opacity="0.8"/>
    <line id="Line_129" data-name="Line 129" y1="8.68" x2="5.666" transform="translate(454.648 127.834)" fill="none" stroke="#fff" stroke-miterlimit="10" stroke-width="1.36" opacity="0.8"/>
    <line id="Line_130" data-name="Line 130" x1="3.283" y1="6.045" transform="translate(451.997 117.442)" fill="none" stroke="#fff" stroke-miterlimit="10" stroke-width="1.36" opacity="0.8"/>
    <path id="Path_1326" data-name="Path 1326" d="M626.438,559.63h138.29v42.217H626.438a21.108,21.108,0,0,1-21.109-21.108h0a21.108,21.108,0,0,1,21.108-21.108Z" transform="translate(-223.405 -337.103)" fill="#4f6bfd"/>
    <path id="Path_1327" data-name="Path 1327" d="M632.458,571.19H767.924v23.965H632.458a11.979,11.979,0,0,1-11.979-11.979h0A11.979,11.979,0,0,1,632.458,571.19Z" transform="translate(-226.6 -339.541)" fill="#fff" opacity="0.8"/>
    <path id="Path_1328" data-name="Path 1328" d="M762.737,472.63l-14.993,68.652H691.323l-4.372-20.027L676.33,472.63Z" transform="translate(-238.379 -318.755)" fill="#c3d1ea"/>
    <path id="Path_1329" data-name="Path 1329" d="M685.978,613.13H815.162v42.217H685.978a21.108,21.108,0,0,1-21.108-21.108h0A21.108,21.108,0,0,1,685.978,613.13Z" transform="translate(-235.962 -348.387)" fill="#c3d1ea"/>
    <path id="Path_1330" data-name="Path 1330" d="M691.994,624.69H818.353v23.965H691.994A11.979,11.979,0,0,1,680,636.676h0a11.979,11.979,0,0,1,11.994-11.986Z" transform="translate(-239.153 -350.825)" fill="#fff" opacity="0.8"/>
    <path id="Path_1331" data-name="Path 1331" d="M661.048,666.62H790.24v42.217H661.048a21.109,21.109,0,0,1-21.108-21.109h0a21.108,21.108,0,0,1,21.108-21.109Z" transform="translate(-230.704 -359.667)" fill="#2b1a82"/>
    <path id="Path_1332" data-name="Path 1332" d="M667.069,678.19H793.435v23.965H667.069a11.979,11.979,0,0,1-11.979-11.979h0a11.979,11.979,0,0,1,11.979-11.986Z" transform="translate(-233.9 -362.108)" fill="#fff" opacity="0.8"/>
    <path id="Path_1333" data-name="Path 1333" d="M309.575,546.615c-3.843,17.684-12.263,35.51-23.05,53.375l-44.916-19.4A87.426,87.426,0,0,0,251.8,564.93c5.524-10.74,9.738-23.428,12.862-37.68,13.359,7.6,25.8,13.6,36.859,17.171C304.3,545.289,306.979,546.038,309.575,546.615Z" transform="translate(-146.697 -330.275)" fill="#fa7701"/>
    <circle id="Ellipse_146" data-name="Ellipse 146" cx="19.286" cy="19.286" r="19.286" transform="translate(40.646 152.02)" fill="#d5e0f7"/>
    <circle id="Ellipse_147" data-name="Ellipse 147" cx="9.375" cy="9.375" r="9.375" transform="translate(0 109.077)" fill="#d5e0f7"/>
    <path id="Path_1334" data-name="Path 1334" d="M532.077,450.04c-33.584-11.2-38.248,23.121-72.992,37.609s-55.237,5.39-58.788,41.294,70.7,79.3,112.052,54.3C565.614,551.037,565.219,461.087,532.077,450.04Z" transform="translate(-180.138 -313.526)" fill="#e9efff" opacity="0.34"/>
    <circle id="Ellipse_148" data-name="Ellipse 148" cx="4.537" cy="4.537" r="4.537" transform="translate(263.039 66.545)" fill="#d5e0f7"/>
    <circle id="Ellipse_149" data-name="Ellipse 149" cx="6.968" cy="6.968" r="6.968" transform="translate(53.138 52.609)" fill="#d5e0f7"/>
    <circle id="Ellipse_150" data-name="Ellipse 150" cx="11.837" cy="11.837" r="11.837" transform="translate(219.37 8.412)" fill="#d5e0f7"/>
    <circle id="Ellipse_151" data-name="Ellipse 151" cx="20.256" cy="20.256" r="20.256" transform="translate(379.818 49.445)" fill="#d5e0f7"/>
    <circle id="Ellipse_152" data-name="Ellipse 152" cx="4.206" cy="4.206" r="4.206" transform="translate(328.274)" fill="#d5e0f7"/>
    <circle id="Ellipse_153" data-name="Ellipse 153" cx="9.666" cy="9.666" r="9.666" transform="translate(474.723)" fill="#d5e0f7"/>
    <circle id="Ellipse_154" data-name="Ellipse 154" cx="9.209" cy="9.209" r="9.209" transform="translate(579.2 59.964)" fill="#d5e0f7"/>
    <circle id="Ellipse_155" data-name="Ellipse 155" cx="5.263" cy="5.263" r="5.263" transform="translate(570.78 203.059)" fill="#d5e0f7"/>
    <path id="Path_1335" data-name="Path 1335" d="M543.844,530.528l-.489,2.557-1.768,9.193-8.862,46.107q-55.237,17.195-100.216-19.27l1.373-7.157,7.489-38.942,2.257-11.765,56.216,10.85,40.055,7.7Z" transform="translate(-186.958 -326.9)" fill="#423a91"/>
    <path id="Path_1336" data-name="Path 1336" d="M586.052,515.841l-46.794,12.184-7.347,1.925-54.7,14.251-18.039-13.273-27.484-20.24L386.63,477.514,494.784,452.76l34.042,23.523Z" transform="translate(-177.282 -314.565)" fill="#2b1a82"/>
    <path id="Path_1337" data-name="Path 1337" d="M510.65,509.15s66.561,11.182,59.222,55.576-9.54,53.2-9.54,53.2" transform="translate(-203.437 -326.457)" fill="none" stroke="#423a91" stroke-miterlimit="10" stroke-width="2"/>
    <circle id="Ellipse_156" data-name="Ellipse 156" cx="6.905" cy="6.905" r="6.905" transform="translate(349.99 284.534)" fill="#423a91"/>
    <circle id="Ellipse_157" data-name="Ellipse 157" cx="13.415" cy="13.415" r="13.415" transform="translate(164.133 120.622)" fill="#fa7701"/>
    <path id="Path_1338" data-name="Path 1338" d="M356.159,495.266l-13.415-11.047L329.33,495.266l5-35.746h16.832Z" transform="translate(-165.197 -315.99)" fill="#fa7701"/>
    <path id="Path_1339" data-name="Path 1339" d="M225.09,636.12c-10.905,13.928-30.546,33.655-63.278,50.944a33.971,33.971,0,0,1-4.482-16.9V636.12Z" transform="translate(-128.923 -353.235)" fill="#e9efff" opacity="0.15"/>
    <path id="Path_1340" data-name="Path 1340" d="M335.491,302.12v19.1c-19.428,25.354-55.284,64.659-104.161,86.572V302.12Z" transform="translate(-144.529 -282.795)" fill="#e9efff" opacity="0.15"/>
    <path id="Path_1341" data-name="Path 1341" d="M528.826,476.3c-7.946,7.812-17.36,16.437-28.2,25.251q-5.027,4.087-10.456,8.215a374.96,374.96,0,0,1-31,21.2A340.645,340.645,0,0,1,424.2,549.678l7.489-38.942L386.63,477.594,494.784,452.84Z" transform="translate(-177.282 -314.582)" fill="#e9efff" opacity="0.15"/>
    <path id="Path_1342" data-name="Path 1342" d="M747.783,472.62c-14.59,15.782-35.77,35.375-60.832,48.624L676.33,472.62Z" transform="translate(-238.379 -318.753)" fill="#e9efff" opacity="0.15"/>
    <path id="Path_1343" data-name="Path 1343" d="M304.243,544.413A90.912,90.912,0,0,1,254.53,564.93c5.524-10.74,9.737-23.428,12.862-37.68C280.744,534.818,293.18,540.823,304.243,544.413Z" transform="translate(-149.422 -330.275)" fill="#e9efff" opacity="0.15"/>
  </g>
</svg>
