<svg xmlns="http://www.w3.org/2000/svg" width="567" height="363.5" viewBox="0 0 567 363.5">
  <g id="_4" data-name="4" transform="translate(-0.001 0.429)">
    <path id="Path_1344" data-name="Path 1344" d="M259.5,437.039s27.092-27.086,35.032-36.389c2.237,12.073-1.61,38.436-25.483,47.985C261.546,439.768,259.5,437.039,259.5,437.039Z" transform="translate(-140.041 -287.415)" fill="#c46210"/>
    <circle id="Ellipse_158" data-name="Ellipse 158" cx="15.5" cy="15.5" r="15.5" transform="translate(100.001 145.571)" fill="#e86900"/>
    <path id="Path_1345" data-name="Path 1345" d="M142.7,641.937s-28.416-95.492,46.614-104.359,120.729-25.237,158.244-82.192S461.466,337.044,581.514,414.12s19.781,227.817,19.781,227.817Z" transform="translate(-101.231 -280.184)" fill="#e9efff" opacity="0.34"/>
    <rect id="Rectangle_222" data-name="Rectangle 222" width="64.116" height="38.197" transform="translate(256.217 317.076)" fill="#d5e0f7"/>
    <rect id="Rectangle_223" data-name="Rectangle 223" width="133" height="11" transform="translate(222.001 350.571)" fill="#c3cfe5"/>
    <path id="Path_1346" data-name="Path 1346" d="M761.3,579.834c7.687,5.457,33.565-2.428,34.248-17.434s-5.457-21.827,11.6-30.694,7.5-21.145,8.185-36.151S831.7,471,831.7,471s-53.2,4.775-62.752,18.416,0,36.151-5.457,44.336S733.872,560.428,761.3,579.834Z" transform="translate(-295.483 -309.781)" fill="#13a173"/>
    <path id="Path_1347" data-name="Path 1347" d="M763.5,614.174S766.228,556.2,802.379,518" transform="translate(-300.269 -324.722)" fill="none" stroke="#fff" stroke-miterlimit="10" stroke-width="2" opacity="0.72"/>
    <path id="Path_1348" data-name="Path 1348" d="M721,594.839c-8.281,4.488-33.04-6.391-31.935-21.377s8.014-21.022-7.865-31.854-4.925-21.868-3.833-36.874S664,478.42,664,478.42s52.261,11.057,60.126,25.735-4.3,35.9.15,44.67S750.536,578.837,721,594.839Z" transform="translate(-268.637 -312.14)" fill="#2ec68f"/>
    <path id="Path_1349" data-name="Path 1349" d="M735.331,631.137s4.174-57.9-27.181-100.117" transform="translate(-282.673 -328.862)" fill="none" stroke="#fff" stroke-miterlimit="10" stroke-width="2" opacity="0.72"/>
    <path id="Path_1350" data-name="Path 1350" d="M775.366,668.5H695.33l7.278,65.48h65.48Z" transform="translate(-278.597 -372.568)" fill="#c3cfe5"/>
    <path id="Path_1351" data-name="Path 1351" d="M774.534,682.58H688.591l-5.341-29.33h96.631Z" transform="translate(-274.757 -367.72)" fill="#d5e0f7"/>
    <rect id="Rectangle_224" data-name="Rectangle 224" width="320" height="208" transform="translate(128.001 117.571)" fill="#d5e0f7"/>
    <rect id="Rectangle_225" data-name="Rectangle 225" width="310" height="165" transform="translate(133.001 124.571)" fill="#fff"/>
    <rect id="Rectangle_226" data-name="Rectangle 226" width="320" height="30" transform="translate(128.001 295.571)" fill="#e9efff"/>
    <ellipse id="Ellipse_159" data-name="Ellipse 159" cx="8" cy="8.5" rx="8" ry="8.5" transform="translate(280.001 302.571)" fill="#d5e0f7"/>
    <rect id="Rectangle_227" data-name="Rectangle 227" width="154" height="165" transform="translate(133.001 124.571)" fill="#e9efff" opacity="0.34"/>
    <rect id="Rectangle_228" data-name="Rectangle 228" width="111" height="9" transform="translate(148.001 193.571)" fill="#4f6bfd"/>
    <rect id="Rectangle_229" data-name="Rectangle 229" width="120.388" height="2.728" transform="translate(148.107 176.907)" fill="#fdbd28"/>
    <rect id="Rectangle_230" data-name="Rectangle 230" width="76.735" height="9.549" transform="translate(148.107 213.058)" fill="#e9efff"/>
    <rect id="Rectangle_231" data-name="Rectangle 231" width="98" height="11" transform="translate(148.001 231.571)" fill="#e9efff"/>
    <rect id="Rectangle_232" data-name="Rectangle 232" width="108.452" height="6.821" transform="translate(320.334 158.15)" fill="#e9efff"/>
    <rect id="Rectangle_233" data-name="Rectangle 233" width="124.14" height="2.728" transform="translate(304.646 173.838)" fill="#e9efff"/>
    <rect id="Rectangle_234" data-name="Rectangle 234" width="72.983" height="29.33" rx="10.17" transform="translate(331.929 205.896)" fill="#fdbd28"/>
    <path id="Path_1352" data-name="Path 1352" d="M588.48,548.383a23.49,23.49,0,0,1,3.56-.273,7.478,7.478,0,0,1,5.252,1.617,5.975,5.975,0,0,1,1.828,4.659,6.855,6.855,0,0,1-1.869,5.041c-1.207,1.214-3.213,1.869-5.73,1.869a27.157,27.157,0,0,1-3.042-.157Zm1.671,11.466a10.92,10.92,0,0,0,1.7.1c3.574,0,5.518-2,5.518-5.5,0-3.056-1.712-5-5.252-5a9.628,9.628,0,0,0-1.964.171Z" transform="translate(-244.628 -334.295)" fill="#fff"/>
    <path id="Path_1353" data-name="Path 1353" d="M617.995,554.492c0,4.468-2.728,6.821-6.023,6.821-3.41,0-5.832-2.653-5.832-6.582,0-4.093,2.558-6.821,6.023-6.821S617.995,550.645,617.995,554.492Zm-10.068.211c0,2.776,1.5,5.259,4.14,5.259s4.154-2.449,4.154-5.389c0-2.578-1.364-5.279-4.14-5.279S607.927,551.859,607.927,554.7Z" transform="translate(-250.242 -334.231)" fill="#fff"/>
    <path id="Path_1354" data-name="Path 1354" d="M626.7,561.226v-12.96h1.828l4.161,6.562a36.337,36.337,0,0,1,2.326,4.215h.041c-.157-1.732-.191-3.308-.191-5.327V548.26h1.589v12.96h-1.705l-4.093-6.582a41.081,41.081,0,0,1-2.428-4.331h-.055c.1,1.637.136,3.192.136,5.348V561.2Z" transform="translate(-256.779 -334.343)" fill="#fff"/>
    <path id="Path_1355" data-name="Path 1355" d="M651.991,555.145h-5.041v4.679H652.6v1.405h-7.3V548.27h7v1.405h-5.327v4.092h5.041Z" transform="translate(-262.692 -334.346)" fill="#fff"/>
    <rect id="Rectangle_235" data-name="Rectangle 235" width="7.503" height="15.715" transform="matrix(0.849, -0.528, 0.528, 0.849, 398.892, 239.508)" fill="#4f6bfd"/>
    <path id="Path_1356" data-name="Path 1356" d="M663.634,584.939,663,565.5l17.154,9.174Z" transform="translate(-268.319 -339.823)" fill="#4f6bfd"/>
    <path id="Path_1357" data-name="Path 1357" d="M324.159,684v33.252a22.509,22.509,0,0,1-.348,3.922,22,22,0,0,1-21.649,18.075H287.5a21.99,21.99,0,0,1-22-22V684Z" transform="translate(-141.949 -377.496)" fill="#2b1a82"/>
    <path id="Path_1358" data-name="Path 1358" d="M356.517,698.475a17.887,17.887,0,0,0-5.852-.975H336v36.151h14.665a18.075,18.075,0,0,0,5.852-35.175Zm-5.852,26.99h-6.48v-19.78h6.48a9.89,9.89,0,1,1,0,19.78Z" transform="translate(-164.361 -381.788)" fill="#2b1a82"/>
    <path id="Path_1359" data-name="Path 1359" d="M276.563,631.616a24.653,24.653,0,0,1-4.495-2.38,32.486,32.486,0,0,1-4.052-3.172,28.164,28.164,0,0,1-6.378-8.56,21.009,21.009,0,0,1-.539-17.127l.587-1.364.5-1.078,1-2.121c1.31-2.838,2.551-5.661,3.7-8.506l.839-2.142c.246-.682.518-1.432.791-2.149l.716-2.162c.239-.723.443-1.453.682-2.183a62.878,62.878,0,0,0,1.917-9,79.973,79.973,0,0,0,.648-9.686c3.588,5.743,4.863,12.96,4.3,19.876a58.7,58.7,0,0,1-5.545,19.685l-1.1,2.258-.559,1.112c-.136.293-.266.58-.416.866a16.869,16.869,0,0,0-1.187,3.554,17.646,17.646,0,0,0,.211,7.783,34.954,34.954,0,0,0,3.26,8.267A77.449,77.449,0,0,0,276.563,631.616Z" transform="translate(-140.052 -338.072)" fill="#c3cfe5"/>
    <path id="Path_1360" data-name="Path 1360" d="M305.53,609c.743,2.046,1.521,3.9,2.319,5.689s1.623,3.479,2.49,5.136c.4.832.873,1.644,1.282,2.462a26.591,26.591,0,0,0,1.364,2.415c.232.4.443.8.682,1.2l.682,1.187.341.6.368.682.791,1.555c.13.259.259.512.375.784l.321.832.593,1.678a22.423,22.423,0,0,1,.682,3.581,18.9,18.9,0,0,1,.048,3.677c-.082.614-.184,1.221-.28,1.828a14.056,14.056,0,0,1-.477,1.767,16.575,16.575,0,0,1-8.854,9.945c.246-1.091.546-2.115.812-3.1s.5-1.937.682-2.865a22.773,22.773,0,0,0,.477-5.2c-.041-.409,0-.8-.075-1.207s-.1-.784-.136-1.166c-.164-.778-.273-1.535-.512-2.292s-.5-1.494-.682-2.251l-.477-1.119-.225-.566c-.082-.191-.191-.375-.28-.559l-1.214-2.524c-.232-.491-.477-.975-.682-1.473s-.4-1.01-.593-1.521a32.475,32.475,0,0,1-.989-3.117,30.179,30.179,0,0,1-.634-3.219,25.762,25.762,0,0,1-.13-6.562,20.136,20.136,0,0,1,.682-3.233A11.454,11.454,0,0,1,305.53,609Z" transform="translate(-154.013 -353.653)" fill="#c3cfe5"/>
    <path id="Path_1361" data-name="Path 1361" d="M134.261,599.737,93.67,367.364,249.056,286.85l7.53,14.528-144.732,75,38.531,220.532Z" transform="translate(-87.322 -251.237)" fill="#645cb7"/>
    <path id="Path_1362" data-name="Path 1362" d="M152.6,723.5h0a26.6,26.6,0,0,1,26.6,26.6v1.364H126V750.1A26.6,26.6,0,0,1,152.6,723.5Z" transform="translate(-97.6 -390.054)" fill="#2b1a82"/>
    <ellipse id="Ellipse_160" data-name="Ellipse 160" cx="16" cy="17" rx="16" ry="17" transform="translate(0.001 103.571)" fill="#2b1a82"/>
    <circle id="Ellipse_161" data-name="Ellipse 161" cx="7" cy="7" r="7" transform="translate(9.001 113.571)" fill="#fff" opacity="0.46"/>
    <circle id="Ellipse_162" data-name="Ellipse 162" cx="12.619" cy="12.619" r="12.619" transform="translate(152.54 29.918)" fill="#2b1a82"/>
    <circle id="Ellipse_163" data-name="Ellipse 163" cx="5.259" cy="5.259" r="5.259" transform="translate(159.9 37.277)" fill="#fff" opacity="0.46"/>
    <ellipse id="Ellipse_164" data-name="Ellipse 164" cx="38.02" cy="13.007" rx="38.02" ry="13.007" transform="translate(146.806 84.339) rotate(-35.54)" fill="#170f68"/>
    <ellipse id="Ellipse_165" data-name="Ellipse 165" cx="17" cy="16.5" rx="17" ry="16.5" transform="translate(149.001 135.571)" fill="#fdbd28"/>
    <circle id="Ellipse_166" data-name="Ellipse 166" cx="13.342" cy="13.342" r="13.342" transform="translate(165.479 51.015)" fill="#fdbd28"/>
    <path id="Path_1363" data-name="Path 1363" d="M368.843,301.612c.327.45.628.907.921,1.364-10.784,3.076-22.659,8.826-34.1,17-11.684,8.342-21.145,17.932-27.549,27.283-.4-.477-.778-.975-1.139-1.487-10.068-14.085-4.372-35.4,12.714-47.6S358.755,287.52,368.843,301.612Z" transform="translate(-153.551 -252.22)" fill="#2b1a82"/>
    <path id="Path_1364" data-name="Path 1364" d="M255.915,447.764a1.212,1.212,0,0,0-.123.089h0a.123.123,0,0,0,.1,0,.648.648,0,0,0,.286-.048q.345-.075.682-.184c.491-.136,1.01-.314,1.542-.5a32.8,32.8,0,0,0,3.213-1.364,51.54,51.54,0,0,0,6.33-3.513,47.95,47.95,0,0,0,10.954-9.856,44.209,44.209,0,0,0,4.243-6.316,47.746,47.746,0,0,0,3.206-7.2,56.552,56.552,0,0,0,2.851-16.472v-.116A4.488,4.488,0,0,1,297.945,401a69.079,69.079,0,0,1,3.5,19.883,64.054,64.054,0,0,1-.682,10.6,65.591,65.591,0,0,1-2.537,10.6,72.785,72.785,0,0,1-10.231,19.678,80.482,80.482,0,0,1-7.278,8.622c-1.323,1.364-2.728,2.694-4.181,4-.737.682-1.494,1.3-2.312,1.944-.4.321-.825.682-1.262.975l-.682.512-.409.273-.225.15c-.068.048-.252.15-.375.218a17.182,17.182,0,1,1-15.354-30.687Z" transform="translate(-135.617 -286.544)" fill="#c46210"/>
    <circle id="Ellipse_167" data-name="Ellipse 167" cx="20.463" cy="20.463" r="20.463" transform="translate(107.522 156.104)" fill="#fa7701"/>
    <circle id="Ellipse_168" data-name="Ellipse 168" cx="8.867" cy="8.867" r="8.867" transform="translate(119.118 167.699)" fill="#ffc392"/>
    <rect id="Rectangle_236" data-name="Rectangle 236" width="96" height="122" transform="translate(403.001 62.571)" fill="#4f6bfd"/>
    <rect id="Rectangle_237" data-name="Rectangle 237" width="41" height="4" transform="translate(415.001 85.571)" fill="#fff" opacity="0.6"/>
    <rect id="Rectangle_238" data-name="Rectangle 238" width="74.689" height="4.775" transform="translate(414.803 106.652)" fill="#fff" opacity="0.6"/>
    <rect id="Rectangle_239" data-name="Rectangle 239" width="53" height="5" transform="translate(415.001 119.571)" fill="#fff" opacity="0.6"/>
    <rect id="Rectangle_240" data-name="Rectangle 240" width="65" height="5" transform="translate(415.001 133.571)" fill="#fff" opacity="0.6"/>
    <rect id="Rectangle_241" data-name="Rectangle 241" width="41" height="4" transform="translate(415.001 147.571)" fill="#fff" opacity="0.6"/>
    <rect id="Rectangle_242" data-name="Rectangle 242" width="50" height="5" transform="translate(415.001 160.571)" fill="#fff" opacity="0.6"/>
    <ellipse id="Ellipse_169" data-name="Ellipse 169" cx="14.5" cy="15" rx="14.5" ry="15" transform="translate(464.001 68.571)" fill="#fff" opacity="0.6"/>
    <path id="Path_1365" data-name="Path 1365" d="M775.5,358.55l-1.412,4.263H772.28l4.584-13.553h2.114l4.625,13.553h-1.876l-1.446-4.263Zm4.44-1.364-1.323-3.9a22.45,22.45,0,0,1-.682-2.476h-.041c-.2.8-.416,1.63-.682,2.456l-1.323,3.922Z" transform="translate(-303.06 -271.078)" fill="#4741bb"/>
    <path id="Path_1366" data-name="Path 1366" d="M790.438,347.12v3.151h3.035v.8h-3.035v3.178h-.853v-3.178H786.55v-.8h3.035V347.12Z" transform="translate(-307.597 -270.397)" fill="#4741bb"/>
    <line id="Line_131" data-name="Line 131" x2="551" transform="translate(16.001 361.571)" fill="none" stroke="#2b1a82" stroke-miterlimit="10" stroke-width="3"/>
    <ellipse id="Ellipse_170" data-name="Ellipse 170" cx="12" cy="12.5" rx="12" ry="12.5" transform="translate(81.001 215.571)" fill="#d5e0f7"/>
    <ellipse id="Ellipse_171" data-name="Ellipse 171" cx="5.5" cy="6" rx="5.5" ry="6" transform="translate(72.001 159.571)" fill="#d5e0f7"/>
    <ellipse id="Ellipse_172" data-name="Ellipse 172" cx="15.5" cy="16" rx="15.5" ry="16" transform="translate(47.001 26.571)" fill="#d5e0f7"/>
    <ellipse id="Ellipse_173" data-name="Ellipse 173" cx="17.5" cy="18" rx="17.5" ry="18" transform="translate(326.001 -0.429)" fill="#d5e0f7"/>
    <ellipse id="Ellipse_174" data-name="Ellipse 174" cx="5.5" cy="6" rx="5.5" ry="6" transform="translate(253.001 66.571)" fill="#d5e0f7"/>
    <circle id="Ellipse_175" data-name="Ellipse 175" cx="4" cy="4" r="4" transform="translate(397.001 37.571)" fill="#d5e0f7"/>
    <ellipse id="Ellipse_176" data-name="Ellipse 176" cx="4.5" cy="3.5" rx="4.5" ry="3.5" transform="translate(516.001 44.571)" fill="#d5e0f7"/>
    <ellipse id="Ellipse_177" data-name="Ellipse 177" cx="11.5" cy="12.5" rx="11.5" ry="12.5" transform="translate(543.001 122.571)" fill="#d5e0f7"/>
    <circle id="Ellipse_178" data-name="Ellipse 178" cx="4.5" cy="4.5" r="4.5" transform="translate(525.001 248.571)" fill="#d5e0f7"/>
    <circle id="Ellipse_179" data-name="Ellipse 179" cx="8.5" cy="8.5" r="8.5" transform="translate(303.001 143.571)" fill="#d5e0f7"/>
    <circle id="Ellipse_180" data-name="Ellipse 180" cx="9" cy="9" r="9" transform="translate(260.001 150.571)" fill="#d5e0f7"/>
    <line id="Line_132" data-name="Line 132" x2="17.905" y2="0.832" transform="translate(216.186 72.016)" fill="none" stroke="#fa7701" stroke-miterlimit="10" stroke-width="3"/>
    <line id="Line_133" data-name="Line 133" x2="9.761" y2="11.37" transform="translate(201.289 86.756)" fill="none" stroke="#fa7701" stroke-miterlimit="10" stroke-width="3"/>
    <line id="Line_134" data-name="Line 134" x2="2.408" y2="14.665" transform="translate(181.099 98.126)" fill="none" stroke="#fa7701" stroke-miterlimit="10" stroke-width="3"/>
    <path id="Path_1367" data-name="Path 1367" d="M772.356,327v12.5c-21.827,26.24-56.8,63.475-96.856,88.31V327Z" transform="translate(-272.293 -264.001)" fill="#e9efff" opacity="0.15"/>
    <path id="Path_1368" data-name="Path 1368" d="M334.1,694.184c-3.022,2.2-6.343,4.529-9.945,6.9l-.457.307-1.93,1.255q-3.9,2.524-8.185,5.075a217.62,217.62,0,0,1-45.134,20.544,21.888,21.888,0,0,1-2.953-11.016V684h58.659v9.208h4.092A17.883,17.883,0,0,1,334.1,694.184Z" transform="translate(-141.949 -377.496)" fill="#e9efff" opacity="0.15"/>
  </g>
</svg>
