<svg xmlns="http://www.w3.org/2000/svg" width="1863.427" height="458.143" viewBox="0 0 1863.427 458.143">
  <g id="avail_course_illustrationBg" transform="translate(-37.999 -2883.358)">
    <path id="Path_158" data-name="Path 158" d="M2457.444,980.042a10.292,10.292,0,0,1,12.012,4.747c4.716,7.392,2.167,6.692,4.461,10.388s3.4,14.2,4.19,19.882c8.088,57.93-88.659,62.624-50.879-11.216,3.543-6.926,6.541-11.089,9.727-18.481S2453.62,978.258,2457.444,980.042Z" transform="translate(-1281.302 2117.538)" fill="#b75742"/>
    <path id="Path_159" data-name="Path 159" d="M2442.272,1129.53l-9.757-3.408s-3.873,4.948-5.034,17.33,0,19.66,0,19.66h11.036Z" transform="translate(-1286.828 2022.167)" fill="#355389"/>
    <path id="Path_160" data-name="Path 160" d="M2467.179,1116.488c-3.309.342-27.931-2-29.3,3.239-7.375,28.145,2.767,67,5.359,69.594s44.907-5.849,44.907-5.849S2494.779,1113.642,2467.179,1116.488Z" transform="translate(-1292.188 2028.562)" fill="#466eb6"/>
    <g id="Group_40" data-name="Group 40" transform="translate(1181.655 3090.624)">
      <path id="Path_161" data-name="Path 161" d="M2571.913,987.8s-2.718-1.3-5.191-5.875c-1.586-2.938-6.3-6.7-4.339-7.313s4.971,4.358,5.533,2.936-5.052-12.176-3.273-12.728,6.434,9.909,6.938,8.636-4.753-10.413-2.24-11.194,5.23,11.251,6.579,10.832-.615-9.6,1.408-10.226,1.739,11.351,2.466,11.006c.393-.186,2.189-5.988,3.288-5.553,1.242.492-2.112,12.4-.623,15.027s13.412,35.261,9.336,39.336c-4.441,4.442-32.706,14.629-38.621,12.877s-9.3-7.6-7.88-11.191,29.365-11.669,29.812-12.8S2571.913,987.8,2571.913,987.8Z" transform="translate(-2544.971 -962.222)" fill="#f7a491"/>
      <path id="Path_162" data-name="Path 162" d="M2627.991,1005.6a6.472,6.472,0,0,1,2.5.452,6.775,6.775,0,0,1,3.952,3.828A11.531,11.531,0,0,0,2627.991,1005.6Z" transform="translate(-2598.782 -990.338)" fill="#f48c7f"/>
    </g>
    <g id="Group_43" data-name="Group 43" transform="translate(804.048 2942.196)">
      <g id="Group_41" data-name="Group 41" transform="translate(84.493 362.4)">
        <path id="Path_163" data-name="Path 163" d="M1506.036,1583.624c-.442-3.165.551-8.609,3.027-17.126-4.906.011-9.032-2.161-14.046-2.085-1.37,8.01-3.491,21.161-3.491,21.161l-.227,10.4,34.917.262s-.291.15-10.585-6.355C1514.87,1589.4,1506.463,1586.682,1506.036,1583.624Z" transform="translate(-1490.162 -1564.411)" fill="#f7a491"/>
        <path id="Path_164" data-name="Path 164" d="M1488.839,1641h36.045c1.333-.12,1.658-1.208,1.2-1.878-.951-1.38-7.981-4.694-12.708-6.894-8.291.872-22.862-2.541-24.17-4.461C1486.927,1634.129,1488.1,1640.837,1488.839,1641Z" transform="translate(-1487.87 -1606.769)" fill="#3c8f7c"/>
      </g>
      <g id="Group_42" data-name="Group 42" transform="translate(40.996 363.093)">
        <path id="Path_165" data-name="Path 165" d="M1374.8,1585.023c-.442-3.165-1.193-7.128-.092-17.682-4.907.011-9.576-.909-14.591-.833,0,8.24.173,20.465.173,20.465l-.227,10.4,34.917.262s-.291.15-10.585-6.355C1383.633,1590.8,1375.226,1588.081,1374.8,1585.023Z" transform="translate(-1358.926 -1566.504)" fill="#f7a491"/>
        <path id="Path_166" data-name="Path 166" d="M1357.6,1641h36.045c1.333-.12,1.658-1.208,1.2-1.878-.952-1.38-7.982-4.694-12.708-6.894-8.291.872-22.862-2.541-24.171-4.461C1355.692,1634.129,1356.863,1640.837,1357.6,1641Z" transform="translate(-1356.635 -1607.463)" fill="#3c8f7c"/>
      </g>
      <path id="Path_167" data-name="Path 167" d="M1481.086,585.068l13.134-13.857s14.059,7.732,30.448,15.119c4.505-7.841,11.858-33.635,12.254-34.866s-8.613-16.729-6.6-17.117,4.632,8.275,6.762,7.4,7.607-20.976,8.889-19.88c2.4,2.053-2.881,12.5-1.617,13.262s4.471-11.582,6.914-11.056-4.124,11.237-3.4,12.266,7.582-9.018,9-6.691c.77,1.263-6.329,8.749-4.87,9.587s7.859-3.877,8.623-2.35-5.971,3.119-7.84,6.984-5.269,5.37-6.4,12.678-4.212,46.365-12.174,49.5C1527.258,608.784,1481.086,585.068,1481.086,585.068Z" transform="translate(-1398.841 -504.977)" fill="#f7a491"/>
      <path id="Path_168" data-name="Path 168" d="M1441.533,938.144l-10.651,5.941-21.65,33.1,38.719,91.131s-4.361,13.7-5.781,20.552c-1.487,7.164-5.132,68.651-5.132,68.651l16.517.278s15.689-65.457,18.346-86.7c3.227-25.8-16.419-87.243-16.419-87.243-3.663-12.536-11.562-38.326-11.562-38.326S1441.988,939.244,1441.533,938.144Z" transform="translate(-1350.803 -783.314)" fill="#355389"/>
      <path id="Path_169" data-name="Path 169" d="M1350.38,900.632a31.185,31.185,0,0,1-3.3,16.669c-2.685,5.415-7.323,9.66-10.645,16.293-6.285,12.552-9.7,30.383-7.341,41.843,0,0,13,49.626,12.48,67.764-.19,6.688-2.484,18.738-3.953,26.885-1.3,7.2-.842,60.629-.842,60.629l17.55.339,14.125-87.629,5.972-77.893,13.029-52.465Z" transform="translate(-1296.723 -758.235)" fill="#466eb6"/>
      <path id="Path_170" data-name="Path 170" d="M1327.608,497.63c-1.7-8.044-3.461-16.117-11.455-21.911-6.468-4.689-13.419-6.029-20.789-3.356-20.879,7.573-9.649,24.142-35.559,41.8-8.051,5.488-11.107,7.4-16.885,14.714-8.088,10.236-12.508,23.97-8.442,35.276,8.407,23.382,34.457,30.138,48.085,25.18,25.365-9.228,46.5-41.4,47.9-50.175C1331.968,529.765,1328.7,502.809,1327.608,497.63Z" transform="translate(-1232.943 -471.002)" fill="#13375b"/>
      <path id="Path_171" data-name="Path 171" d="M1360.081,680.981c5.877,2.717,16.522,6.8,16.522,6.8l6.057-19.155c-34.231-19.472-31.545-16.33-57.237-15.948-20.524.293-29.127-3.627-46.8,44.086,0,0,13.454,6.045,18.272,7.985,2.072-5.9,5.816-17.661,8-10.955a195.052,195.052,0,0,1,7.334,30.888c1.029,6.242,3.268,14.232,2.091,20.591,0,0,13.978,2.878,24.655,3.346a.417.417,0,0,0,.091,0,83.666,83.666,0,0,0,15.147-1.6s2.093-44.26,3.212-46.107c1.239-2.045,6.469-8.652,2.019-18.534C1358.657,680.626,1358.869,680.42,1360.081,680.981Z" transform="translate(-1263.482 -592.184)" fill="#50bfa5"/>
      <path id="Path_172" data-name="Path 172" d="M1422.808,587.909s-1.635,13.2-2.6,17.782c-1.008,4.8-2.525,19.9,7.418,22.348s6.871-16.43,7.035-21.306,2.982-21.877,2.982-21.877Z" transform="translate(-1357.651 -547.12)" fill="#f7a491"/>
      <path id="Path_173" data-name="Path 173" d="M1427.9,592.121c.1.06.2.126.3.185,5.5,3.151,10.278,2.653,13.868.2.641-4.22,1.21-7.652,1.21-7.652l-14.837,3.053S1428.223,589.668,1427.9,592.121Z" transform="translate(-1363.284 -547.12)" fill="#f47458"/>
      <path id="Path_174" data-name="Path 174" d="M1415.114,489.69a17.016,17.016,0,0,0-9.187,7.425c-3.36,5.786-5.036,22.4,7.332,29.5s21.146-4.27,20.772-14.9S1430.7,487.023,1415.114,489.69Z" transform="translate(-1346.967 -483.276)" fill="#f7a491"/>
      <path id="Path_175" data-name="Path 175" d="M1492.2,533.236c.137,2.763-1.044,5.067-2.64,5.148s-3-2.093-3.137-4.856,1.045-5.067,2.64-5.148S1492.06,530.473,1492.2,533.236Z" transform="translate(-1402.401 -509.361)" fill="#f7a491"/>
      <path id="Path_176" data-name="Path 176" d="M1405.032,489.036s-6.667,17.381-13.192,19.233-6,10.4-6,10.4-.835-19.761,5.125-24.606S1405.032,489.036,1405.032,489.036Z" transform="translate(-1335.134 -483.059)" fill="#13375b"/>
      <path id="Path_177" data-name="Path 177" d="M1398.227,549.6c1.006,2.716.346,5.475-1.474,6.161s-4.112-.96-5.118-3.677-.346-5.475,1.474-6.162S1397.221,546.879,1398.227,549.6Z" transform="translate(-1338.724 -520.984)" fill="#f7a491"/>
      <path id="Path_178" data-name="Path 178" d="M1318.7,849.269c.243.033,1.332-.11,2.224-.088a16.984,16.984,0,0,1,2.313.209,6.572,6.572,0,0,1,1.409-.848c.386-.176,1.013-.242,1.443-.44s.815-.584,1.233-.771c1.091-.474,2.093-.584,2.423-.011.275.473-5.792,4.184-5.792,4.184-5.616.033-11.5,2.9-24.512-5.594-7.433-3.248-43.53-21.077-44.256-24.964-.408-2.18,5.131-19.061,9.657-31.879,3.49,1.564,10.912,4.867,15.064,6.607-3.81,8.071-8.3,18.775-7.83,20.086.121.341.573.958,24.975,16.936.617.4,1.244.815,1.883,1.233q2.577,1.685,5.506,3.59l6.96-.727s11.023.76,11.353,2.015c.143.573-.771.859-1.894,1.024h-.033l-.5.066h-.022c-1.212.143-2.489.165-2.8.275a7.232,7.232,0,0,0-1.663.815c6.871,2.808,6.343,1.806,8.622,1.663.573-.044,1.178.121,1.718.077.925-.077,1.663-.628,2.378-.672a3.1,3.1,0,0,1,2.082.627c.242.242-.209.595-1.09.991-5.308,2.3-9.7,1.42-11.111,1.762-.947.231.782.584,3.48.3a14.175,14.175,0,0,0,2.445-.033c.594-.132,1.134-.518,1.718-.661.54-.132,1.09-.121,1.542-.209.595-.11,1.421-.562,1.894-.617a4.5,4.5,0,0,1,2.819.275c.407.364-7.6,3.436-7.6,3.436s-5.517.793-6.75.793C1318,848.718,1317.26,849.048,1318.7,849.269Z" transform="translate(-1247.8 -683.647)" fill="#f7a491"/>
    </g>
    <g id="Group_47" data-name="Group 47" transform="translate(1333.99 3084.707)">
      <path id="Path_180" data-name="Path 180" d="M341.145,1141.818s-3.917,48.321-3.917,52.518,16.673,5.384,16.673,5.384l5.1-49.586Z" transform="translate(-319.307 -1072.714)" fill="#466eb6"/>
      <path id="Path_181" data-name="Path 181" d="M361.781,1103.368s-10.818-5.793-19.736-.484-11.347,36.495-11.347,36.495l28.569,3.424Z" transform="translate(-315.074 -1046.026)" fill="#86b1f2"/>
      <path id="Path_182" data-name="Path 182" d="M562.6,1560.517s-5.467,22.3-9.541,25.8-17.361,10.2-13.884,10.917,29.207,1.319,28.5-2.973-1.446-7.028-1.446-7.028l6.806-15.925Z" transform="translate(-449.831 -1344.104)" fill="#f47458"/>
      <path id="Path_183" data-name="Path 183" d="M530.129,1651.383c6.275.624,24.6,1.283,29.936.6,0,0,1-.2.3-4.489-.172-1.049-.347-2.005-.512-2.852-4.841,1.272-15.386-1.436-19.563-1.99-4.538,2.173-9.652,5.417-11.3,5.688C526.594,1648.735,526.6,1651.031,530.129,1651.383Z" transform="translate(-442.516 -1397.343)" fill="#13375b"/>
      <path id="Path_184" data-name="Path 184" d="M775.6,1609.066s.573,5.64.573,8.125-2.315,9.5-1.243,10.568,31.72.94,31.72-.069-5.416-4.068-12.776-6.171-9.863-10.255-7.951-14.938Z" transform="translate(-602.83 -1373.961)" fill="#f47458"/>
      <path id="Path_185" data-name="Path 185" d="M806.454,1655.543c0-.94-5.026-3.829-11.535-5.817-6.936,2.343-16.569.409-20.18-.281-1.105,2.891-1.458,5.631-.89,6.2C774.922,1656.717,806.454,1656.552,806.454,1655.543Z" transform="translate(-602.139 -1401.745)" fill="#13375b"/>
      <path id="Path_186" data-name="Path 186" d="M622.765,1345.752l-5.5,4.875s-6.188,16.753-6.548,17.859c-.5,1.539-20.545,66.128-20.545,66.128l13.964,5.025s13.845-26.973,16.14-36.341,25.236-48.56,25.236-48.56Z" transform="translate(-483.261 -1204.899)" fill="#86b1f2"/>
      <path id="Path_187" data-name="Path 187" d="M751.815,1372.247l6.691,85.606h15.486s5.544-64.067,3.632-86.562Z" transform="translate(-588.031 -1221.453)" fill="#86b1f2"/>
      <path id="Path_188" data-name="Path 188" d="M495.2,1204.469s4.706,23,8.836,27.136c2.351,2.351,8.758,11.865,13.687,11.865,3.923,0,6.26.287,6.919.287,1.529,0-.191,9.368-1.625,10.8,0,0-.478,1.434-3.346,1.434s-18.067-10.419-22.655-15.008-13.1-29.633-13.1-29.633Z" transform="translate(-414.388 -1113.323)" fill="#f7a491"/>
      <path id="Path_189" data-name="Path 189" d="M628.839,1122.415a214.66,214.66,0,0,0-13.765,18.545c-7.839,11.662-27.871,44.041-30.015,46.184a19.812,19.812,0,0,1-2.144,1.563s-2.813-.605-4.326-.048c-1.479.545-3.471,3.409-2.77,4.111s3.4-1.641,4.231-1.616.9.023.9.468-3.346,2.294-4.3,2.549-3.475,4.126-3,5.417.446,1.72,1.657,1.72,1.4.956,2.422.956,1.275-1.275,2.422-.765,1.466.382,5.034-1.784,10.228-10.228,13.574-13.574,33.9-36.643,33.9-36.643Z" transform="translate(-472.511 -1060.138)" fill="#f47458"/>
      <path id="Path_190" data-name="Path 190" d="M721.871,974.746a10.291,10.291,0,0,0-12.013,4.748c-4.716,7.392-2.167,6.691-4.461,10.388s-8.284,2.931-8.284,8.667,2.677,6.627,2.677,6.627a9.765,9.765,0,0,0,.255,9.05c2.676,4.588,9.351,8.539,14.935,7.9,0,0,8.389,4.6,16.8,2.427s5.481-2.172,8.922-2.172,12.745-4.716,11.216-11.6c0,0,5.67-6.734.169-12.235s-6.541-11.089-9.727-18.481S725.7,972.961,721.871,974.746Z" transform="translate(-552.574 -963.737)" fill="#184655"/>
      <path id="Path_191" data-name="Path 191" d="M472.51,1115.013c1.083.374,5.514,3.531,8.095,8.5s9.4,25.744,9.4,25.744l-11.219,4.11Z" transform="translate(-406.993 -1055.34)" fill="#50bfa5"/>
      <path id="Path_192" data-name="Path 192" d="M296.126,1601.141s-1.848,6.564-3.314,8.03-6.325,7.153-5.13,9.973,30.8,6.859,31.927,5.735-5.114-5.879-8.651-8.795-6.07-6.5-4.588-10.85,1.482-3.919,1.482-4.349S296.126,1601.141,296.126,1601.141Z" transform="translate(-287.071 -1370.177)" fill="#f7a491"/>
      <path id="Path_193" data-name="Path 193" d="M318.828,1639.715c1.34-1.005-2.82-5.5-8.849-8.959a38.348,38.348,0,0,1-8.74-.887c-4.463-1.115-7.884-4.982-8.9-6.237-.092.129-7.27,7.042-5.869,10.347C287.666,1636.8,316.152,1641.722,318.828,1639.715Z" transform="translate(-286.29 -1385.013)" fill="#355389"/>
      <path id="Path_194" data-name="Path 194" d="M444.223,1605.567s.547,6.742-.564,8.492-5,8.687-2.831,10.853c1.953,1.953,29.076.7,29.927-.643s-3.791-5.345-7.878-7.419-7.342-5.02-6.844-9.588.591-4.148.5-4.567S444.223,1605.567,444.223,1605.567Z" transform="translate(-386.039 -1371.417)" fill="#f7a491"/>
      <path id="Path_195" data-name="Path 195" d="M473.225,1645.558c1.414-.9-4.837-6.552-11.476-8.617a38.3,38.3,0,0,1-8.723,1.041c-4.6-.115-8.781-3.141-10.045-4.145-.062.146-6.24,9.095-3.471,11.378C441.672,1647,471.076,1646.921,473.225,1645.558Z" transform="translate(-385.14 -1391.628)" fill="#355389"/>
      <path id="Path_196" data-name="Path 196" d="M357.031,1336.91l-17.512,50.74-20.087,46.974-16.824-4.227s6.072-32.562,11.775-42.79c4.316-7.74,7.329-52.154,7.329-52.154Z" transform="translate(-296.867 -1198.224)" fill="#f47458"/>
      <path id="Path_197" data-name="Path 197" d="M430.063,1326.614l6.067,89.175h14.339s6.263-93.429,3.968-102.318-26.182-6.882-26.182-6.882Z" transform="translate(-378.308 -1179.388)" fill="#b75742"/>
      <path id="Path_198" data-name="Path 198" d="M392.2,1105.44s-18.479-5.537-21.325-5.18c-3.115.392-10.686,4.4-10.686,4.4s.465,32.08-.873,41.151-10.706,38.13-10.706,38.13,13.192,7.647,35.369,5.162,20.648-7.838,20.648-7.838-2.1-32.119-4.206-46.266S392.2,1105.44,392.2,1105.44Z" transform="translate(-326.687 -1045.767)" fill="#96d9c9"/>
      <path id="Path_199" data-name="Path 199" d="M723.313,1122.938a119.544,119.544,0,0,0-21.031-3.2,78.6,78.6,0,0,0-13.573.908s-7.073,15.868-9.177,28.869-13.574,54.677-13.574,54.677,23.324,17.972,57.354,6.118Z" transform="translate(-532.381 -1058.367)" fill="#f7a491"/>
      <path id="Path_200" data-name="Path 200" d="M749.687,1080.56s.306,10.151-.647,11.1-2.284,2.534-.882,4.956,7.488.876,10.324-.51a13.4,13.4,0,0,0,4.478-3.806l-1.42-16.078Z" transform="translate(-585.266 -1030.199)" fill="#f47458"/>
      <path id="Path_201" data-name="Path 201" d="M757.673,1084.766a14.229,14.229,0,0,0,8.005-6.288l-.2-2.251-11.853,4.334s.075,2.477.036,5.1A13.622,13.622,0,0,0,757.673,1084.766Z" transform="translate(-589.205 -1030.199)" fill="#b75742"/>
      <path id="Path_202" data-name="Path 202" d="M294.455,960.072a5.29,5.29,0,0,0,3.734,6.1c4.708,1.587,7.631-14.979,10.309-18.252s10.8-4.166,15.018,2.37c2.321,3.594,3.046,5.158,3.229,5.838.15.557-.064.521-.064.521l-1.273,2.381s-4.085-2.48-5.627,2.048,3,11.938-.893,18.088-11.04,1.8-11.04,1.8c-5.926,3.983-12.745-2.1-14.936-7.85S294.455,960.072,294.455,960.072Z" transform="translate(-290.136 -945.405)" fill="#f7cc7f"/>
      <path id="Path_203" data-name="Path 203" d="M418.5,1052.262l-.643,6.658-5.955,10.24s11.741,14.212,15.366,10.817c.81-.758,2.853-15.8,2.853-15.8Z" transform="translate(-367.706 -1014.667)" fill="#f7a491"/>
      <path id="Path_204" data-name="Path 204" d="M426.532,1058.92l-1.245,2.273a43.369,43.369,0,0,0,12.8,7.943c.414-2.761.713-4.961.713-4.961l-11.621-11.912Z" transform="translate(-376.384 -1014.667)" fill="#f48c7f"/>
      <path id="Path_205" data-name="Path 205" d="M417.756,990.008a41.78,41.78,0,0,1,4.245,4.4c6.789,9.459,1.29,28.112-2.254,29.663-5.366,2.349-12.351-.81-20.222-6.146s-10.358-13.984-3.151-21.5S417.756,990.008,417.756,990.008Z" transform="translate(-354.874 -974.28)" fill="#f7a491"/>
      <path id="Path_206" data-name="Path 206" d="M387.26,977.457,389.4,975.4c8.407,0,15.111-5.068,24.547.028,6.228,3.364,3.669,8.1,3.669,8.1-23.063,0-14.743,18.176-17.569,25.409S379.591,1000.528,387.26,977.457Z" transform="translate(-350.494 -963.395)" fill="#f7cc7f"/>
      <path id="Path_207" data-name="Path 207" d="M426.133,1034.455s-.326-5.965-3.983-4.783-.808,10.17,2.229,9.855S426.133,1034.455,426.133,1034.455Z" transform="translate(-373.234 -999.924)" fill="#f7a491"/>
      <path id="Path_208" data-name="Path 208" d="M792.781,1034.468s.288-5.967,3.953-4.808.872,10.165-2.167,9.869S792.781,1034.468,792.781,1034.468Z" transform="translate(-614.418 -999.919)" fill="#f47458"/>
      <path id="Path_209" data-name="Path 209" d="M383.317,972.6s3.474,2.154,4.875,1.975-2.145,4.365-4.025,4.836-1.218-1.339-1.615-1.959-1.86-.137-2.2-.6C379.586,975.808,381.675,972.794,383.317,972.6Z" transform="translate(-347.154 -963.029)" fill="#50bfa5"/>
      <path id="Path_210" data-name="Path 210" d="M573.275,1334.094s3.215-4.971,4.266-5.21-.239,3.393-.239,4.063,1.912-5.114,2.963-5.114,1.195.765.765,2.246-1.434,3.394-.956,3.394,1.84-6.428,2.629-5.64.486,6.046-1,7.536S575.827,1335.927,573.275,1334.094Z" transform="translate(-472.306 -1193.24)" fill="#f7a491"/>
      <path id="Path_211" data-name="Path 211" d="M714.156,1203.616a2.865,2.865,0,0,0,3.614-1.452c.921-1.74.34-3.529-.964-4.14-1.362-.639-2.929-.026-3.761,1.629A2.872,2.872,0,0,0,714.156,1203.616Zm-8.954-10.96c.538-.568,2.1-2.8,4.767-1.915,2.307.766,3.216,3.143,3.869,4.216a11.709,11.709,0,0,1-.113-5.06c1.359-5.626,8.245-5.119,8.122.1-.049,2.048-.786,3.3-1.823,5.495a12.477,12.477,0,0,1,3.433-2.9c5.082-2.617,7.812,3.763,4.217,7.15-1.859,1.751-4.223,1.8-5.667,1.966a9.84,9.84,0,0,1,3.228,1.234c6.35,4.027-2.485,14.893-7.26,4.43-.006-.013-.031-.013-.047-.019a11.716,11.716,0,0,1,.029,5.391c-1.653,5.677-9.205,4.679-7.9-1.748a15.993,15.993,0,0,1,1.826-4.3,11.909,11.909,0,0,1-4.194,3.342c-5,1.955-7.386-5.107-2.778-8.084,2.062-1.333,4.109-1.139,4.833-1.332a7.58,7.58,0,0,1-4.486-2.324,4.6,4.6,0,0,1-.782-4.111Z" transform="translate(-556.033 -1101.272)" fill="#f7cc7f"/>
      <path id="Path_212" data-name="Path 212" d="M737.592,987.991s-5.735-.128-8.667,4.333-6.118,17.206-1.275,26,11.025,6.628,13.574,5.735,7.584-2.868,10.133-11.089S752.058,986.27,737.592,987.991Z" transform="translate(-570.749 -972.935)" fill="#f47458"/>
      <path id="Path_213" data-name="Path 213" d="M373.9,1103.87s4.156-.628,7.722,12.864c4.041,15.29-.31,31.126-7,35.137s-9.44,3.239-9.44,3.239l1.049,9.429s19.752-4.421,22.442-21.3c4.409-27.672-8.6-41.924-8.6-41.924a24.83,24.83,0,0,0-3.206.7A26.528,26.528,0,0,0,373.9,1103.87Z" transform="translate(-337.428 -1046.458)" fill="#466eb6"/>
      <path id="Path_214" data-name="Path 214" d="M360.932,1199.4v19.755c0,3.441,3.951,26.74,8.794,34.719s11.408,16.879,12.767,17.389,4.312,2.38,5.841.85,2.74-.828,4.652-1.657-.255-3.568-2.931-6.245-3.25-3.314-2.8-3.76,2.613,2.04,3.76,1.657-.7-4.4-3.7-5.8-7.774-4.142-8.22-5.608-.446-1.083-.446-1.466-3.377-23.515-3.377-28.04-1.338-19.246-1.338-19.246Z" transform="translate(-334.671 -1110.036)" fill="#f7a491"/>
      <path id="Path_215" data-name="Path 215" d="M361.819,1110.484a10.448,10.448,0,0,0-8.111,7.546c-1.657,5.608-6.022,21.54-5.258,29.314,0,0,18.609,2.422,18.609,1.657s4.071-20.711,2.039-29.442C367.327,1111.943,364.841,1110.108,361.819,1110.484Z" transform="translate(-326.523 -1052.375)" fill="#50bfa5"/>
      <path id="Path_216" data-name="Path 216" d="M464.286,1112.6l12.936,46.491h0c-.57-6.072-1.2-11.872-1.822-16.081-2.1-14.147-8.22-29.561-8.22-29.561S466.041,1113.108,464.286,1112.6Z" transform="translate(-401.662 -1053.777)" fill="#466eb6"/>
      <g id="Group_46" data-name="Group 46" transform="translate(138.033 101.475)">
        <path id="Path_217" data-name="Path 217" d="M678.621,1288.421h35.8v-49.145l-35.8,1.916Z" transform="translate(-678.621 -1237.36)" fill="#3c8f7c"/>
        <g id="Group_45" data-name="Group 45">
          <path id="Path_218" data-name="Path 218" d="M678.621,1233.829h34.2a1.777,1.777,0,0,1,1.591,1.917h0a1.777,1.777,0,0,1-1.591,1.916h-34.2l.029-.013C681.014,1236.58,681,1234.891,678.621,1233.829Z" transform="translate(-678.621 -1233.829)" fill="#3c8f7c"/>
          <path id="Path_219" data-name="Path 219" d="M681.4,1235.441h32.05a1.251,1.251,0,0,1,1.12,1.349h0a1.251,1.251,0,0,1-1.12,1.349H681.4A1.525,1.525,0,0,0,681.4,1235.441Z" transform="translate(-680.423 -1234.874)" fill="#fae0b2"/>
        </g>
      </g>
      <path id="Path_220" data-name="Path 220" d="M725.212,1128.936s-2.681,2.686-5.548,12.871-4.33,34.032-6.814,36.518-18.736,15.422-21.668,14.976-9.5-8.093-11.534-8.093-1.784,1.848-.765,2.867,2.262,2.2,1.657,2.8l-.605.605s-9.081-2.39-10.611-1.5,1.466,3,1.466,4.524-.374,1.5-.191,3.186a6.359,6.359,0,0,0,1.4,3.823c.8.8,10.833,3.7,20.647,2.358a47.527,47.527,0,0,0,30.653-17.015c8.858-10.96,7.084-45.411,6.882-48.847C729.673,1129.318,725.212,1128.936,725.212,1128.936Z" transform="translate(-534.28 -1064.365)" fill="#f47458"/>
    </g>
    <path id="Path_221" data-name="Path 221" d="M2221.167,540.127l7.45-1.482,1.814-7.522,8.47-1.07-.543-8.615,9.524-1.633.479-7.991,8.9-3.068,1.173,3.369-6.656,2.294-.5,8.432-9.156,1.57.552,8.759-9.347,1.181-1.771,7.345-6.905,1.374-.152,5.07-3.566-.118Z" transform="translate(-785.281 2490.333)" fill="#50bfa5"/>
    <path id="Path_222" data-name="Path 222" d="M2100.727,730.841l4.44-8.126-4.177-8.264a1.272,1.272,0,0,1,1.371-1.825l9.1,1.711,6.569-6.527a1.273,1.273,0,0,1,2.159.74l1.185,9.184,8.238,4.23a1.273,1.273,0,0,1-.037,2.282l-8.369,3.965-1.478,9.141a1.272,1.272,0,0,1-2.181.671l-6.357-6.734-9.15,1.419A1.273,1.273,0,0,1,2100.727,730.841Z" transform="translate(-262.266 2248.545)" fill="#f47458"/>
    <path id="Path_223" data-name="Path 223" d="M401.262,661.831l5.457-7.482-3.07-8.736a1.273,1.273,0,0,1,1.6-1.632l8.8,2.878,7.36-5.619a1.273,1.273,0,0,1,2.045,1.014l-.017,9.26,7.619,5.263a1.273,1.273,0,0,1-.332,2.258l-8.812,2.845-2.652,8.872a1.272,1.272,0,0,1-2.25.382l-5.429-7.5-9.258.22A1.273,1.273,0,0,1,401.262,661.831Z" transform="translate(-284.662 2349.625)" fill="#f7cc7f"/>
    <g id="Group_56" data-name="Group 56" transform="translate(218.377 2978.529)">
      <path id="Path_224" data-name="Path 224" d="M894.518,516.094a9.323,9.323,0,1,1,9.946,8.655A9.323,9.323,0,0,1,894.518,516.094Z" transform="translate(-878.9 -490.497)" fill="#f7cc7f"/>
      <g id="Group_48" data-name="Group 48" transform="translate(25.492 42.352)">
        <path id="Path_225" data-name="Path 225" d="M928.559,591.652a62.3,62.3,0,0,0-1.816-8.206,2.129,2.129,0,0,0-4.114.85,66.669,66.669,0,0,0,1.756,8.825,2.226,2.226,0,0,0,2.822,1.353,2.273,2.273,0,0,0,1.353-2.822Z" transform="translate(-922.622 -582.081)" fill="#f7cc7f"/>
      </g>
      <g id="Group_49" data-name="Group 49" transform="translate(35.325 33.635)">
        <path id="Path_226" data-name="Path 226" d="M962.652,564.044a92.356,92.356,0,0,1-8.634-6.233,2.132,2.132,0,0,0-2.8,3.214,40.56,40.56,0,0,0,9.419,7.083,2.289,2.289,0,0,0,3.038-1.026,2.312,2.312,0,0,0-1.026-3.038Z" transform="translate(-950.572 -557.305)" fill="#f7cc7f"/>
      </g>
      <g id="Group_50" data-name="Group 50" transform="translate(40.901 22.077)">
        <path id="Path_227" data-name="Path 227" d="M967.072,526.062a1.6,1.6,0,0,0-.407,2.151c1.045,1.9,3.7,1.8,5.581,1.738a20.173,20.173,0,0,0,5.79-1.1c2.747-.938,1.259-5.2-1.5-4.261C971.144,526.43,969.1,524.431,967.072,526.062Z" transform="translate(-966.419 -524.454)" fill="#f7cc7f"/>
      </g>
      <g id="Group_51" data-name="Group 51" transform="translate(33.964 4.796)">
        <path id="Path_228" data-name="Path 228" d="M951.323,476.1c-2.713,3.97-4.93,5.31-4.585,7.5a1.878,1.878,0,0,0,2.445,1.608c1.457-.33,2.251-1.876,3.125-2.961.838-1.04,1.66-2.082,2.408-3.19a2.321,2.321,0,0,0-.221-3.172,2.264,2.264,0,0,0-3.172.22Z" transform="translate(-946.703 -475.336)" fill="#f7cc7f"/>
      </g>
      <g id="Group_52" data-name="Group 52" transform="translate(22.614)">
        <path id="Path_229" data-name="Path 229" d="M919.842,466.574c-.868-2.406-1.058-3.281-2.183-4.4a1.953,1.953,0,0,0-3.18,1.08c-.159,1.669.19,2.29,1.1,4.818a2.258,2.258,0,1,0,4.26-1.5Z" transform="translate(-914.443 -461.705)" fill="#f7cc7f"/>
      </g>
      <g id="Group_53" data-name="Group 53" transform="translate(8.611 7.026)">
        <path id="Path_230" data-name="Path 230" d="M882.628,485.34c-3.912-2.972-4.707-3.809-6.244-3.647a1.861,1.861,0,0,0-1.716,1.972c.366,1.879,1.458,2.389,5.055,5.013a2.272,2.272,0,0,0,3.121-.217,2.232,2.232,0,0,0-.216-3.121Z" transform="translate(-874.643 -481.674)" fill="#f7cc7f"/>
      </g>
      <g id="Group_54" data-name="Group 54" transform="translate(0 22.018)">
        <path id="Path_231" data-name="Path 231" d="M851.051,526.582c-1.541.818-.922,3.483.747,3.7,1.6.209,2.218-.048,9.983-1.466a2.325,2.325,0,0,0,2.1-2.409,2.272,2.272,0,0,0-2.408-2.1C853.4,525.768,852.6,525.761,851.051,526.582Z" transform="translate(-850.167 -524.287)" fill="#f7cc7f"/>
      </g>
      <g id="Group_55" data-name="Group 55" transform="translate(6.257 36.247)">
        <path id="Path_232" data-name="Path 232" d="M874.743,565.5c-4.256,4.119-4.879,3.392-6.56,5.91a1.91,1.91,0,0,0,1.837,2.742c1.718-.315,2.179-.6,4.418-2.378,1.3-1.031,2.544-2.136,3.739-3.286a2.294,2.294,0,0,0-.223-3.211,2.324,2.324,0,0,0-3.211.223Z" transform="translate(-867.95 -564.731)" fill="#f7cc7f"/>
      </g>
    </g>
    <path id="Path_233" data-name="Path 233" d="M681.564,488.034l7.4-4.905-2.9-5.9,7.135-5.094L691.269,466l4.866-4.512-1.91-1.851-6.508,6.034,1.832,5.812-7.423,5.3,2.852,5.8-6.708,4.445Z" transform="translate(-93.371 2454.162)" fill="#86b1f2"/>
    <path id="Path_234" data-name="Path 234" d="M2313,668.232l-8.653-2-2.288,6.163-8.606-1.675-3.122,5.621-6.622-.429-.029,2.659,8.856.573,2.958-5.328,8.953,1.743,2.251-6.061,7.841,1.811Z" transform="translate(-1133.953 2320.254)" fill="#f7cc7f"/>
    <g id="Group_65" data-name="Group 65" transform="translate(396.289 2969.77)">
      <path id="Path_235" data-name="Path 235" d="M630.2,671.8a9.2,9.2,0,0,1,7.456-2.583,7.126,7.126,0,0,1,6.439,7.962c-.438,4.529-4.926,9.5-15.685,13.166-9.86-5.653-13.314-11.395-12.877-15.924a7.126,7.126,0,0,1,7.843-6.583A9.2,9.2,0,0,1,630.2,671.8Z" transform="translate(-593.975 -650.53)" fill="#f48c7f"/>
      <g id="Group_57" data-name="Group 57" transform="translate(0 17.016)">
        <path id="Path_236" data-name="Path 236" d="M555.427,669.746a94.847,94.847,0,0,0,10.621,2.2c1.08.16,2.907.756,3.792-.06a1.15,1.15,0,0,0,.246-1.555c-.663-1.015-2.343-.9-3.431-1.065-3.318-.493-7.049-1.208-10.779-2.149a1.348,1.348,0,0,0-1.541,1.091,1.364,1.364,0,0,0,1.091,1.541Z" transform="translate(-554.316 -667.083)" fill="#f48c7f"/>
      </g>
      <g id="Group_58" data-name="Group 58" transform="translate(54.16 33.795)">
        <path id="Path_237" data-name="Path 237" d="M709.328,717.421c1.584.262,3.171.5,4.758.733,1.518.227,3.273.762,4.789.459a1.157,1.157,0,0,0,.37-2.186c-1.367-.734-3.176-.736-4.7-.959-1.589-.233-3.176-.471-4.768-.679a1.336,1.336,0,0,0-.45,2.632Z" transform="translate(-708.255 -714.775)" fill="#f48c7f"/>
      </g>
      <g id="Group_59" data-name="Group 59" transform="translate(10.259 35.878)">
        <path id="Path_238" data-name="Path 238" d="M585.839,727.477c2.5-3.041,5.077-3.7,7.123-4.706a1.08,1.08,0,0,0-.475-2.076c-3.4.021-6.677,2.573-8.712,5.105a1.33,1.33,0,0,0,2.063,1.676Z" transform="translate(-583.475 -720.695)" fill="#f48c7f"/>
      </g>
      <g id="Group_60" data-name="Group 60" transform="translate(26.996 45.061)">
        <path id="Path_239" data-name="Path 239" d="M633.7,755.542a11.8,11.8,0,0,1,1.513-4.65c.512-.88,2.8-3.2,1.008-3.975-1.685-.727-3.068,2.015-3.671,3.17a13.942,13.942,0,0,0-1.493,5c-.176,1.708,2.449,2.172,2.643.452Z" transform="translate(-631.047 -746.796)" fill="#f48c7f"/>
      </g>
      <g id="Group_61" data-name="Group 61" transform="translate(44.124 43.453)">
        <path id="Path_240" data-name="Path 240" d="M680.225,744.636l2.354,2.323c.783.773,1.485,1.831,2.682,1.771a1.181,1.181,0,0,0,1.044-1.252c.027-1.092-1.283-1.94-2-2.641l-2.366-2.308a1.369,1.369,0,0,0-1.909.2,1.389,1.389,0,0,0,.2,1.909Z" transform="translate(-679.73 -742.224)" fill="#f48c7f"/>
      </g>
      <g id="Group_62" data-name="Group 62" transform="translate(22.007 0)">
        <path id="Path_241" data-name="Path 241" d="M621.659,628.6c-2.135-8.619-2.063-8.649-2.641-9.42a1.182,1.182,0,0,0-2.1.49c-.156,1-.113.837,2.167,9.9a1.381,1.381,0,0,0,1.769.8,1.406,1.406,0,0,0,.8-1.769Z" transform="translate(-616.867 -618.719)" fill="#f48c7f"/>
      </g>
      <g id="Group_63" data-name="Group 63" transform="translate(38.738 3.43)">
        <path id="Path_242" data-name="Path 242" d="M666.97,637.033a20.391,20.391,0,0,0,1.77-3.989c.416-1.295,1.228-3.224.135-4.335a1.009,1.009,0,0,0-1.028-.167c-1.243.593-1.284,2.435-1.673,3.628a24.049,24.049,0,0,1-1.625,3.766,1.343,1.343,0,0,0,.661,1.76,1.36,1.36,0,0,0,1.76-.661Z" transform="translate(-664.422 -628.468)" fill="#f48c7f"/>
      </g>
      <g id="Group_64" data-name="Group 64" transform="translate(53.418 14.694)">
        <path id="Path_243" data-name="Path 243" d="M714.24,662.226a1.181,1.181,0,0,0-.576-1.533c-1.027-.6-2.624.242-3.625.645a23.314,23.314,0,0,0-3.35,1.7,1.353,1.353,0,0,0-.3,1.873,1.374,1.374,0,0,0,1.872.3C712.413,662.9,713.424,663.661,714.24,662.226Z" transform="translate(-706.146 -660.485)" fill="#f48c7f"/>
      </g>
    </g>
    <path id="Path_244" data-name="Path 244" d="M1006.92,662.333l-5.512,12.58-13.988-.255.067-3.662,11.547.21,5.695-13,15.622,2.847,2.72-9.106,3.422,1.341-3.572,11.957Z" transform="translate(-293.753 2329.511)" fill="#f7cc7f"/>
    <path id="Path_245" data-name="Path 245" d="M1259.889,390.025c-.963,7.59,6.942,13.614,13.971,13.139a17.3,17.3,0,0,0,15.5-14.535c1.23-8.266-3.736-14.877-11.42-15.482a9.587,9.587,0,0,0-10.1,12.786c1.549,4.817,5.945,6.612,8.16,5.283a2.2,2.2,0,0,0-.468-4.109,2.159,2.159,0,0,0-2.146.925c-1.83-.727-3.571-4.057-2.389-7.654,1.509-4.593,7.317-4.856,10.923-2.714,4.591,2.727,5.313,8.6,3.629,13.278A14.128,14.128,0,0,1,1273.7,400.1a11.009,11.009,0,0,1-11.663-10.067A1.074,1.074,0,0,0,1259.889,390.025Z" transform="translate(-470.308 2510.248)" fill="#86b1f2"/>
    <path id="Path_246" data-name="Path 246" d="M1951.038,621.9c-.741-7.615-9.784-11.738-16.534-9.718a17.3,17.3,0,0,0-11.9,17.607c.631,8.333,6.939,13.68,14.566,12.569a9.587,9.587,0,0,0,7.022-14.706c-2.577-4.354-7.263-5.131-9.128-3.345a2.2,2.2,0,0,0,1.366,3.9,2.16,2.16,0,0,0,1.888-1.378c1.945.3,4.38,3.166,4.025,6.934-.454,4.814-6.059,6.356-10.052,5.066-5.081-1.642-7.085-7.209-6.479-12.145a14.128,14.128,0,0,1,9.525-11.552,11.009,11.009,0,0,1,13.6,7.234A1.074,1.074,0,0,0,1951.038,621.9Z" transform="translate(-899.886 2355.617)" fill="#86b1f2"/>
    <g id="Group_68" data-name="Group 68" transform="translate(1666.926 3069.243)">
      <path id="Path_247" data-name="Path 247" d="M2134.668,1601.034s.828,7.137.828,8.349v1.21l-.593,1.232-.235.489,4.269,5.99s17.143.255,17.525.255-2.294-4.143-2.294-4.143-5.672-4.27-6.692-7.265.866-9.241.866-9.241Z" transform="translate(-2013.294 -1352.878)" fill="#f7a491"/>
      <path id="Path_248" data-name="Path 248" d="M1849.529,1461.7s-6.106,3.789-7.054,4.542l-.948.752-.6,1.231-.237.488-7.346.38s-10.858-13.268-11.1-13.568,3.123.45,3.123.45,6.854.927,9.833-.137,9.009-7,9.009-7Z" transform="translate(-1810.787 -1256.254)" fill="#f7a491"/>
      <path id="Path_249" data-name="Path 249" d="M1936.342,1295.059l-65.766,56.016,10.134,14.339s67.582-41.964,71.119-42.442,6.4,1.147,7.073,3.728,2.372,80.021,2.372,80.021h17.558l9.156-97.5Z" transform="translate(-1842.117 -1156.577)" fill="#50bfa5"/>
      <g id="Group_66" data-name="Group 66" transform="translate(155.896 23.825)">
        <path id="Path_250" data-name="Path 250" d="M2265.87,1003.933c4.865-3.189,16.3-15.455,20.168-19.631.041-.491.411-3.328,3.524-6.933,2.2-2.547,3.864-8.357,5.306-6.71s-2.136,6.263-.5,6.293,9.771-9.111,11.079-7.618-6.951,9.619-5.486,9.646,8.17-8.2,10.018-6.093-8.787,8.951-7.8,10.083,7.582-3.353,9.07-1.655-9.295,5.7-8.433,5.715,7.083-.152,7.129,1.045c.053,1.354-15.738,3.462-17.673,5.806h0c-4.126,6.57-11.471,18.569-18.908,23.834-9.1,6.442-30.133,20.108-30.133,20.108l-10.446-13.5S2260.1,1007.715,2265.87,1003.933Z" transform="translate(-2232.791 -969.169)" fill="#f7a491"/>
        <path id="Path_251" data-name="Path 251" d="M2405.208,999.546a6.481,6.481,0,0,1,.635,2.537,6.319,6.319,0,0,1-2.054,5.107A10.788,10.788,0,0,0,2405.208,999.546Z" transform="translate(-2343.627 -988.859)" fill="#f48c7f"/>
      </g>
      <g id="Group_67" data-name="Group 67" transform="translate(54.153 0)">
        <path id="Path_252" data-name="Path 252" d="M1982.015,945.275c-3.862-4.351-11.687-19.18-14.333-24.222.089-.485.474-3.32-1.589-7.613-1.457-3.033-1.545-9.077-3.367-7.864s.424,6.6-1.165,6.2-7.049-11.349-8.7-10.25,4.195,11.1,2.772,10.745-5.74-10.054-8.075-8.5,6.14,10.938,4.887,11.771-6.441-5.219-8.321-3.969,7.481,7.932,6.645,7.722-6.8-2-7.155-.856c-.4,1.293,14.286,7.457,15.54,10.225h0c2.264,7.42,6.216,20.923,12.017,27.95,7.1,8.6,23.826,27.288,23.826,27.288l13.613-10.3S1986.594,950.435,1982.015,945.275Z" transform="translate(-1943.606 -901.452)" fill="#f7a491"/>
        <path id="Path_253" data-name="Path 253" d="M1989.482,938.773a6.475,6.475,0,0,0-1.276,2.284,6.319,6.319,0,0,0,.647,5.466A10.792,10.792,0,0,1,1989.482,938.773Z" transform="translate(-1972.287 -925.642)" fill="#f48c7f"/>
      </g>
      <path id="Path_254" data-name="Path 254" d="M2120.365,1105.25h0a9.951,9.951,0,0,1,8.943-4.393c10.442.71,31.618,2.384,33.626,4.393,2.677,2.676,10.706,20.137,3.059,44.609s-11.853,21.922-18.1,21.922-35.687-13.893-35.687-13.893Z" transform="translate(-1998.736 -1030.686)" fill="#355389"/>
      <path id="Path_255" data-name="Path 255" d="M2055.425,1054.335l-12.278,16.017,15.242,22.675s-1.434,16.846-3.633,22.1-14.912,26.86-14.912,26.86,30.876,18.927,61.083,16.155c0,0,8.508-43.781,10.9-47.986s25.427-25.045,25.427-25.045l-11.184-18.068-19.309,10.708s-35.294-5.7-36.994-7.4S2055.425,1054.335,2055.425,1054.335Z" transform="translate(-1951.832 -1000.547)" fill="#f7cc7f"/>
      <path id="Path_256" data-name="Path 256" d="M2140.1,957.756s-11.917-6.309-16,4.142c0,0-10.706-1.083-8.858,10.005,0,0-10.77,5.417-3.951,19.373,0,0-3,13.128,12.363,13.957,0,0,2.294,4.652,9.3,3.568s8.794-2.931,8.794-2.931,12.427,3.632,16.187-7.583c0,0,8.54-2.04,2.8-13,0,0,7.456-14.211-5.672-18.481C2155.08,966.805,2153.551,952.276,2140.1,957.756Z" transform="translate(-1996.681 -936.723)" fill="#f47458"/>
      <path id="Path_257" data-name="Path 257" d="M2210.217,1041.643c-.968,2.7-.273,5.423,1.553,6.078s4.092-1.006,5.06-3.708.273-5.424-1.554-6.078S2211.185,1038.942,2210.217,1041.643Z" transform="translate(-2061.98 -989.825)" fill="#f7a491"/>
      <path id="Path_258" data-name="Path 258" d="M2119.643,1020.619c-.136,2.867,1.325,5.266,3.264,5.358s3.619-2.158,3.755-5.026-1.326-5.266-3.264-5.357S2119.779,1017.751,2119.643,1020.619Z" transform="translate(-2003.549 -975.433)" fill="#f7a491"/>
      <path id="Path_259" data-name="Path 259" d="M2153.894,1076.111c0,.187-1.548,6.842-2.37,10.359a2.826,2.826,0,0,0,1.584,3.214c3.277,1.5,9.72,3.584,14.172-.451a1.866,1.866,0,0,0,.605-1.447l-.546-15.88Z" transform="translate(-2024.172 -1011.935)" fill="#f7a491"/>
      <path id="Path_260" data-name="Path 260" d="M2156.038,1079.837c3.467,1.748,7.828,1.783,12.72-1.085a19.455,19.455,0,0,0,1.751-1.156l-.2-5.691-13.446,4.206C2156.868,1076.2,2156.5,1077.806,2156.038,1079.837Z" transform="translate(-2027.146 -1011.935)" fill="#f48c7f"/>
      <path id="Path_261" data-name="Path 261" d="M2151.065,979.3a17.063,17.063,0,0,1,9.317,7.26c3.448,5.71,5.352,22.215-6.962,29.434s-21.274-3.961-21.041-14.537S2137.314,977.36,2151.065,979.3Z" transform="translate(-2011.808 -951.789)" fill="#f7a491"/>
      <path id="Path_262" data-name="Path 262" d="M2099.539,1101.073c-5.669,4.288-11.6,26.257-13.851,31.992l-1.81,10.534,23.07-40.75S2100.76,1100.15,2099.539,1101.073Z" transform="translate(-1980.374 -1030.716)" fill="#466eb6"/>
      <path id="Path_263" data-name="Path 263" d="M2207.791,1117.027s-.691,27.07,1.347,36.373,7.375,12.556,7.375,12.556l2.624-10.825s-2.624-23.907-3.594-36.812C2215.4,1116.36,2207.791,1117.027,2207.791,1117.027Z" transform="translate(-2060.617 -1041.111)" fill="#466eb6"/>
      <path id="Path_264" data-name="Path 264" d="M2124.318,1648.322c-2.617-.332,1.9-9.409,3.358-10.864l19.265,2.592s9.272,4.3,11.471,6.5c.522.522.59,1.435-1.673,1.772C2149.469,1649.4,2130.126,1649.057,2124.318,1648.322Z" transform="translate(-2006.067 -1378.511)" fill="#13375b"/>
      <path id="Path_265" data-name="Path 265" d="M1813.22,1487.434c2.261,1.359,6.375-7.482,6.61-9.526l-15.555-12.249s-12-3.441-14.423-1.02C1787.652,1466.837,1808.086,1484.35,1813.22,1487.434Z" transform="translate(-1789.686 -1265.935)" fill="#13375b"/>
    </g>
    <path id="Path_266" data-name="Path 266" d="M1177.258,513.171l-11.183,14.4,24.088,4.234Z" transform="translate(-409.553 2419.464)" fill="#96d9c9"/>
    <g id="Group_69" data-name="Group 69" transform="translate(1560.042 2918.999)">
      <path id="Path_267" data-name="Path 267" d="M1616.638,318.084l27.721,38.045,18.354-20.074Z" transform="translate(-1616.638 -318.084)" fill="#466eb6"/>
      <path id="Path_268" data-name="Path 268" d="M1665.2,325.54l-2.485,10.515-46.075-17.971Z" transform="translate(-1616.638 -318.084)" fill="#9bc1f9"/>
      <path id="Path_269" data-name="Path 269" d="M1662.713,340.07l-46.075-21.986,42.825,38.045Z" transform="translate(-1616.638 -318.084)" fill="#9bc1f9"/>
      <path id="Path_270" data-name="Path 270" d="M1766.6,458.746c-.34-.032-8.439-.866-18.7-7.256-10.3-6.415-14.159-17.611-14.159-19.408a1.243,1.243,0,0,1,2.485-.024c.111,1.2,3.4,11.355,12.989,17.322,9.729,6.058,17.547,6.884,17.625,6.892a1.243,1.243,0,0,1-.237,2.474Zm-30.376-26.678v0Z" transform="translate(-1692.54 -391.169)" fill="#f7cc7f"/>
      <path id="Path_271" data-name="Path 271" d="M1839.148,470a129.469,129.469,0,0,1-40.837-15.763c-10.489-6.242-18.946-15.758-29.646-21.042a1.243,1.243,0,1,1,1.1-2.228c11.074,5.469,19.466,14.975,29.816,21.134a127,127,0,0,0,40.055,15.462,77.614,77.614,0,0,0,18.235,1.13,1.243,1.243,0,0,1,.1,2.483A80.734,80.734,0,0,1,1839.148,470Z" transform="translate(-1714.729 -391.168)" fill="#f7cc7f"/>
    </g>
    <path id="Path_272" data-name="Path 272" d="M1004.927,1114.17c.619-.042,5.3,7.52,8.235,19.118s9.176,33.01,9.176,33.01,10.133,20.457,12.873,23.2,5.4-.093,8.157.764a21.029,21.029,0,0,1,3.482,2.549s4.739,10.26,4.038,10.962-8.03,2.676-13.128,1.02-28.8-29.442-28.8-29.442S989.632,1115.2,1004.927,1114.17Z" transform="translate(-909.283 2029.914)" fill="#f48c7f"/>
    <path id="Path_273" data-name="Path 273" d="M1167.879,1136.02l-2.294-2.379s-4.206,7.552-9.049,18.257-10.642,23.9-12.618,25.873-18.608,24.85-23.643,27.081-3.476,1.253-7.52.768c-3.036-.364-2.7,1.833-.728,2.853a12.835,12.835,0,0,1,2.349,1.318,55.994,55.994,0,0,1,5.972,5.543c.583.546-.635,1.546-1.32.861-.707-.707-3.1-4.409-4.107-4.409s-.335,2.533.1,3.345-.526.573-1.386-1.434-1.482-4.015-2.724-3.728c-1,.231-.389,3.007-.113,4.076-.288-1.018-1.082-3.55-1.846-3.55-.956,0-1.386.1-1.386,1.984a6.7,6.7,0,0,0,2.868,5.575c2.2,1.665,8.353.553,10.884-.453,1.729-.689,3.449-3.5,5.18-4.429,7.732-4.171,15.677-9.151,25.518-22.272,12.044-16.06,16.742-30.4,16.742-30.4Z" transform="translate(-979.626 2017.293)" fill="#f4c0b8"/>
    <path id="Path_274" data-name="Path 274" d="M1205.626,1510.124a30.864,30.864,0,0,1,0-11.853c1.275-6.5,8.157-39.639,8.157-46.521s3.313-16.952,3.313-16.952l-20.265-5.1-2.039,19.755s-1.083,46.075-2.932,47.923-9.663,4.578-12.108,4.578c-2.737,0-7.073.184-7.073,1.563a6.277,6.277,0,0,0,.382,2.272Z" transform="translate(-1021.833 1825.396)" fill="#f4c0b8"/>
    <path id="Path_275" data-name="Path 275" d="M1315.931,1422.853l2.508,17.053s5.964,49.979,4.588,51.354-7.625,5.4-10.493,5.721-6.9,2.255-6.9,3.784c0,3.091,32.246.582,32.246.582a8.73,8.73,0,0,0,0-5.68,35.745,35.745,0,0,1-1.02-8.922c0-.764.064-.127.064-1.338v-1.593s3.887-23.834-.255-38.874l-1.466-29.187Z" transform="translate(-1108.008 1834.435)" fill="#f4c0b8"/>
    <path id="Path_276" data-name="Path 276" d="M918.326,961.694s-7.456-.088-12.618,2.823c-5.144,2.9-6.526,9.824-6.622,15.237a30.717,30.717,0,0,0,6.526,19.507c4.364,5.491,12.045,7.959,12.045,7.959l21.614-13.778a28.144,28.144,0,0,0,.754-15.02C938.209,969.819,938.687,960.356,918.326,961.694Z" transform="translate(-844.495 2128.827)" fill="#184655"/>
    <path id="Path_277" data-name="Path 277" d="M1057.3,1583.232s7.137,10.26,7.647,11.662,4.015,10.707,4.015,10.707l27.4-13.318-20.966-6.374-4.206-9.177Z" transform="translate(-947.047 1730.093)" fill="#f48c7f"/>
    <path id="Path_278" data-name="Path 278" d="M955.14,1361.982l22.368,46.647,14.721,29.442s13.064-5.034,16.314-8.284L997.964,1392.7l-12.044-42.952-25.32-2.3Z" transform="translate(-880.831 1878.712)" fill="#355389"/>
    <path id="Path_279" data-name="Path 279" d="M893.567,1604.432s1.02,6.882,1.02,7.328-1.53,7.074-1.785,8.858a11,11,0,0,0,0,3.187l25.969-6.214s-3.855-2.518-7.3-4.429-3.951-11.025-3.951-11.025Z" transform="translate(-840.351 1713.626)" fill="#f48c7f"/>
    <path id="Path_280" data-name="Path 280" d="M884.86,1345.991s4.448,27.98,3.824,37.344c-.9,13.443-4.461,18.607-1.912,53.861h18.1s1.275-18.938,4.078-33.6,8.922-39.256,8.922-39.256l10.069-22.694Z" transform="translate(-835.277 1882.467)" fill="#86b1f2"/>
    <path id="Path_281" data-name="Path 281" d="M913.969,1043.688c.874,2.735,3.079,4.473,4.928,3.882s2.638-3.285,1.765-6.019-3.08-4.472-4.927-3.882S913.1,1040.954,913.969,1043.688Z" transform="translate(-853.914 2079.574)" fill="#f48c7f"/>
    <path id="Path_282" data-name="Path 282" d="M1001.927,1028.294c.243,2.861,2.008,5.046,3.94,4.882s3.3-2.616,3.06-5.477-2.007-5.045-3.94-4.881S1001.683,1025.434,1001.927,1028.294Z" transform="translate(-911.138 2089.131)" fill="#f48c7f"/>
    <g id="Group_70" data-name="Group 70" transform="translate(558.351 3077.982)">
      <path id="Path_283" data-name="Path 283" d="M1705.281,974.483c4.09-4.427,12.7-22.854,15.613-28.089-.062-.523-.3-3.574,1.995-8.042,1.618-3.157,2.03-9.609,3.785-8.209s-.779,7.03.83,6.7,7.648-11.72,9.239-10.451-4.785,11.62-3.346,11.32,6.272-10.411,8.521-8.618-6.719,11.332-5.512,12.295,6.711-5.206,8.521-3.762-7.9,8.044-7.049,7.868,6.894-1.745,7.19-.5c.335,1.4-14.666,7.146-16.067,10.031h0c-2.66,7.8-7.33,22-13.5,29.171-7.551,8.778-29.273,33.118-29.273,33.118l-9.024-17.115S1700.431,979.732,1705.281,974.483Z" transform="translate(-1677.203 -926.289)" fill="#966259"/>
      <path id="Path_284" data-name="Path 284" d="M1821.905,964.911a7.472,7.472,0,0,1,.212,8.316A12.3,12.3,0,0,0,1821.905,964.911Z" transform="translate(-1770.995 -951.323)" fill="#6b4744"/>
    </g>
    <path id="Path_285" data-name="Path 285" d="M884.058,1118.577s2.1,54.253,0,64.385-3.068,16.707-3.068,16.707,29.069,5.661,56.981-1.795a366.174,366.174,0,0,1-6.118-38.619c-1.912-19.692-3.441-45.756-3.441-45.756a136.732,136.732,0,0,0-18.736-.042C891.146,1115.157,884.058,1118.577,884.058,1118.577Z" transform="translate(-832.768 2030.583)" fill="#fae0b2"/>
    <path id="Path_286" data-name="Path 286" d="M937.33,1074.955l-.819,14.844s1.392,8.193,9.517,8.672,5.735-17.015,5.735-17.015l-.478-6.5Z" transform="translate(-868.756 2055.332)" fill="#f48c7f"/>
    <path id="Path_287" data-name="Path 287" d="M952.785,1086.139q.293,0,.583-.014a43.854,43.854,0,0,0-.322-4.67l-.478-6.5H938.612l-.123,2.228C940.24,1080.163,945.392,1086.139,952.785,1086.139Z" transform="translate(-870.038 2055.332)" fill="#f27a6a"/>
    <path id="Path_288" data-name="Path 288" d="M891.79,1637.8s.956-.956,4.3-.67,20.122,2.151,20.839,2.151,10.316,7.288,10.746,8.611-20.735.457-20.735.457H890.827A16.287,16.287,0,0,1,891.79,1637.8Z" transform="translate(-838.845 1690.978)" fill="#3c8f7c"/>
    <path id="Path_289" data-name="Path 289" d="M1081.574,1623.061a2.241,2.241,0,0,0-.98,1.552,39.63,39.63,0,0,0,2.154,7.486,3,3,0,0,0,4.236,1.507l29.067-16.025s2.118-1.835-11.591-2.7Z" transform="translate(-962.146 1705.368)" fill="#3c8f7c"/>
    <path id="Path_290" data-name="Path 290" d="M865.226,1128.6a14.375,14.375,0,0,0-6.55,7.414c-2.421,5.608-10.2,30.971-4.971,46.138,0,0,2.354,11.531,14.463,19.434s33.221,9.8,34.416,8.606,1.243-3.267,1.243-4.6,2.772-2,2.772-3.816-4.684-2.135-10.069-2.135c0,0-.956-.1.223-.987s2.676-2.008,2.422-3.7-1.354-1.61-2.39-.573-4.461,3.823-7.2,3.027-18.927-14.084-21.6-18.29C867.98,1179.125,869.05,1129.5,865.226,1128.6Z" transform="translate(-813.936 2020.56)" fill="#f48c7f"/>
    <path id="Path_291" data-name="Path 291" d="M1250.323,1122.336s8.723-4.841,17.984-5.927,22.546,2.39,22.546,2.39l7.661,110.613s-34.411,16.345-60.219,0c0,0,6.93-46.444,6.93-52.974v-6.53Z" transform="translate(-1064.364 2028.598)" fill="#50bfa5"/>
    <path id="Path_292" data-name="Path 292" d="M1168.523,1642.233a1.985,1.985,0,0,0-2.094,1.307,2.36,2.36,0,0,0,.551,2.648c1.37,1.37,25.284,5.287,33.632,5.1.886-.02,2.151-2.653.844-3.417C1199.414,1646.679,1174.831,1642.947,1168.523,1642.233Z" transform="translate(-1017.664 1687.645)" fill="#13375b"/>
    <path id="Path_293" data-name="Path 293" d="M1192.784,1632.021l1.975,4.026,4.4,1.211s-2.039-7.2-3.823-6.883A3.819,3.819,0,0,0,1192.784,1632.021Z" transform="translate(-1034.865 1695.33)" fill="#13375b"/>
    <path id="Path_294" data-name="Path 294" d="M1301.909,1658.116a1.939,1.939,0,0,0-1.853,1.326,1.785,1.785,0,0,0,.2,1.857c1.02,1.02,35.264.318,35.264.318s.828-2.547-.662-3.059C1333.872,1658.22,1307.865,1658.132,1301.909,1658.116Z" transform="translate(-1104.291 1677.342)" fill="#13375b"/>
    <path id="Path_295" data-name="Path 295" d="M1328.667,1642.141c-.308-.559-2.669.034-3.412,1.443l3.037,4.363,3.57-.012Z" transform="translate(-1120.729 1687.832)" fill="#13375b"/>
    <path id="Path_296" data-name="Path 296" d="M1506.925,1568.642s-1.381,11.981-3.622,17.206-9.633,8.524-16.134,9.807-4.335,2.3-3.382,3.258,29.128,1.6,34.1.7c0,0-1.911-9.809-1.911-11.338s7.775-25.619,7.775-25.619Z" transform="translate(-992.757 1739.22)" fill="#966259"/>
    <path id="Path_297" data-name="Path 297" d="M1515.574,1657.377s-.389-2-.817-4.33c-5.435.73-17.871-.542-24.1-1.27a38.971,38.971,0,0,1-6.132,1.313c-6.5,1.282-6.012,2.985-4.383,4.171C1481.231,1658.054,1510.6,1658.277,1515.574,1657.377Z" transform="translate(-990.446 1681.451)" fill="#f47458"/>
    <path id="Path_298" data-name="Path 298" d="M1683.066,1564.6s-.762,14.723.815,20.013c1.625,5.448,3.953,6.385,10.336,8.16,6.267,1.742,3.888,4.532,2.935,5.485s-22.882,1.015-27.854.115c0,0,1.911-9.809,1.911-11.338s-2.321-26.287-2.321-26.287Z" transform="translate(-1113.463 1740.452)" fill="#966259"/>
    <path id="Path_299" data-name="Path 299" d="M1670.053,1657.377s.39-2,.817-4.33c5.435.73,17.871-.542,24.1-1.27a51.739,51.739,0,0,1,5.8,1.647c6.224,2.272,5.668,2.886,4.716,3.838S1675.024,1658.277,1670.053,1657.377Z" transform="translate(-1114.218 1681.451)" fill="#f47458"/>
    <path id="Path_300" data-name="Path 300" d="M1378.98,1123.588s-7.456,8.794-3.633,23.515,13.064,38.173,24.472,51.227c1.847,2.113,6.118,6.574,8.03,7.848s10.005,2.167,10.005,2.167,3.569-10.961,2.549-11.981-9.591-1.115-11.917-3.441S1383.569,1123.588,1378.98,1123.588Z" transform="translate(-1152.491 2023.809)" fill="#f4c0b8"/>
    <path id="Path_301" data-name="Path 301" d="M1520.465,1123.044s-2.147,1.339-3.676,5.29-9.464,36.452-10.611,41.168c-.886,3.642-8.932,14.334-12.926,19.485-1.178,1.518-2.084,2.788-2.656,2.788-3.505,0-9.323,1.946-9.323,3.4s1.374,1.606,3.668,1.1.557,1.976-.272,2.8-4.357,5.553-3.107,6.8a10.156,10.156,0,0,0,5.656,2.118c.761,0,2.308-.084,5.131-2.389,2.377-1.939,5.871-5.9,8.433-8.19,9.218-8.221,16.8-25.491,18.2-29.442S1520.465,1123.044,1520.465,1123.044Z" transform="translate(-991.856 2024.162)" fill="#966259"/>
    <path id="Path_302" data-name="Path 302" d="M1484.894,1340.705s.956.1.956,1.959-1.625,4.732-2.724,5.831-11.167-1.575-11.167-1.575,3.662.093,4.913-1.459c.56-.695,1.617-3.944,2.669-3.944s-.1,4.4-.1,4.4,2.008-5.783,3.059-5.783,1.147,1.052.669,2.82S1484.247,1340.2,1484.894,1340.705Z" transform="translate(-1215.818 1883.451)" fill="#f4c0b8"/>
    <path id="Path_303" data-name="Path 303" d="M1531.714,1417.18a137.637,137.637,0,0,0,31.83,4.015c16.918,0,50.182-8.6,50.182-8.6s-9.176-22.176-12.33-39.19-5.448-46.263-5.448-46.263h-50.479l-3.155,20.248Z" transform="translate(-1024.55 1891.873)" fill="#466eb6"/>
    <path id="Path_304" data-name="Path 304" d="M1576.736,1118.439s-3.294,3.824-3.294,15.677-.573,29.634-1.529,35.751-3.824,21.317-3.824,21.317,8.412,6.978,30.207,5.066,22.942-4.844,22.942-4.844-3.059-49.261-3.059-54.422-4.679-20.1-4.679-20.1-12.591-1.3-18.327-.858S1576.736,1118.439,1576.736,1118.439Z" transform="translate(-1048.127 2028.767)" fill="#fae0b2"/>
    <path id="Path_305" data-name="Path 305" d="M1548.935,962.008s-9.172,2.6-8.412,12.015c.7,8.682,4.97,8.242,4.97,8.242s-3.122,12.307,6.309,15.876c8.893,3.364,12.236,0,12.236,0s3.858,10.22,17.049,6.275,12.01-11.946,12.01-11.946,5.62,2.21,12.12-8.114,2.792-17.76-5.811-22.348c0,0,2.864-13.144-10.289-15.247s-16.379,5.114-16.379,5.114-2.342-8.056-16.348-2.512A11.489,11.489,0,0,0,1548.935,962.008Z" transform="translate(-1030.23 2138.672)" fill="#13375b"/>
    <path id="Path_306" data-name="Path 306" d="M1667,1039.714c-.969,2.7-.274,5.423,1.553,6.078s4.092-1,5.06-3.708.273-5.423-1.554-6.078S1667.968,1037.012,1667,1039.714Z" transform="translate(-1111.955 2080.669)" fill="#966259"/>
    <path id="Path_307" data-name="Path 307" d="M1582.633,1043.917c.442,2.836,2.355,4.893,4.271,4.594s3.113-2.84,2.67-5.677-2.355-4.893-4.271-4.594S1582.19,1041.081,1582.633,1043.917Z" transform="translate(-1057.495 2079.147)" fill="#966259"/>
    <path id="Path_308" data-name="Path 308" d="M1627.5,1078.445l.509,11.152a5.368,5.368,0,0,0,4.78,4.907c4.525.573,8.667-2.926,8.667-6.437,0-.445-2.23-15.74-2.23-15.74Z" transform="translate(-1086.637 2057.035)" fill="#966259"/>
    <path id="Path_309" data-name="Path 309" d="M1639.227,1072.327l-11.725,6.118.181,3.966c2.122.014,5.266-.154,7.785-1.657a9.993,9.993,0,0,0,4.247-5.079C1639.43,1073.719,1639.227,1072.327,1639.227,1072.327Z" transform="translate(-1086.637 2057.035)" fill="#6b4744"/>
    <path id="Path_310" data-name="Path 310" d="M1120.255,1332.886s2.855,1.847,4.552,1.442.86-1.274.064-2.071a14.6,14.6,0,0,0-2.932-1.817Z" transform="translate(-987.853 1889.733)" fill="#f48c7f"/>
    <path id="Path_311" data-name="Path 311" d="M936.137,983.788c-4.629.684-8.015,3.961-10.475,7.964-4.876,7.934-.912,19.614.427,22.291s6.691,9.56,14.625,9.56,13.478-7.265,14.148-14.339c.9-9.471-1.64-21.273-10.653-24.566A16.954,16.954,0,0,0,936.137,983.788Z" transform="translate(-860.192 2114.523)" fill="#f48c7f"/>
    <path id="Path_312" data-name="Path 312" d="M1281.758,983.464a19.1,19.1,0,0,0-8.316,1.911c-4.4,2.1-8.986,11.559-8.986,19.97,0,5.12-2.266,7.233-4.04,8.1a1.6,1.6,0,0,0-.508,2.5c1.734,1.971,3.539,4.135,5.815,5.46,8.625,5.018,17.312,5.17,27.007,3.393a37.949,37.949,0,0,0,20.69-10.7,2.282,2.282,0,0,0-.567-3.584c-1.831-.984-3.99-3.1-4.808-7.653C1306.516,994.361,1303.362,979.353,1281.758,983.464Z" transform="translate(-1078.115 2115.087)" fill="#13375b"/>
    <path id="Path_313" data-name="Path 313" d="M1355.627,1042.675c-.623,2.8.408,5.415,2.3,5.835s3.934-1.509,4.557-4.311-.408-5.415-2.3-5.836S1356.25,1039.873,1355.627,1042.675Z" transform="translate(-1140.298 2079.086)" fill="#f4c0b8"/>
    <ellipse id="Ellipse_54" data-name="Ellipse 54" cx="3.513" cy="5.197" rx="3.513" ry="5.197" transform="translate(187.309 3112.827)" fill="#f4c0b8"/>
    <path id="Path_314" data-name="Path 314" d="M1308.4,1081.813l-.956,13.128a4.668,4.668,0,0,0,4.015,3.633c3.569.637,11.153-4.653,11.153-7.457l-1.784-15.167Z" transform="translate(-1109.182 2054.687)" fill="#f4c0b8"/>
    <path id="Path_315" data-name="Path 315" d="M1308.832,1088.217c5.636.281,10.172-2.259,13.526-6.887l-.632-5.38-12.427,5.863Z" transform="translate(-1110.084 2054.687)" fill="#f7a491"/>
    <path id="Path_316" data-name="Path 316" d="M1284.641,1018.3c.86,4.875,2.294,13.455,9.942,14.339s13.382-3.25,17.015-10.706,2.772-17.3.765-22.177c-1.6-3.874-8.48-3.688-11.862-3.631C1289.166,996.319,1282.736,1007.509,1284.641,1018.3Z" transform="translate(-1094.189 2106.438)" fill="#f4c0b8"/>
    <path id="Path_317" data-name="Path 317" d="M1317.041,991.724a17.19,17.19,0,0,0,5.1,11.487c5.218,5.218,15.708,7.942,15.708,7.942l1.244,2.944s1.657-9.372-2.294-15.618S1317.041,991.724,1317.041,991.724Z" transform="translate(-1115.405 2109.28)" fill="#13375b"/>
    <path id="Path_318" data-name="Path 318" d="M1612.5,986.51a16.707,16.707,0,0,1,8.874,7.187c3.323,5.6,5.329,21.693-6.185,28.564s-19.211-4.161-20.018-14.421C1594.223,995.7,1599.519,984.446,1612.5,986.51Z" transform="translate(-1065.614 2112.819)" fill="#966259"/>
    <path id="Path_319" data-name="Path 319" d="M2670.744,1565.814s5.467,22.3,9.541,25.8,17.361,10.2,13.885,10.917-29.207,1.319-28.5-2.972,1.445-7.028,1.445-7.028l-6.805-15.924Z" transform="translate(-1438.074 1737.17)" fill="#f79c8d"/>
    <path id="Path_320" data-name="Path 320" d="M2705.311,1656.679c-6.275.624-24.6,1.284-29.936.6,0,0-1-.2-.3-4.489.172-1.05.347-2.005.512-2.852,4.842,1.273,15.386-1.436,19.564-1.99,4.537,2.173,9.651,5.417,11.3,5.688C2708.846,1654.031,2708.844,1656.328,2705.311,1656.679Z" transform="translate(-1447.485 1683.931)" fill="#13375b"/>
    <path id="Path_321" data-name="Path 321" d="M2462.225,1614.363s-.573,5.64-.573,8.125,2.315,9.5,1.242,10.568-31.72.94-31.72-.069,5.415-4.069,12.776-6.171,9.863-10.255,7.951-14.938Z" transform="translate(-1289.556 1707.313)" fill="#f79c8d"/>
    <path id="Path_322" data-name="Path 322" d="M2429.77,1660.839c0-.94,5.025-3.829,11.535-5.818,6.936,2.344,16.568.41,20.179-.28,1.105,2.89,1.458,5.63.889,6.2C2461.3,1662.013,2429.77,1661.849,2429.77,1660.839Z" transform="translate(-1288.646 1679.53)" fill="#13375b"/>
    <path id="Path_323" data-name="Path 323" d="M2572.068,1351.048l5.5,4.875s6.188,16.753,6.548,17.859c.5,1.537,20.545,66.128,20.545,66.128l-13.964,5.025s-13.846-26.973-16.14-36.341-25.235-48.56-25.235-48.56Z" transform="translate(-1366.133 1876.375)" fill="#fae0b2"/>
    <path id="Path_324" data-name="Path 324" d="M2496.682,1377.543l-6.691,85.606h-15.485s-5.545-64.066-3.633-86.562Z" transform="translate(-1315.027 1859.822)" fill="#fae0b2"/>
    <path id="Path_325" data-name="Path 325" d="M2467.809,1128.235a119.463,119.463,0,0,1,21.03-3.2,78.6,78.6,0,0,1,13.573.908s7.074,15.868,9.176,28.869,13.575,54.678,13.575,54.678-23.325,17.971-57.354,6.118Z" transform="translate(-1313.302 2022.907)" fill="#50bfa5"/>
    <path id="Path_326" data-name="Path 326" d="M2518.707,1085.857s-.306,10.15.647,11.1,2.285,2.534.882,4.955-7.488.876-10.324-.51a13.4,13.4,0,0,1-4.478-3.806l1.42-16.077Z" transform="translate(-1337.689 2051.074)" fill="#f79c8d"/>
    <path id="Path_327" data-name="Path 327" d="M2516.909,1090.063a14.232,14.232,0,0,1-8-6.289l.2-2.251,11.853,4.334s-.075,2.477-.035,5.1A13.63,13.63,0,0,1,2516.909,1090.063Z" transform="translate(-1339.938 2051.074)" fill="#b75742"/>
    <path id="Path_328" data-name="Path 328" d="M2493.039,1039.763s-.288-5.967-3.953-4.808-.872,10.166,2.167,9.869S2493.039,1039.763,2493.039,1039.763Z" transform="translate(-1325.963 2081.355)" fill="#f79c8d"/>
    <path id="Path_329" data-name="Path 329" d="M2509.144,993.286s5.736-.127,8.667,4.334,6.118,17.206,1.274,26-11.024,6.627-13.573,5.736-7.583-2.868-10.133-11.089S2494.678,991.565,2509.144,993.286Z" transform="translate(-1330.548 2108.34)" fill="#f79c8d"/>
    <path id="Path_330" data-name="Path 330" d="M2466.13,1129.546c2.615,5.9,9.049,18.615,8.753,32.635-.31,14.686-11.355,24.217-11.355,24.217v7.259s12.189-1.92,16.849-20.9-6.552-44.752-6.552-44.752-1.6-1.141-4.772-.256A5.287,5.287,0,0,0,2466.13,1129.546Z" transform="translate(-1310.527 2021.327)" fill="#355389"/>
    <path id="Path_331" data-name="Path 331" d="M2547.029,1123.542s9.16,49.3,21.039,52.494l-2.067-8.4s-12.24-39.885-12.24-43.128S2547.029,1123.542,2547.029,1123.542Z" transform="translate(-1364.65 2024.344)" fill="#355389"/>
    <g id="Group_74" data-name="Group 74" transform="translate(1171.622 3190.164)">
      <path id="Path_332" data-name="Path 332" d="M2551.994,1290.134h-35.54v-40.5l35.54,1.58Z" transform="translate(-2516.454 -1248.055)" fill="#f47458"/>
      <g id="Group_72" data-name="Group 72">
        <path id="Path_333" data-name="Path 333" d="M2551.994,1245.146h-33.961a1.579,1.579,0,0,0-1.579,1.579h0a1.579,1.579,0,0,0,1.579,1.579h33.961l-.029-.011C2549.618,1247.413,2549.631,1246.021,2551.994,1245.146Z" transform="translate(-2516.454 -1245.146)" fill="#b75742"/>
        <path id="Path_334" data-name="Path 334" d="M2554.036,1246.475h-31.82a1.112,1.112,0,0,0-1.112,1.112h0a1.111,1.111,0,0,0,1.112,1.111h31.819C2552.958,1248.01,2552.96,1247.162,2554.036,1246.475Z" transform="translate(-2519.468 -1246.007)" fill="#fae0b2"/>
      </g>
      <g id="Group_73" data-name="Group 73" transform="translate(16.853 0.695)">
        <path id="Path_335" data-name="Path 335" d="M2567.464,1247.121h-2.238a.871.871,0,0,0-.872.871v.078h3.109Z" transform="translate(-2564.355 -1247.121)" fill="#13375b"/>
        <path id="Path_336" data-name="Path 336" d="M2567.093,1247.127a2.741,2.741,0,0,1,1.784,1.011l5.308,6.583,3.118,0-5.048-6.26a3.612,3.612,0,0,0-2.352-1.333Z" transform="translate(-2566.13 -1247.124)" fill="#355389"/>
      </g>
    </g>
    <path id="Path_337" data-name="Path 337" d="M2458.14,1134.233s2.68,2.686,5.548,12.87,4.33,34.033,6.815,36.518,18.736,15.422,21.667,14.977,9.5-8.093,11.535-8.093,1.785,1.847.765,2.867-2.262,2.2-1.657,2.8l.606.605s9.082-2.39,10.61-1.5-1.466,2.995-1.466,4.525.375,1.5.191,3.187a6.359,6.359,0,0,1-1.4,3.823c-.8.8-10.834,3.7-20.648,2.358a47.527,47.527,0,0,1-30.653-17.015c-8.858-10.961-7.084-45.412-6.883-48.847C2453.679,1134.615,2458.14,1134.233,2458.14,1134.233Z" transform="translate(-1303.633 2016.909)" fill="#f79c8d"/>
    <g id="Group_76" data-name="Group 76" transform="translate(1207.083 3015.967)">
      <g id="Group_75" data-name="Group 75" transform="translate(0 0)">
        <path id="Path_338" data-name="Path 338" d="M2447.831,773.419a17.269,17.269,0,1,0,10.03-22.271A17.266,17.266,0,0,0,2447.831,773.419Z" transform="translate(-2446.706 -750.023)" fill="#f7cc7f"/>
        <path id="Path_339" data-name="Path 339" d="M2491.284,797.1a9.233,9.233,0,1,1-17.268,6.544Z" transform="translate(-2464.408 -780.538)" fill="#efefef"/>
      </g>
    </g>
  </g>
</svg>
