<svg xmlns="http://www.w3.org/2000/svg" width="84.505" height="79.389" viewBox="0 0 84.505 79.389">
  <g id="Courses_avail_icon" transform="translate(0 -15.5)">
    <path id="Path_137" data-name="Path 137" d="M146.386,143.893l18.092,7.236,18.092-7.236-18.092-7.236Z" transform="translate(-122.225 -101.16)" fill="#fff"/>
    <path id="Path_138" data-name="Path 138" d="M181,226.652v5.713l12.379,4.951,12.379-4.951v-5.714L193.379,231.6Z" transform="translate(-151.126 -176.301)" fill="#fff"/>
    <path id="Path_139" data-name="Path 139" d="M0,15.5V79.869H84.505V15.5ZM69.486,65.015H64.534V46.389L59.583,48.37V59.415l-17.33,6.934-17.33-6.934V48.37L10.83,42.733l31.423-12.57L69.486,41.058Z" transform="translate(0 0)" fill="#fff"/>
    <path id="Path_140" data-name="Path 140" d="M153.319,436.5H133.244l-1.651,4.951H121V446.4h44.563v-4.951H154.969Z" transform="translate(-101.029 -351.514)" fill="#fff"/>
  </g>
</svg>
