<svg id="Education_Awards" xmlns="http://www.w3.org/2000/svg" width="76.761" height="76.761" viewBox="0 0 76.761 76.761">
  <g id="Group_34" data-name="Group 34">
    <path id="Path_136" data-name="Path 136" d="M72.923,3.838H61.409V0H15.352V3.838H3.838A3.626,3.626,0,0,0,0,7.676v9.211A17.41,17.41,0,0,0,15.352,34.159v.384A23.084,23.084,0,0,0,33.391,57.187L30.7,65.247H21.877a3.686,3.686,0,0,0-3.454,2.687l-3.07,8.827H61.409l-3.07-8.827a3.686,3.686,0,0,0-3.454-2.687H46.056l-2.687-8.06A23.084,23.084,0,0,0,61.409,34.542v-.384A17.41,17.41,0,0,0,76.761,16.887V7.676A3.626,3.626,0,0,0,72.923,3.838ZM15.352,26.482a10.25,10.25,0,0,1-7.676-9.6V11.514h7.676Zm30.7,11.9L38.38,34.159,30.7,38.38,32.623,30.7l-5.757-7.676h8.06l3.454-7.676,3.454,7.676h8.06L44.137,30.7ZM69.085,16.887a9.9,9.9,0,0,1-7.676,9.6V11.514h7.676Z" fill="#fff"/>
  </g>
</svg>
