<svg xmlns="http://www.w3.org/2000/svg" width="120.842" height="103.249" viewBox="0 0 120.842 103.249">
  <g id="enrolled_students_icon" transform="translate(0 -37.27)">
    <g id="Group_31" data-name="Group 31" transform="translate(0 37.27)">
      <g id="Group_30" data-name="Group 30" transform="translate(0 0)">
        <path id="Path_134" data-name="Path 134" d="M120.842,111.077a10.6,10.6,0,0,0-7.081-9.969V64.432l7.081-2.919L60.421,37.27,0,61.512,60.421,85.755l46.26-18.48v33.833a10.558,10.558,0,0,0-1.015,19.523l-5.883,17.648,6.714,2.24,3.723-11.171,3.723,11.171,6.714-2.24-5.883-17.648A10.6,10.6,0,0,0,120.842,111.077Z" transform="translate(0 -37.27)" fill="#fff"/>
      </g>
    </g>
    <g id="Group_33" data-name="Group 33" transform="translate(28.558 80.591)">
      <g id="Group_32" data-name="Group 32">
        <path id="Path_135" data-name="Path 135" d="M152.863,233.614,121,220.82v9.243c0,10.092,13.7,17.7,31.863,17.7s31.863-7.609,31.863-17.7V220.82Z" transform="translate(-121 -220.82)" fill="#fff"/>
      </g>
    </g>
  </g>
</svg>
