<svg xmlns="http://www.w3.org/2000/svg" xmlns:xlink="http://www.w3.org/1999/xlink" width="404.483" height="376.17" viewBox="0 0 404.483 376.17">
  <defs>
    <linearGradient id="linear-gradient" x1="76.791" y1="1.018" x2="76.627" y2="0.017" gradientUnits="objectBoundingBox">
      <stop offset="0.008" stop-color="#2f3b7a"/>
      <stop offset="1" stop-color="#4d5aa1"/>
    </linearGradient>
  </defs>
  <g id="Join_btn_top" transform="translate(-636.856 -123.523)">
    <g id="Group_1158" data-name="Group 1158" transform="translate(636.856 201.847)">
      <rect id="Rectangle_243" data-name="Rectangle 243" width="373.618" height="236.951" rx="5.352" fill="#1e2859"/>
      <g id="Group_1156" data-name="Group 1156" transform="translate(5.199)">
        <rect id="Rectangle_244" data-name="Rectangle 244" width="373.618" height="236.951" rx="5.352" fill="#2f3b7a"/>
        <rect id="Rectangle_245" data-name="Rectangle 245" width="363.22" height="226.552" rx="2.274" transform="translate(5.199 5.199)" fill="#fff"/>
        <rect id="Rectangle_246" data-name="Rectangle 246" width="265.767" height="149.115" transform="translate(20.603 34.102)" fill="#37bae6" opacity="0.4"/>
        <rect id="Rectangle_247" data-name="Rectangle 247" width="217.787" height="5.351" transform="translate(20.603 192.581)" fill="#c6c6c6"/>
        <rect id="Rectangle_248" data-name="Rectangle 248" width="49.229" height="5.351" transform="translate(20.603 201.767)" fill="#c6c6c6"/>
        <rect id="Rectangle_249" data-name="Rectangle 249" width="37.642" height="5.351" transform="translate(248.728 201.767)" fill="#c6c6c6"/>
        <g id="Group_1151" data-name="Group 1151" transform="translate(301.774 34.102)">
          <rect id="Rectangle_250" data-name="Rectangle 250" width="51.242" height="28.75" fill="#37bae6" opacity="0.4"/>
          <path id="Path_1370" data-name="Path 1370" d="M1075.967,292.326V289.7l2.276,1.314Zm4.487-3.659H1073.2a.52.52,0,0,0-.519.519v3.651a.52.52,0,0,0,.519.519h7.255a.519.519,0,0,0,.519-.519v-3.651A.519.519,0,0,0,1080.454,288.667Z" transform="translate(-1051.206 -276.637)" fill="#fff"/>
        </g>
        <g id="Group_1152" data-name="Group 1152" transform="translate(301.774 74.223)">
          <rect id="Rectangle_251" data-name="Rectangle 251" width="51.242" height="28.75" fill="#37bae6" opacity="0.4"/>
          <path id="Path_1371" data-name="Path 1371" d="M1075.967,345.564v-2.628l2.276,1.314Zm4.487-3.658H1073.2a.519.519,0,0,0-.519.519v3.651a.519.519,0,0,0,.519.519h7.255a.519.519,0,0,0,.519-.519v-3.651A.519.519,0,0,0,1080.454,341.906Z" transform="translate(-1051.206 -329.875)" fill="#fff"/>
        </g>
        <g id="Group_1153" data-name="Group 1153" transform="translate(301.774 114.345)">
          <rect id="Rectangle_252" data-name="Rectangle 252" width="51.242" height="28.75" fill="#37bae6" opacity="0.4"/>
          <path id="Path_1372" data-name="Path 1372" d="M1075.967,398.8v-2.627l2.276,1.314Zm4.487-3.658H1073.2a.519.519,0,0,0-.519.519v3.651a.52.52,0,0,0,.519.519h7.255a.519.519,0,0,0,.519-.519v-3.651A.519.519,0,0,0,1080.454,395.144Z" transform="translate(-1051.206 -383.114)" fill="#fff"/>
        </g>
        <g id="Group_1154" data-name="Group 1154" transform="translate(301.774 154.466)">
          <rect id="Rectangle_253" data-name="Rectangle 253" width="51.242" height="28.75" fill="#37bae6" opacity="0.4"/>
          <path id="Path_1373" data-name="Path 1373" d="M1075.967,452.041v-2.628l2.276,1.314Zm4.487-3.659H1073.2a.52.52,0,0,0-.519.519v3.651a.52.52,0,0,0,.519.519h7.255a.519.519,0,0,0,.519-.519V448.9A.519.519,0,0,0,1080.454,448.382Z" transform="translate(-1051.206 -436.352)" fill="#fff"/>
        </g>
        <g id="Group_1155" data-name="Group 1155" transform="translate(301.774 194.588)">
          <rect id="Rectangle_254" data-name="Rectangle 254" width="51.242" height="26.491" fill="#37bae6" opacity="0.4"/>
          <path id="Path_1374" data-name="Path 1374" d="M1075.967,505.279v-2.628l2.276,1.314Zm4.487-3.658H1073.2a.519.519,0,0,0-.519.519v3.651a.519.519,0,0,0,.519.519h7.255a.519.519,0,0,0,.519-.519V502.14A.519.519,0,0,0,1080.454,501.621Z" transform="translate(-1051.206 -489.59)" fill="#fff"/>
        </g>
        <path id="Rectangle_255" data-name="Rectangle 255" d="M0,0H363.22a0,0,0,0,1,0,0V8.439a2.233,2.233,0,0,1-2.233,2.233H2.249A2.249,2.249,0,0,1,0,8.424V0A0,0,0,0,1,0,0Z" transform="translate(5.199 221.079)" fill="#1e2859"/>
        <rect id="Rectangle_256" data-name="Rectangle 256" width="49.229" height="5.351" transform="translate(20.603 19.386)" fill="#c6c6c6"/>
        <path id="Rectangle_257" data-name="Rectangle 257" d="M2.249,0H360.99a2.23,2.23,0,0,1,2.23,2.23V7.923a0,0,0,0,1,0,0H0a0,0,0,0,1,0,0V2.249A2.249,2.249,0,0,1,2.249,0Z" transform="translate(5.199 5.199)" fill="#82b5e0"/>
        <rect id="Rectangle_258" data-name="Rectangle 258" width="37.642" height="5.351" transform="translate(205.89 201.767)" fill="#c6c6c6"/>
        <rect id="Rectangle_259" data-name="Rectangle 259" width="21.226" height="5.351" transform="translate(153.487 201.767)" fill="#c6c6c6"/>
        <rect id="Rectangle_260" data-name="Rectangle 260" width="21.226" height="5.351" transform="translate(177.722 201.767)" fill="#c6c6c6"/>
      </g>
      <g id="Group_1157" data-name="Group 1157" transform="translate(118.485 236.951)">
        <path id="Path_1375" data-name="Path 1375" d="M813.253,541.869H879.74l-1.749,60.9H794.076Z" transform="translate(-794.076 -541.869)" fill="#1e2859"/>
        <rect id="Rectangle_261" data-name="Rectangle 261" width="138.221" height="5.199" transform="translate(169.832 60.895) rotate(180)" fill="#2f3b7a"/>
        <path id="Path_1376" data-name="Path 1376" d="M804.081,597.566l17.54-55.7h66.487l-1.6,55.7Z" transform="translate(-796.541 -541.869)" fill="url(#linear-gradient)"/>
      </g>
    </g>
    <g id="Group_1164" data-name="Group 1164" transform="translate(677.109 123.523)">
      <path id="Path_1377" data-name="Path 1377" d="M871.517,266.445c-20.356-8.165-53.947-8.585-79.814-2.077-22.3,5.608-21.968,21.729-21.578,27.854,1.917,30.085,9.172,126.434,9.172,126.434H882.762s13.686-88.312,11.318-127.166C893.413,280.536,897.383,276.82,871.517,266.445Z" transform="translate(-709.919 -157.114)" fill="#2f54a4"/>
      <path id="Path_1378" data-name="Path 1378" d="M970.171,393.559,873.23,296.3,887.225,284.6c13.075-9.607,29.109-5.454,43.617,7.112,12.166,10.538,24.734,29.578,29.072,35.67,10.633,14.931,40.8,56.127,40.8,56.127l-10.52,9.389C984.112,398.323,975.338,398.613,970.171,393.559Z" transform="translate(-735.346 -161.906)" fill="#2f54a4"/>
      <path id="Path_1379" data-name="Path 1379" d="M697.339,400.088c1.138-25.582,13.324-73.046,28.1-98.5,14.445-24.879,42.915-37.4,49.214-31.314,3.526,3.409,2.895,9.264.629,17.152-6.4,22.263-36.07,96.392-48.275,111.981-6.832,8.726-13.745,23.789-23.11,16.953C699.958,413.487,696.912,409.687,697.339,400.088Z" transform="translate(-692 -159.304)" fill="#2f54a4"/>
      <path id="Path_1380" data-name="Path 1380" d="M930.288,381.28H873.259l-18.087,67.29H912.2Z" transform="translate(-730.897 -187.028)" fill="#fff"/>
      <path id="Path_1381" data-name="Path 1381" d="M862.286,244.919h-2.513a4.092,4.092,0,0,1-4.058-3.507,129.563,129.563,0,0,1-1.194-18.148,164.164,164.164,0,0,1,2.52-28.863H820.912v44.611A5.907,5.907,0,0,1,815,244.919h-.859c0,12.716,18.626,20.129,32.352,20.129S867.886,254.13,862.286,244.919Z" transform="translate(-720.789 -140.986)" fill="#fec1b5"/>
      <path id="Path_1382" data-name="Path 1382" d="M734.571,436.989c-5.544,5.016-36.217,14.028-42.02,4.484-3.733-6.14-2.421-20.089.588-24.327,6.465-9.108,35.968-5.487,44.342,1.9C741.379,422.489,739.055,432.932,734.571,436.989Z" transform="translate(-690.268 -194.534)" fill="#fff"/>
      <path id="Path_1383" data-name="Path 1383" d="M1017.647,386.6c.775,7.91-20.787,31.61-31.043,27.185-5.507-2.375-15.782-10.422-15.943-15.617-.346-11.164,22.987-26.586,34.156-28.013C1009.973,369.495,1017.14,381.426,1017.647,386.6Z" transform="translate(-759.35 -184.281)" fill="#fff"/>
      <path id="Path_1384" data-name="Path 1384" d="M1128.525,314.712c-.824-2.054-9.658,6.07-14.679,9.464-2.253,1.523-4.519,1.54-7.058,1.458-3.055-.1-6.313-.352-8.544-.538-1.617-.135-2.71-.509-2.589-1.145.2-1.037.212-1.531,2.067-2.4,2.188-1.028,7.857-2.051,9.376-3.245,1.642-1.292,1.34-1.788-.421-1.566-2.787.353-9.3.94-13.885,2.417a20.427,20.427,0,0,0-6.261,3.614c-2.953,2.256-4.437,4.434-6.489,6.46l-86,55.352a6.85,6.85,0,0,0-1.619,10.067l4.818,5.959a16.009,16.009,0,0,0,23.557,1.291s47.742-47.324,64.355-62.508c1.589-1.453,3.691-1.82,5.15-2.173,8.216-1.99,17.937-1.188,22.04-3.592C1116.887,330.958,1129.37,316.82,1128.525,314.712Z" transform="translate(-764.336 -170.547)" fill="#fec1b5"/>
      <path id="Path_1385" data-name="Path 1385" d="M871.337,186.941c0,6.692-1.543,9.917-3.906,15.033-3.818,8.27-7.716,13.605-14.935,13.605-11.686,0-24.343-14.194-24.343-31.7s9.539-31.7,24.343-31.7c13.048,0,16.3,6.057,17,20.082C869.729,176.816,871.337,181.726,871.337,186.941Z" transform="translate(-724.24 -130.581)" fill="#fec1b5"/>
      <path id="Path_1386" data-name="Path 1386" d="M809.606,147.378c1.078-8.207,6.178-14.508,13.209-12.289,1.891-5.26,6.073-8.326,10.526-9.879,6.663-2.323,18.98-2.491,30.443,1.05,6.547,2.023,9.476,6.056,1.393,5.131a26.985,26.985,0,0,1,9.609,6.893c1.966,2.295,5.121,9.348-2.087,9.147,2.518,6.761-2.319,12.234-6.094,14.812-1.338.914-2.055.842-2.149-.975-.334-6.452-1.428-9.854-6.742-12.124-5.021-2.145-16.479-1.929-24.2,2.928-7.975,5.017-7.916,19.428-7.284,24.017.213,1.552,5.471,8.526,12.522,8.526,3.225,0,8.792-2.417,13.02-2.417,3.891,0,5.59,1.917,8.609,1.917,4.517,0,4.465-6.555,5.375-6.919,1.959-.784,6.3,7.928,6.3,21.243,0,11.321-8.277,21.924-18.663,21.924-12.026,0-19.5-4.54-24.98-11.3-6.618-8.159-7.6-19.525-6.351-29.882a34.822,34.822,0,0,1-7.2-7.862C811,164.514,808.587,155.139,809.606,147.378Z" transform="translate(-719.613 -123.523)" fill="#1e2859"/>
      <path id="Path_1387" data-name="Path 1387" d="M812.437,193.89c.831,6.071,5.71,12.04,8.7,11.1,2.421-.76,2.537-4.973,2.4-11.1-.13-5.785-.9-11.1-4.529-11.1S811.437,186.585,812.437,193.89Z" transform="translate(-720.329 -138.124)" fill="#e8988c"/>
      <path id="Path_1388" data-name="Path 1388" d="M855.066,212.989c0,.5,3.218,1.751,7.187,1.751s7.187-1.421,7.187-2.113c0-.459-3.218-.13-7.187-.13S855.066,212.406,855.066,212.989Z" transform="translate(-730.871 -145.416)" fill="#fff"/>
      <g id="Group_1159" data-name="Group 1159" transform="translate(131.684 41.172)">
        <path id="Path_1389" data-name="Path 1389" d="M865.035,196.287l-.032-.618c.252-.013.512-.023.777-.033,1.672-.063,3.567-.136,4.57-1.079.571-.537.564-1.522-.02-3.01l-.133-.339c-.889-2.25-2.782-6.941-2.063-9.915a3.871,3.871,0,0,1,2.421-2.782c2.775-.87,5.77-.031,8.567,1.3l-.265.558c-2.687-1.278-6.79-1.79-9-.439a2.644,2.644,0,0,0-1.115,1.5c-.634,2.8,1.169,7.359,2.036,9.551l.134.341c.687,1.751.644,2.957-.132,3.686-1.173,1.1-3.191,1.18-4.971,1.247C865.541,196.264,865.284,196.274,865.035,196.287Z" transform="translate(-865.003 -178.155)" fill="#29235c"/>
      </g>
      <g id="Group_1160" data-name="Group 1160" transform="translate(112.999 41.229)">
        <path id="Path_1390" data-name="Path 1390" d="M840.419,180.342l-.21-.666a36,36,0,0,1,8.823-1.445h.036a15.967,15.967,0,0,1,6.778,1.407l.115.046-.26.65-.115-.047a15.184,15.184,0,0,0-6.518-1.357h-.035A35.778,35.778,0,0,0,840.419,180.342Z" transform="translate(-840.209 -178.231)" fill="#29235c"/>
      </g>
      <path id="Path_1391" data-name="Path 1391" d="M854.116,186.023c0,1.08-.65,1.956-1.453,1.956s-1.453-.876-1.453-1.956.65-1.956,1.453-1.956S854.116,184.943,854.116,186.023Z" transform="translate(-729.921 -138.44)" fill="#1e2859"/>
      <ellipse id="Ellipse_181" data-name="Ellipse 181" cx="1.453" cy="1.956" rx="1.453" ry="1.956" transform="translate(140.463 45.627)" fill="#1e2859"/>
      <g id="Group_1161" data-name="Group 1161" transform="translate(112.971 40.914)">
        <path id="Path_1392" data-name="Path 1392" d="M840.439,180.228l-.267-.646a22.147,22.147,0,0,1,8.851-1.77,11.717,11.717,0,0,1,7,1.8l-.4.576a11.071,11.071,0,0,0-6.6-1.681A21.194,21.194,0,0,0,840.439,180.228Z" transform="translate(-840.172 -177.813)" fill="#29235c"/>
      </g>
      <path id="Path_1393" data-name="Path 1393" d="M852.131,184.793c.31.375.386.824.169,1s-.644.023-.955-.352-.386-.823-.169-1S851.821,184.419,852.131,184.793Z" transform="translate(-729.882 -138.514)" fill="#fff"/>
      <path id="Path_1394" data-name="Path 1394" d="M877.573,184.793c.311.375.386.824.169,1s-.644.023-.955-.352-.386-.823-.169-1S877.263,184.419,877.573,184.793Z" transform="translate(-736.15 -138.514)" fill="#fff"/>
      <g id="Group_1162" data-name="Group 1162" transform="translate(117.813 45.244)">
        <path id="Path_1395" data-name="Path 1395" d="M847.036,186.072l-.439-.479c3.648-3.335,6.374-1.755,7.376-.922l-.415.5C852.475,184.269,850.188,183.19,847.036,186.072Z" transform="translate(-846.597 -183.559)" fill="#29235c"/>
      </g>
      <g id="Group_1163" data-name="Group 1163" transform="translate(138.947 45.223)">
        <path id="Path_1396" data-name="Path 1396" d="M875.213,185.924l-.573-.352c1.1-1.8,2.317-2.1,3.134-2.033a3.349,3.349,0,0,1,2.5,1.589l-.621.257a2.778,2.778,0,0,0-1.93-1.176C876.8,184.135,875.957,184.713,875.213,185.924Z" transform="translate(-874.64 -183.531)" fill="#29235c"/>
      </g>
      <path id="Path_1397" data-name="Path 1397" d="M838.189,429.618a6.6,6.6,0,0,1-3.041.032c-6.174-1.386-12.148-2.294-12.148-2.294s.741-.4,1.746-1l1.436-5.34c-3.556-.163-7.245-.115-10.134,1.073-2.14.88-5.519,2.825-8.888,4.308a11.922,11.922,0,0,1-4.337.995l-96.048,3.761a10.445,10.445,0,0,0-9.891,11.851,17.25,17.25,0,0,0,20.991,14.465s62.108-14.774,80.965-18.8a28.119,28.119,0,0,1,10.042-.111c7.355,1.556,18.4,4.957,22.586,4.31,4.017-.62,11.269-3.8,14.836-6,2.944-1.579,7.2-3.471,7.684-5.718a7.934,7.934,0,0,0,.264-3.884C853.827,425.836,844.117,428.149,838.189,429.618Z" transform="translate(-691.874 -196.802)" fill="#fec1b5"/>
      <path id="Path_1398" data-name="Path 1398" d="M866,262.707a8.733,8.733,0,0,0-7.365-4.286c-2.695,0,.118.558,1.089,4.706,1.393,5.954-4.274,12.188-13.941,16.09-7.563-.991-22.43-12.3-30.2-21.263-.525-.606-4.926-2.079-6.483,2.141-3.773,14.032,18.409,27.817,28.547,34.535l8.674-13.605,12.849,9.952c4.1-4.489,7.834-11.766,8.481-17.812C867.995,270,867.587,265.631,866,262.707Z" transform="translate(-719.441 -156.459)" fill="#fff"/>
      <path id="Path_1399" data-name="Path 1399" d="M859.136,243.874c-14.9,5.274-25.681-6.027-30.193-13.464-3.29-5.423-5.4-10.313-5.872-15.91a56.653,56.653,0,0,1,0-8.68c.154-2.3.4-4.568.672-6.779-.222-.182-.444-.356-.672-.525v-3.883c.746.726,1.532,1.424,2.325,2.069-1.25,10.36-.269,21.722,6.355,29.884,5.483,6.759,12.954,11.295,24.98,11.295.235,0,.464-.007.692-.014.141,1.317.3,2.519.45,3.6A4.045,4.045,0,0,0,859.136,243.874Z" transform="translate(-722.947 -141.043)" fill="#e8988c"/>
    </g>
  </g>
</svg>
