<svg xmlns="http://www.w3.org/2000/svg" width="280.239" height="40.501" viewBox="0 0 252.239 54.501">
  <g id="logo" transform="translate(-65.761 -42)">
    <text id="CampusTutr" transform="translate(142 82)" fill="#fff" font-size="44" font-family="BebasNeueBold, Bebas Neue"><tspan x="0" y="0">CampusTutr</tspan></text>
    <g id="logo-2" data-name="logo" transform="translate(-142.316 -113.593)">
      <path id="Path_141" data-name="Path 141" d="M265.68,164.408a62.808,62.808,0,0,0-8.3-4.666c-3.259-1.494-3.236-1.553-3.237,1.935,0,8.521.033,17.043-.032,25.564a2.654,2.654,0,0,0,1.458,2.571,50.111,50.111,0,0,1,9.252,7.233c.811.813,1.512,1.736,2.243,2.626.2.241.517.5.128.873-.411.4-.6,0-.835-.2a40.1,40.1,0,0,0-9.767-5.961c-1.4-.609-2.833-1.129-4.21-1.78a2.051,2.051,0,0,1-1.312-2q.034-16.893.021-33.786c0-1.16.412-1.456,1.533-1.048a35.065,35.065,0,0,1,11.461,6.567c.605.536,1.249,1.028,1.875,1.541C266.145,164.2,266.131,164.419,265.68,164.408Z" transform="translate(-31.939)" fill="#fff"/>
      <path id="Path_142" data-name="Path 142" d="M335.395,162.591a38.881,38.881,0,0,1,10.827-6.4,11.491,11.491,0,0,1,1.082-.4c.932-.275,1.469-.066,1.467,1.059q-.027,16.946-.01,33.891a2.063,2.063,0,0,1-1.608,2.032,49.991,49.991,0,0,0-12.354,6.548c-.374.281-.776.807-1.165,1.063-.3.3-.386.687-.942.247s-.014-.808.2-1.07a30.39,30.39,0,0,1,3.561-3.857,60.257,60.257,0,0,1,8.311-6.148,1.975,1.975,0,0,0,.954-1.932c-.03-9.072-.02-18.144-.022-27.216,0-1.8-.174-1.885-1.882-1.167a77.269,77.269,0,0,0-7.847,3.94c-.272.131-.57.236-.773-.061C335.057,162.915,335.255,162.741,335.395,162.591Z" transform="translate(-92.391 -0.063)" fill="#fff"/>
      <path id="Path_143" data-name="Path 143" d="M370.207,219.352q0,8.22,0,16.441c0,1.859-.311,2.18-2.156,2.183q-10.4.017-20.806.01c-.269,0-.68.2-.79-.168-.124-.415.266-.569.6-.681,3.645-1.244,7.273-2.462,11.238-2.195,2.43.164,4.88-.014,7.32.047,1.191.03,1.636-.531,1.649-1.6.009-.727-.03-1.454-.03-2.181q0-14.641-.005-29.281c0-.532-.047-1.171.715-1.049.842.135,2.048-.237,2.238,1.142a15.252,15.252,0,0,1,.029,2.053Q370.207,211.71,370.207,219.352Z" transform="translate(-102.778 -33.625)" fill="#febf00"/>
      <path id="Path_144" data-name="Path 144" d="M208.1,219.039q0-8.35,0-16.7a1.883,1.883,0,0,1,2.532-1.752c.489.175.433.567.432.952q-.03,15.413-.058,30.825c0,2.181.139,2.32,2.342,2.32,2.312,0,4.633.125,6.936-.027,3.881-.256,7.415,1.012,10.983,2.2.3.1.619.257.592.587-.039.465-.465.255-.716.255q-10.6.009-21.192-.014c-1.474,0-1.876-.443-1.877-1.948q-.009-8.35,0-16.7Z" transform="translate(0 -33.341)" fill="#febf00"/>
      <path id="Path_145" data-name="Path 145" d="M337.784,219a44.424,44.424,0,0,1,16.114-6.628c1.139-.224,1.355-.739,1.353-1.728q-.03-14.891-.017-29.783c0-2.238,0-2.238,1.372-2.24,1.491,0,1.7.287,1.7,2.423q0,12.9-.008,25.8c0,1.926.011,3.851,0,5.777-.013,2.431-.1,2.6-2.436,2.816a61.409,61.409,0,0,0-17.56,4.075C337.763,219.709,337.58,219.549,337.784,219Z" transform="translate(-96.294 -17.106)" fill="#fff"/>
      <path id="Path_146" data-name="Path 146" d="M249.191,219.442c-2.314-.69-4.5-1.753-6.87-2.29a56.84,56.84,0,0,0-6.635-1.315q-2.673-.279-5.351-.494a.9.9,0,0,1-.888-.776,9.472,9.472,0,0,1-.245-1.9q-.025-15.99,0-31.979c0-.908-.223-2.092,1.324-2.148,1.687-.061,1.727-.051,1.728,1.633q0,15.09-.017,30.181c0,1.13.185,1.716,1.523,1.977a43.619,43.619,0,0,1,12.832,4.682c1.063.589,1.991,1.413,3.115,1.913C249.911,219.477,249.729,219.639,249.191,219.442Z" transform="translate(-15.681 -17.035)" fill="#fff"/>
      <path id="Path_147" data-name="Path 147" d="M283.176,357.747c-4.1,0-8.208.006-12.312-.007-.613,0-1.393.154-1.524-.757-.126-.879-.061-1.746,1-2.07a9.812,9.812,0,0,1,2.882-.545q10,.008,20.006,0a10.617,10.617,0,0,1,2.641.458,1.627,1.627,0,0,1,1.282,2.025c-.134,1.122-.989.885-1.664.889C291.384,357.757,287.28,357.747,283.176,357.747Z" transform="translate(-45.476 -147.661)" fill="#febf00"/>
      <path id="Path_148" data-name="Path 148" d="M307.921,233.439a1.147,1.147,0,0,1,.907.406c2.044,1.743,4.1,3.478,6.122,5.242,1.018.886.925,1.232-.37,1.684-1.985.692-1.985.692-1.047,2.62.168.345.335.691.509,1.033a.825.825,0,0,1-.387,1.274c-.547.259-.787-.172-.987-.54a22.774,22.774,0,0,1-1.077-2.173c-.282-.683-.554-.836-1.223-.366-.628.441-1.159,1.462-2.031,1.052-.936-.44-.444-1.535-.517-2.332-.2-2.21-.321-4.428-.44-6.644C307.352,234.172,307.229,233.524,307.921,233.439Z" transform="translate(-73.749 -57.828)" fill="#febf00"/>
    </g>
  </g>
</svg>
