<svg id="schools" xmlns="http://www.w3.org/2000/svg" xmlns:xlink="http://www.w3.org/1999/xlink" width="120" height="120" viewBox="0 0 120 120">
  <defs>
    <linearGradient id="linear-gradient" x1="0.5" y1="1" x2="0.5" gradientUnits="objectBoundingBox">
      <stop offset="0" stop-color="#ffa609"/>
      <stop offset="1" stop-color="#fe595d"/>
    </linearGradient>
  </defs>
  <path id="Path_1220" data-name="Path 1220" d="M60,120A60,60,0,1,0,0,60,60,60,0,0,0,60,120Z" fill="url(#linear-gradient)"/>
  <g id="Ellipse_101" data-name="Ellipse 101" transform="translate(11 11)" fill="none" stroke="#fff" stroke-width="1">
    <circle cx="49" cy="49" r="49" stroke="none"/>
    <circle cx="49" cy="49" r="48.5" fill="none"/>
  </g>
  <g id="building" transform="translate(36 37.196)">
    <g id="Group_11" data-name="Group 11" transform="translate(0 0)">
      <g id="Group_10" data-name="Group 10">
        <path id="Path_112" data-name="Path 112" d="M143.056,477.867H120.28a.814.814,0,0,0-.813.813v1.627a.813.813,0,1,0,1.627,0v-.813h21.962a.813.813,0,0,0,0-1.627Z" transform="translate(-108.079 -432.316)" fill="#fff"/>
        <path id="Path_113" data-name="Path 113" d="M187.733,159.294a.814.814,0,0,0,.813.813H191.8a.814.814,0,0,0,.813-.813v-4.88a.814.814,0,0,0-.813-.813h-3.254a.814.814,0,0,0-.813.813v4.88Zm1.627-4.067h1.627v3.254H189.36Z" transform="translate(-169.838 -138.959)" fill="#fff"/>
        <path id="Path_114" data-name="Path 114" d="M10.574,102.4H.813a.814.814,0,0,0-.813.813v16.268a.813.813,0,1,0,1.627,0V104.027h8.948a.813.813,0,0,0,0-1.627Z" transform="translate(0 -92.639)" fill="#fff"/>
        <path id="Path_115" data-name="Path 115" d="M409.6,364.094a.814.814,0,0,0,.813.813h3.254a.814.814,0,0,0,.813-.813v-4.88a.814.814,0,0,0-.813-.813h-3.254a.814.814,0,0,0-.813.813Zm1.627-4.067h1.627v3.254h-1.627Z" transform="translate(-370.556 -324.237)" fill="#fff"/>
        <path id="Path_116" data-name="Path 116" d="M4.067,307.2C.046,307.2,0,317.668,0,317.774a4.074,4.074,0,0,0,3.254,3.985v4.149a.813.813,0,1,0,1.627,0v-4.149a4.074,4.074,0,0,0,3.254-3.985C8.134,317.668,8.088,307.2,4.067,307.2Zm0,13.014a2.443,2.443,0,0,1-2.44-2.44c0-4.052,1.088-8.948,2.44-8.948s2.44,4.9,2.44,8.948A2.443,2.443,0,0,1,4.067,320.214Z" transform="translate(0 -277.917)" fill="#fff"/>
        <path id="Path_117" data-name="Path 117" d="M55.267,256H52.013a.814.814,0,0,0-.813.813v1.627a.813.813,0,1,0,1.627,0v-.813h1.627v4.067a.813.813,0,1,0,1.627,0v-4.88A.814.814,0,0,0,55.267,256Z" transform="translate(-46.32 -231.598)" fill="#fff"/>
        <path id="Path_118" data-name="Path 118" d="M410.413,160.108h3.254a.814.814,0,0,0,.813-.813v-4.88a.814.814,0,0,0-.813-.813h-3.254a.814.814,0,0,0-.813.813v4.88A.814.814,0,0,0,410.413,160.108Zm.813-4.88h1.627v3.254h-1.627Z" transform="translate(-370.556 -138.96)" fill="#fff"/>
        <path id="Path_119" data-name="Path 119" d="M55.267,153.6H52.013a.814.814,0,0,0-.813.813v4.88a.814.814,0,0,0,.813.813h3.254a.814.814,0,0,0,.813-.813v-4.88A.814.814,0,0,0,55.267,153.6Zm-.813,4.88H52.827v-3.254h1.627v3.254Z" transform="translate(-46.32 -138.959)" fill="#fff"/>
        <path id="Path_120" data-name="Path 120" d="M273.067,159.294a.814.814,0,0,0,.813.813h3.254a.814.814,0,0,0,.813-.813v-4.88a.814.814,0,0,0-.813-.813H273.88a.814.814,0,0,0-.813.813Zm1.627-4.067h1.627v3.254h-1.627Z" transform="translate(-247.038 -138.959)" fill="#fff"/>
        <path id="Path_121" data-name="Path 121" d="M403.108,102.4h-9.761a.813.813,0,1,0,0,1.627h8.948v32.686a2.324,2.324,0,0,0-1.231-.113,3.248,3.248,0,0,0-5.671,0,2.39,2.39,0,0,0-.418-.037,2.44,2.44,0,1,0,0,4.88h6.507a2.443,2.443,0,0,0,2.44-2.44v-35.79A.814.814,0,0,0,403.108,102.4Zm-1.627,37.417h-6.507a.813.813,0,0,1,0-1.627.8.8,0,0,1,.441.133.813.813,0,0,0,1.233-.5,1.62,1.62,0,0,1,3.159,0,.813.813,0,0,0,1.233.5.829.829,0,0,1,1.254.681A.815.815,0,0,1,401.482,139.817Z" transform="translate(-355.117 -92.639)" fill="#fff"/>
        <path id="Path_122" data-name="Path 122" d="M273.88,57.708h3.254a.814.814,0,0,0,.813-.813v-4.88a.814.814,0,0,0-.813-.813H273.88a.814.814,0,0,0-.813.813v4.88A.814.814,0,0,0,273.88,57.708Zm.813-4.88h1.627v3.254h-1.627Z" transform="translate(-247.038 -46.32)" fill="#fff"/>
        <path id="Path_123" data-name="Path 123" d="M273.067,261.694a.814.814,0,0,0,.813.813h3.254a.814.814,0,0,0,.813-.813v-4.88a.814.814,0,0,0-.813-.813H273.88a.814.814,0,0,0-.813.813Zm1.627-4.067h1.627v3.254h-1.627Z" transform="translate(-247.038 -231.598)" fill="#fff"/>
        <path id="Path_124" data-name="Path 124" d="M188.547,57.708H191.8a.814.814,0,0,0,.813-.813v-4.88a.814.814,0,0,0-.813-.813h-3.254a.814.814,0,0,0-.813.813v4.88A.814.814,0,0,0,188.547,57.708Zm.813-4.88h1.627v3.254h-1.627Z" transform="translate(-169.839 -46.32)" fill="#fff"/>
        <path id="Path_125" data-name="Path 125" d="M247.7,409.932a.813.813,0,1,0,1.155,0A.855.855,0,0,0,247.7,409.932Z" transform="translate(-223.877 -370.653)" fill="#fff"/>
        <path id="Path_126" data-name="Path 126" d="M187.733,261.694a.814.814,0,0,0,.813.813H191.8a.814.814,0,0,0,.813-.813v-4.88A.814.814,0,0,0,191.8,256h-3.254a.814.814,0,0,0-.813.813v4.88Zm1.627-4.067h1.627v3.254H189.36Z" transform="translate(-169.838 -231.598)" fill="#fff"/>
        <path id="Path_127" data-name="Path 127" d="M170.667,359.213a.814.814,0,0,0,.813.813h2.44v7.321a.813.813,0,1,0,1.627,0v-7.321h6.507v7.321a.813.813,0,1,0,1.627,0v-7.321h2.44a.813.813,0,1,0,0-1.627H171.48A.814.814,0,0,0,170.667,359.213Z" transform="translate(-154.399 -324.237)" fill="#fff"/>
        <path id="Path_128" data-name="Path 128" d="M409.6,261.694a.814.814,0,0,0,.813.813h3.254a.814.814,0,0,0,.813-.813v-4.88a.814.814,0,0,0-.813-.813h-3.254a.814.814,0,0,0-.813.813Zm1.627-4.067h1.627v3.254h-1.627Z" transform="translate(-370.556 -231.598)" fill="#fff"/>
        <path id="Path_129" data-name="Path 129" d="M158.5,0H137.347a.814.814,0,0,0-.813.813v42.3a.813.813,0,0,0,1.627,0V1.627h19.522V43.111a.813.813,0,1,0,1.627,0V.813A.814.814,0,0,0,158.5,0Z" transform="translate(-123.519)" fill="#fff"/>
      </g>
    </g>
  </g>
</svg>
