<svg xmlns="http://www.w3.org/2000/svg" xmlns:xlink="http://www.w3.org/1999/xlink" width="2040" height="504.2" viewBox="0 0 2040 504.2"><defs><style>.a{fill:url(#a);}.b{filter:url(#b);}</style><linearGradient id="a" x1="0.5" x2="0.5" y2="1" gradientUnits="objectBoundingBox"><stop offset="0" stop-color="#a50068"/><stop offset="1" stop-color="#d900a5"/></linearGradient><filter id="b" x="0" y="0" width="2040" height="504.2" filterUnits="userSpaceOnUse"><feOffset dy="-4" input="SourceAlpha"/><feGaussianBlur stdDeviation="18.5" result="c"/><feFlood flood-opacity="0.212"/><feComposite operator="in" in2="c"/><feComposite in="SourceGraphic"/></filter></defs><g class="b" transform="matrix(1, 0, 0, 1, 0, 0)"><path class="a" d="M18240,842.652s177.2-89.233,536.2-72.473,550.2,70.348,814.2,85.22,307.4-67.279,435.6-67.279,143,54.532,143,54.532V563.62s-83.916-18.8-231.8,50.282c-80.176,37.455-246.8,149.2-422.8,140.7-244.5,0-529.211-125.826-785.6-190.979-132.891-33.771-260.182-10.38-352.8-27.384-80.973-14.866-136-72.237-136-72.237V842.652" transform="translate(-18184.5 -404.5)"/></g></svg>