<svg xmlns="http://www.w3.org/2000/svg" xmlns:xlink="http://www.w3.org/1999/xlink" width="120" height="120" viewBox="0 0 120 120">
  <defs>
    <linearGradient id="linear-gradient" x1="0.5" x2="0.5" y2="1" gradientUnits="objectBoundingBox">
      <stop offset="0" stop-color="#a50068"/>
      <stop offset="1" stop-color="#d900a5"/>
    </linearGradient>
  </defs>
  <g id="Students" transform="translate(-323 -908)">
    <path id="Path_1220" data-name="Path 1220" d="M60,0A60,60,0,1,1,0,60,60,60,0,0,1,60,0Z" transform="translate(323 908)" fill="url(#linear-gradient)"/>
    <g id="Ellipse_101" data-name="Ellipse 101" transform="translate(334 919)" fill="none" stroke="#fff" stroke-width="1">
      <circle cx="49" cy="49" r="49" stroke="none"/>
      <circle cx="49" cy="49" r="48.5" fill="none"/>
    </g>
    <g id="graduated" transform="translate(1007.809 2152.254)">
      <path id="Path_111" data-name="Path 111" d="M94.034,38.8l-3.486-1.023-7.583-4.953V31.689A10.093,10.093,0,0,0,86.948,24.6a2.317,2.317,0,0,0,1.945-2.284V19.195c0-.012,0-.024,0-.036V15.205a1.715,1.715,0,0,0,.717-1.4V10.188L94.842,9.3a1.855,1.855,0,0,0,.251-3.6L77.45.088a1.846,1.846,0,0,0-1.125,0L58.682,5.7A1.862,1.862,0,0,0,58.1,8.938v4.731h-.043a1.8,1.8,0,0,0-1.8,1.8v2.348L55.1,24.646a1.937,1.937,0,0,0,1.909,2.261h3.938a1.937,1.937,0,0,0,1.909-2.262l-1.163-6.826V15.471a1.8,1.8,0,0,0-1.8-1.8h-.043V9.451l4.326.737v3.617a1.717,1.717,0,0,0,.714,1.4l0,3.992v3.121A2.317,2.317,0,0,0,66.83,24.6a10.094,10.094,0,0,0,3.98,7.086v1.14l-7.582,4.952L59.746,38.8a8.846,8.846,0,0,0-6.358,8.493v2.593a.87.87,0,1,0,1.74,0V47.293a7.15,7.15,0,0,1,5.108-6.823l3.245-.953,12.964,7.7a.88.88,0,0,0,.889,0l12.965-7.7,3.245.953a7.15,7.15,0,0,1,5.108,6.823v8.4A1.957,1.957,0,0,1,96.7,57.65H92.863V53.9a.87.87,0,0,0-1.74,0v3.75H62.652V53.9a.87.87,0,0,0-1.74,0v3.75H57.081A1.957,1.957,0,0,1,55.127,55.7V53.953a.87.87,0,1,0-1.74,0V55.7a3.7,3.7,0,0,0,3.694,3.694H96.7a3.7,3.7,0,0,0,3.694-3.694v-8.4A8.847,8.847,0,0,0,94.034,38.8ZM60.943,25.168H57.005a.2.2,0,0,1-.194-.229l1.052-6.175h2.221l1.052,6.175A.2.2,0,0,1,60.943,25.168Zm-.994-9.7v1.552H58V15.471a.062.062,0,0,1,.062-.062h1.826A.062.062,0,0,1,59.949,15.471ZM73.778,43.286l.346.532-8.882-5.277,5.638-3.682A18.274,18.274,0,0,0,73.778,43.286Zm-.006-3.755a22.37,22.37,0,0,0,6.235,0,16.615,16.615,0,0,1-1.464,2.807l-1.653,2.541-1.653-2.541A16.616,16.616,0,0,1,73.772,39.531ZM80,43.286a18.272,18.272,0,0,0,2.9-8.428l5.638,3.682-8.882,5.278Zm5.089-27.757h2.062v2.8H86.128a1.04,1.04,0,0,1-1.039-1.039V15.529ZM59.21,7.357,76.853,1.745a.114.114,0,0,1,.07,0L94.566,7.357a.1.1,0,0,1,.08.118c-.006.09-.058.1-.1.106l-5.833.994L86.527,8.3a.87.87,0,1,0-.213,1.727l1.556.192v3.567H65.91V10.223l9-1.114a16.115,16.115,0,0,1,3.951,0l3.407.421A.87.87,0,1,0,82.484,7.8l-3.407-.421a17.847,17.847,0,0,0-4.378,0L65.06,8.575l-5.835-.994c-.038-.006-.089-.015-.1-.106a.1.1,0,0,1,.08-.118Zm7.415,10.967v-2.8h2.065v1.757a1.04,1.04,0,0,1-1.039,1.039H66.625Zm1.915,5.828a1.348,1.348,0,0,0-1.34-1.263.575.575,0,0,1-.574-.574V20.064H67.65a2.782,2.782,0,0,0,2.778-2.778V15.529H83.35v1.757a2.782,2.782,0,0,0,2.778,2.778h1.025v2.251a.575.575,0,0,1-.574.574,1.348,1.348,0,0,0-1.34,1.263,8.367,8.367,0,0,1-16.7,0Zm8.35,9.574a10.041,10.041,0,0,0,4.336-.983v.551a16.58,16.58,0,0,1-.587,4.37,20.542,20.542,0,0,1-7.5,0,16.579,16.579,0,0,1-.587-4.37c0-.018,0-.036,0-.055s0-.007,0-.011v-.488a10.043,10.043,0,0,0,4.34.985Z" transform="translate(-702.195 -1214.254)" fill="#fff"/>
    </g>
  </g>
</svg>
