<svg xmlns="http://www.w3.org/2000/svg" xmlns:xlink="http://www.w3.org/1999/xlink" width="120" height="120" viewBox="0 0 120 120">
  <defs>
    <linearGradient id="linear-gradient" x1="0.5" y1="1" x2="0.5" gradientUnits="objectBoundingBox">
      <stop offset="0" stop-color="#9131f6"/>
      <stop offset="1" stop-color="#453cd6"/>
    </linearGradient>
  </defs>
  <g id="Tutors" transform="translate(-323 -908)">
    <path id="Path_1220" data-name="Path 1220" d="M60,120A60,60,0,1,0,0,60,60,60,0,0,0,60,120Z" transform="translate(323 908)" fill="url(#linear-gradient)"/>
    <g id="Ellipse_101" data-name="Ellipse 101" transform="translate(334 919)" fill="none" stroke="#fff" stroke-width="1">
      <circle cx="49" cy="49" r="49" stroke="none"/>
      <circle cx="49" cy="49" r="48.5" fill="none"/>
    </g>
    <g id="presentation" transform="translate(356.996 942)">
      <g id="Group_13" data-name="Group 13" transform="translate(2.597)">
        <g id="Group_12" data-name="Group 12">
          <path id="Path_130" data-name="Path 130" d="M33.383,0a7.774,7.774,0,1,0,7.774,7.774A7.783,7.783,0,0,0,33.383,0Zm0,12.957a5.182,5.182,0,1,1,5.182-5.182A5.182,5.182,0,0,1,33.383,12.957Z" transform="translate(-25.609)" fill="#fff"/>
        </g>
      </g>
      <g id="Group_15" data-name="Group 15" transform="translate(20.736 12.956)">
        <g id="Group_14" data-name="Group 14">
          <path id="Path_131" data-name="Path 131" d="M233.313,128H207.4a2.591,2.591,0,0,0-2.591,2.591v1.979l2.591,1.3v-3.274h25.912V151.32H207.4v-3.08l-2.591-.647v3.727a2.591,2.591,0,0,0,2.591,2.591h10.669l-6.6,10.995a1.3,1.3,0,0,0,2.222,1.331l5.366-8.945v8.279a1.3,1.3,0,0,0,2.591,0v-8.279l5.367,8.944a1.3,1.3,0,0,0,1.111.63,1.271,1.271,0,0,0,.666-.185,1.293,1.293,0,0,0,.446-1.777l-6.6-10.995h10.668a2.591,2.591,0,0,0,2.591-2.591V130.591A2.591,2.591,0,0,0,233.313,128Z" transform="translate(-204.809 -128)" fill="#fff"/>
        </g>
      </g>
      <g id="Group_17" data-name="Group 17" transform="translate(0.006 18.139)">
        <g id="Group_16" data-name="Group 16" transform="translate(0)">
          <path id="Path_132" data-name="Path 132" d="M45.3,181.435a1.285,1.285,0,0,0-1.6-.888l-15.989,4.568a2.587,2.587,0,0,0-.634-.459l-10.365-5.182a2.6,2.6,0,0,0-1.159-.274H5.189a2.592,2.592,0,0,0-2.55,2.127L.048,195.579a2.591,2.591,0,0,0,2.55,3.055H4.253L5.2,210.5a2.59,2.59,0,0,0,2.583,2.386h5.182a2.591,2.591,0,0,0,2.576-2.3L17.8,190.208l7.489,1.872a2.592,2.592,0,0,0,3.219-2.514v-1.984l15.9-4.544A1.292,1.292,0,0,0,45.3,181.435Zm-19.383,8.13-10.365-2.591-2.591,23.32H7.78L6.647,196.043H2.6l2.591-14.251H9.076v7.883a1.3,1.3,0,1,0,2.591,0v-7.883h3.887l10.365,5.182Z" transform="translate(-0.006 -179.201)" fill="#fff"/>
        </g>
      </g>
    </g>
  </g>
</svg>
