<svg xmlns="http://www.w3.org/2000/svg" width="64" height="64" viewBox="0 0 64 64">
  <g id="Access_your_Student" transform="translate(-273.905 -1668.885)">
    <path id="Path_4168" data-name="Path 4168" d="M289.9,1723.564a11.929,11.929,0,0,1,3.734-8.7h0c-.118-.04-.237-.079-.356-.114l-2.874-.862a3.75,3.75,0,0,1-6,0l-2.873.862a10,10,0,0,0-7.127,9.578v4.56h15.5Z" fill="#64b5f6"/>
    <path id="Path_4169" data-name="Path 4169" d="M330.279,1714.747l-2.874-.862a3.75,3.75,0,0,1-6,0l-2.873.862c-.12.035-.239.074-.356.114h-.005a11.929,11.929,0,0,1,3.734,8.7v5.321h15.5v-4.56A10,10,0,0,0,330.279,1714.747Z" fill="#64b5f6"/>
    <line id="Line_148" data-name="Line 148" y2="5.142" transform="translate(296.905 1707.506)" fill="none" stroke="#37474f" stroke-linecap="round" stroke-linejoin="round" stroke-width="1"/>
    <path id="Path_4170" data-name="Path 4170" d="M293.635,1714.861c-.118-.04-.237-.079-.356-.114l-2.874-.862h0a3.75,3.75,0,0,1-6,0h0l-2.873.862a10,10,0,0,0-7.127,9.578v4.56" fill="none" stroke="#37474f" stroke-linecap="round" stroke-linejoin="round" stroke-width="1"/>
    <circle id="Ellipse_230" data-name="Ellipse 230" cx="1" cy="1" r="1" transform="translate(289.905 1701.385)" fill="#37474f"/>
    <circle id="Ellipse_231" data-name="Ellipse 231" cx="1" cy="1" r="1" transform="translate(282.905 1701.385)" fill="#37474f"/>
    <line id="Line_149" data-name="Line 149" y1="4" transform="translate(280.405 1724.885)" fill="none" stroke="#37474f" stroke-linecap="round" stroke-linejoin="round" stroke-width="1"/>
    <path id="Path_4171" data-name="Path 4171" d="M280.4,1699.023v2.862a2,2,0,0,0,0,4v.5a5,5,0,0,0,5,5h4a5,5,0,0,0,5-5v-.5a2,2,0,0,0,1.648-.866" fill="none" stroke="#37474f" stroke-linecap="round" stroke-linejoin="round" stroke-width="1"/>
    <path id="Path_4172" data-name="Path 4172" d="M287.4,1708.385a3,3,0,0,0,3-3h-6A3,3,0,0,0,287.4,1708.385Z" fill="none" stroke="#37474f" stroke-linecap="round" stroke-linejoin="round" stroke-width="1"/>
    <line id="Line_150" data-name="Line 150" y1="2.5" transform="translate(284.405 1711.385)" fill="#ffca28" stroke="#37474f" stroke-linecap="round" stroke-linejoin="round" stroke-width="1"/>
    <line id="Line_151" data-name="Line 151" y1="2.5" transform="translate(290.405 1711.385)" fill="#ffca28" stroke="#37474f" stroke-linecap="round" stroke-linejoin="round" stroke-width="1"/>
    <path id="Path_4173" data-name="Path 4173" d="M337.4,1728.885v-4.56a10,10,0,0,0-7.126-9.578l-2.874-.862h0a3.75,3.75,0,0,1-6,0h0l-2.873.862c-.12.035-.239.074-.356.114" fill="none" stroke="#37474f" stroke-linecap="round" stroke-linejoin="round" stroke-width="1"/>
    <circle id="Ellipse_232" data-name="Ellipse 232" cx="1" cy="1" r="1" transform="translate(326.905 1701.885)" fill="#37474f"/>
    <circle id="Ellipse_233" data-name="Ellipse 233" cx="1" cy="1" r="1" transform="translate(319.905 1701.885)" fill="#37474f"/>
    <line id="Line_152" data-name="Line 152" y1="4" transform="translate(331.405 1724.885)" fill="none" stroke="#37474f" stroke-linecap="round" stroke-linejoin="round" stroke-width="1"/>
    <path id="Path_4174" data-name="Path 4174" d="M315.76,1705.023a2,2,0,0,0,1.645.862v.5a5,5,0,0,0,5,5h4a5,5,0,0,0,5-5v-.5a2,2,0,0,0,0-4" fill="none" stroke="#37474f" stroke-linecap="round" stroke-linejoin="round" stroke-width="1"/>
    <path id="Path_4175" data-name="Path 4175" d="M324.4,1708.135a2.5,2.5,0,0,0,2.5-2.5h-5A2.5,2.5,0,0,0,324.4,1708.135Z" fill="none" stroke="#37474f" stroke-linecap="round" stroke-linejoin="round" stroke-width="1"/>
    <line id="Line_153" data-name="Line 153" y1="2.5" transform="translate(321.405 1711.385)" fill="#ffca28" stroke="#37474f" stroke-linecap="round" stroke-linejoin="round" stroke-width="1"/>
    <line id="Line_154" data-name="Line 154" y1="2.5" transform="translate(327.405 1711.385)" fill="#ffca28" stroke="#37474f" stroke-linecap="round" stroke-linejoin="round" stroke-width="1"/>
    <path id="Path_4176" data-name="Path 4176" d="M319.9,1732.385v-8.82a10,10,0,0,0-5.528-8.944l-4.472-2.236h0a4.377,4.377,0,0,1-8,0h0l-4.472,2.236a10,10,0,0,0-5.528,8.944v8.82" fill="#64b5f6" stroke="#37474f" stroke-linecap="round" stroke-linejoin="round" stroke-width="1"/>
    <circle id="Ellipse_234" data-name="Ellipse 234" cx="1" cy="1" r="1" transform="translate(308.405 1698.885)" fill="#37474f"/>
    <circle id="Ellipse_235" data-name="Ellipse 235" cx="1" cy="1" r="1" transform="translate(301.405 1698.885)" fill="#37474f"/>
    <path id="Path_4177" data-name="Path 4177" d="M311.4,1691.885v5a2.5,2.5,0,0,0,2.5,2.5h0v-5a2.5,2.5,0,0,0-2.5-2.5Z" fill="#ef5350" stroke="#37474f" stroke-linecap="round" stroke-linejoin="round" stroke-width="1"/>
    <path id="Path_4178" data-name="Path 4178" d="M310,1688.385H303.9a7.5,7.5,0,0,0-7.5,7.5v1.5l5.022-.457a15,15,0,0,0,9.931-5.06l.145-.166A2,2,0,0,0,310,1688.385Z" fill="#ef5350" stroke="#37474f" stroke-linecap="round" stroke-linejoin="round" stroke-width="1"/>
    <path id="Path_4179" data-name="Path 4179" d="M328.9,1694.385v5a2.5,2.5,0,0,0,2.5,2.5h0v-5a2.5,2.5,0,0,0-2.5-2.5Z" fill="none" stroke="#37474f" stroke-linecap="round" stroke-linejoin="round" stroke-width="1"/>
    <path id="Path_4180" data-name="Path 4180" d="M327.24,1693.385H322.4a5,5,0,0,0-5,5v2l4.939-.872a9.743,9.743,0,0,0,5.851-3.427l.206-.251A1.5,1.5,0,0,0,327.24,1693.385Z" fill="none" stroke="#37474f" stroke-linecap="round" stroke-linejoin="round" stroke-width="1"/>
    <path id="Path_4181" data-name="Path 4181" d="M297.9,1697.249v2.136a2,2,0,0,0,0,4h0a7,7,0,0,0,7,7h2a7,7,0,0,0,7-7h0a2,2,0,0,0,0-4" fill="none" stroke="#37474f" stroke-linecap="round" stroke-linejoin="round" stroke-width="1"/>
    <path id="Path_4182" data-name="Path 4182" d="M280.4,1699.023c.047-.037.094-.075.139-.114l2.361-2.024,1.727,1.151a5,5,0,0,0,5.547,0l1.726-1.151,2.361,2.024a3.777,3.777,0,0,0,.338.24" fill="none" stroke="#37474f" stroke-linecap="round" stroke-linejoin="round" stroke-width="1"/>
    <path id="Path_4183" data-name="Path 4183" d="M294.8,1693.184a7.472,7.472,0,0,0-5.4-2.3h-4a7.5,7.5,0,0,0-7.5,7.5v15.763" fill="none" stroke="#37474f" stroke-linecap="round" stroke-linejoin="round" stroke-width="1"/>
    <path id="Path_4184" data-name="Path 4184" d="M306.9,1710.385h-2a6.965,6.965,0,0,1-3-.683v2.682h0a4.378,4.378,0,0,0,8,0h0V1709.7A6.962,6.962,0,0,1,306.9,1710.385Z" fill="none" stroke="#37474f" stroke-linecap="round" stroke-linejoin="round" stroke-width="1"/>
    <path id="Path_4185" data-name="Path 4185" d="M305.9,1706.385a3,3,0,0,0,3-3h-6A3,3,0,0,0,305.9,1706.385Z" fill="none" stroke="#37474f" stroke-linecap="round" stroke-linejoin="round" stroke-width="1"/>
    <line id="Line_155" data-name="Line 155" y1="7.5" transform="translate(296.905 1724.885)" fill="none" stroke="#37474f" stroke-linecap="round" stroke-linejoin="round" stroke-width="1"/>
    <line id="Line_156" data-name="Line 156" y1="7.5" transform="translate(314.905 1724.885)" fill="none" stroke="#37474f" stroke-linecap="round" stroke-linejoin="round" stroke-width="1"/>
    <rect id="Rectangle_357" data-name="Rectangle 357" width="40" height="12" rx="1" transform="translate(285.906 1669.385)" fill="#ffca28" stroke="#37474f" stroke-linecap="round" stroke-linejoin="round" stroke-width="1"/>
    <path id="Path_4186" data-name="Path 4186" d="M285.9,1683.385a2,2,0,0,1-2-2v-8h-7l4,6-4,6h16v-2Z" fill="#ffca28"/>
    <path id="Path_4187" data-name="Path 4187" d="M283.905,1673.385h-7l4,6-4,6h16v-2" fill="none" stroke="#37474f" stroke-linecap="round" stroke-linejoin="round" stroke-width="1"/>
    <path id="Path_4188" data-name="Path 4188" d="M325.906,1683.385a2,2,0,0,0,2-2v-8h7l-4,6,4,6h-16v-2Z" fill="#ffca28"/>
    <path id="Path_4189" data-name="Path 4189" d="M327.906,1673.385h7l-4,6,4,6h-16v-2" fill="none" stroke="#37474f" stroke-linecap="round" stroke-linejoin="round" stroke-width="1"/>
  </g>
</svg>
