<svg xmlns="http://www.w3.org/2000/svg" width="60" height="64" viewBox="0 0 60 64">
  <g id="All_in_Teaching_app" transform="translate(-563.905 -1956.884)">
    <path id="Path_4228" data-name="Path 4228" d="M596.906,1994.384l21-21h-48l21,21Z" fill="#ffca28"/>
    <path id="Path_4229" data-name="Path 4229" d="M587.865,2007.592c-.111-.076-.213-.161-.316-.246H570.405a2.5,2.5,0,0,1-2.5-2.5v-28.929l-.571-.571h-.429a2.5,2.5,0,0,0-2.5,2.5v32a2.5,2.5,0,0,0,2.5,2.5h20.96Z" fill="#64b5f6"/>
    <path id="Path_4230" data-name="Path 4230" d="M567.905,1975.917l-.571-.571h-.429a2.5,2.5,0,0,0-2.5,2.5v32a2.5,2.5,0,0,0,2.5,2.5h20.96" fill="none" stroke="#37474f" stroke-linecap="round" stroke-linejoin="round" stroke-width="1"/>
    <line id="Line_180" data-name="Line 180" y1="3" transform="translate(567.905 1978.917)" fill="none" stroke="#37474f" stroke-linecap="round" stroke-linejoin="round" stroke-width="1"/>
    <path id="Path_4231" data-name="Path 4231" d="M587.549,2007.346H570.405a2.5,2.5,0,0,1-2.5-2.5v-19.929" fill="none" stroke="#37474f" stroke-linecap="round" stroke-linejoin="round" stroke-width="1"/>
    <path id="Path_4232" data-name="Path 4232" d="M620.905,1975.346h-.429l-.571.571v28.929a2.5,2.5,0,0,1-2.5,2.5H600.264a4.633,4.633,0,0,1-.4.3v4.7h21.04a2.5,2.5,0,0,0,2.5-2.5v-32A2.5,2.5,0,0,0,620.905,1975.346Z" fill="#64b5f6"/>
    <path id="Path_4233" data-name="Path 4233" d="M599.865,2012.346h21.04a2.5,2.5,0,0,0,2.5-2.5v-32a2.5,2.5,0,0,0-2.5-2.5h-.429l-.571.571v28.929a2.5,2.5,0,0,1-2.5,2.5H600.264" fill="none" stroke="#37474f" stroke-linecap="round" stroke-linejoin="round" stroke-width="1"/>
    <path id="Path_4234" data-name="Path 4234" d="M604.905,1970.346h12.5a2.5,2.5,0,0,1,2.5,2.5v3.071" fill="none" stroke="#37474f" stroke-linecap="round" stroke-linejoin="round" stroke-width="1"/>
    <line id="Line_181" data-name="Line 181" x2="14" transform="translate(572.905 1988.384)" fill="#fff" stroke="#37474f" stroke-linecap="round" stroke-linejoin="round" stroke-width="1"/>
    <line id="Line_182" data-name="Line 182" x2="13" transform="translate(572.905 1993.384)" fill="#fff" stroke="#37474f" stroke-linecap="round" stroke-linejoin="round" stroke-width="1"/>
    <line id="Line_183" data-name="Line 183" x2="13" transform="translate(572.905 1998.384)" fill="#fff" stroke="#37474f" stroke-linecap="round" stroke-linejoin="round" stroke-width="1"/>
    <line id="Line_184" data-name="Line 184" x2="14" transform="translate(600.905 1988.384)" fill="#fff" stroke="#37474f" stroke-linecap="round" stroke-linejoin="round" stroke-width="1"/>
    <line id="Line_185" data-name="Line 185" x2="14" transform="translate(572.905 1983.384)" fill="#fff" stroke="#37474f" stroke-linecap="round" stroke-linejoin="round" stroke-width="1"/>
    <line id="Line_186" data-name="Line 186" x2="14" transform="translate(600.905 1983.384)" fill="#fff" stroke="#37474f" stroke-linecap="round" stroke-linejoin="round" stroke-width="1"/>
    <line id="Line_187" data-name="Line 187" x2="14" transform="translate(572.905 1978.384)" fill="#fff" stroke="#37474f" stroke-linecap="round" stroke-linejoin="round" stroke-width="1"/>
    <line id="Line_188" data-name="Line 188" x2="14" transform="translate(600.905 1978.384)" fill="#fff" stroke="#37474f" stroke-linecap="round" stroke-linejoin="round" stroke-width="1"/>
    <line id="Line_189" data-name="Line 189" x2="13" transform="translate(601.905 1993.384)" fill="#fff" stroke="#37474f" stroke-linecap="round" stroke-linejoin="round" stroke-width="1"/>
    <line id="Line_190" data-name="Line 190" x2="13" transform="translate(601.905 1998.384)" fill="#fff" stroke="#37474f" stroke-linecap="round" stroke-linejoin="round" stroke-width="1"/>
    <path id="Path_4235" data-name="Path 4235" d="M587.567,1970.346H570.405a2.5,2.5,0,0,0-2.5,2.5v3.071" fill="none" stroke="#37474f" stroke-linecap="round" stroke-linejoin="round" stroke-width="1"/>
    <path id="Path_4236" data-name="Path 4236" d="M619.905,1975.917v-3.071a2.5,2.5,0,0,0-2.5-2.5H600.241" fill="none" stroke="#37474f" stroke-linecap="round" stroke-linejoin="round" stroke-width="1"/>
    <line id="Line_191" data-name="Line 191" y2="17.038" transform="translate(593.905 1975.346)" fill="none" stroke="#37474f" stroke-linecap="round" stroke-linejoin="round" stroke-width="1"/>
    <path id="Path_4237" data-name="Path 4237" d="M589.865,2020.384v-14h8v14" fill="none" stroke="#37474f" stroke-linecap="round" stroke-linejoin="round" stroke-width="1"/>
    <path id="Rectangle_361" data-name="Rectangle 361" d="M0,0H12a0,0,0,0,1,0,0V9.5A2.5,2.5,0,0,1,9.5,12h-7A2.5,2.5,0,0,1,0,9.5V0A0,0,0,0,1,0,0Z" transform="translate(587.905 1994.384)" fill="none" stroke="#37474f" stroke-linecap="round" stroke-linejoin="round" stroke-width="1"/>
    <rect id="Rectangle_362" data-name="Rectangle 362" width="2" height="4.5" rx="1" transform="translate(592.865 2011.321)" fill="#ef5350" stroke="#37474f" stroke-linecap="round" stroke-linejoin="round" stroke-width="1"/>
    <line id="Line_192" data-name="Line 192" x2="12" transform="translate(587.905 1996.884)" fill="none" stroke="#37474f" stroke-linecap="round" stroke-linejoin="round" stroke-width="1"/>
    <path id="Path_4238" data-name="Path 4238" d="M598.905,1967.384a5,5,0,0,0-9.9-1.017,4.953,4.953,0,0,0,1.214,4.372,4.22,4.22,0,0,1,1.185,2.848v.3h5v-.3a4.259,4.259,0,0,1,1.2-2.861A4.927,4.927,0,0,0,598.905,1967.384Z" fill="#ffca28" stroke="#37474f" stroke-linecap="round" stroke-linejoin="round" stroke-width="1"/>
    <path id="Rectangle_363" data-name="Rectangle 363" d="M0,0H5A0,0,0,0,1,5,0V2.5A2.5,2.5,0,0,1,2.5,5h0A2.5,2.5,0,0,1,0,2.5V0A0,0,0,0,1,0,0Z" transform="translate(591.405 1973.884)" fill="#fff" stroke="#37474f" stroke-linecap="round" stroke-linejoin="round" stroke-width="1"/>
    <line id="Line_193" data-name="Line 193" x2="5" transform="translate(591.405 1976.384)" fill="none" stroke="#37474f" stroke-linecap="round" stroke-linejoin="round" stroke-width="1"/>
    <line id="Line_194" data-name="Line 194" y2="2" transform="translate(593.905 1957.384)" fill="none" stroke="#37474f" stroke-linecap="round" stroke-linejoin="round" stroke-width="1"/>
    <line id="Line_195" data-name="Line 195" x2="1.414" y2="1.414" transform="translate(587.491 1959.677)" fill="none" stroke="#37474f" stroke-linecap="round" stroke-linejoin="round" stroke-width="1"/>
    <line id="Line_196" data-name="Line 196" x1="1.414" y2="1.414" transform="translate(598.905 1959.677)" fill="none" stroke="#37474f" stroke-linecap="round" stroke-linejoin="round" stroke-width="1"/>
    <line id="Line_197" data-name="Line 197" y1="5" transform="translate(593.905 1968.884)" fill="none" stroke="#37474f" stroke-linecap="round" stroke-linejoin="round" stroke-width="1"/>
  </g>
</svg>
