<svg xmlns="http://www.w3.org/2000/svg" width="36" height="36" viewBox="0 0 36 36">
  <g id="Get_Started" transform="translate(-373 -731)">
    <circle id="Ellipse_228" data-name="Ellipse 228" cx="18" cy="18" r="18" transform="translate(373 731)" fill="#fff"/>
    <path id="Icon_awesome-arrow-right" data-name="Icon awesome-arrow-right" d="M7.132,3.742l.831-.831a.9.9,0,0,1,1.269,0l7.278,7.274a.9.9,0,0,1,0,1.269L9.232,18.732a.9.9,0,0,1-1.269,0L7.132,17.9a.9.9,0,0,1,.015-1.284l4.511-4.3H.9a.9.9,0,0,1-.9-.9v-1.2a.9.9,0,0,1,.9-.9H11.658l-4.511-4.3A.893.893,0,0,1,7.132,3.742Z" transform="translate(382.113 738.178)" fill="#5939de"/>
  </g>
</svg>
