<svg xmlns="http://www.w3.org/2000/svg" xmlns:xlink="http://www.w3.org/1999/xlink" width="1684" height="758" viewBox="0 0 1684 758">
  <defs>
    <filter id="Ellipse_294" x="988" y="256" width="61" height="61" filterUnits="userSpaceOnUse">
      <feOffset dy="3" input="SourceAlpha"/>
      <feGaussianBlur stdDeviation="3" result="blur"/>
      <feFlood flood-opacity="0.161"/>
      <feComposite operator="in" in2="blur"/>
      <feComposite in="SourceGraphic"/>
    </filter>
    <filter id="Ellipse_295" x="988" y="504" width="61" height="61" filterUnits="userSpaceOnUse">
      <feOffset dy="3" input="SourceAlpha"/>
      <feGaussianBlur stdDeviation="3" result="blur-2"/>
      <feFlood flood-opacity="0.161"/>
      <feComposite operator="in" in2="blur-2"/>
      <feComposite in="SourceGraphic"/>
    </filter>
    <filter id="Path_4344" x="559.153" y="256" width="61" height="61" filterUnits="userSpaceOnUse">
      <feOffset dy="3" input="SourceAlpha"/>
      <feGaussianBlur stdDeviation="3" result="blur-3"/>
      <feFlood flood-opacity="0.161"/>
      <feComposite operator="in" in2="blur-3"/>
      <feComposite in="SourceGraphic"/>
    </filter>
    <filter id="Ellipse_295-2" x="559.153" y="504" width="61" height="61" filterUnits="userSpaceOnUse">
      <feOffset dy="3" input="SourceAlpha"/>
      <feGaussianBlur stdDeviation="3" result="blur-4"/>
      <feFlood flood-opacity="0.161"/>
      <feComposite operator="in" in2="blur-4"/>
      <feComposite in="SourceGraphic"/>
    </filter>
  </defs>
  <g id="Life_Circle" transform="translate(-156 -2370)">
    <g id="Ellipse_302" data-name="Ellipse 302" transform="translate(774 2587)" fill="#fff" stroke="#707070" stroke-width="1">
      <circle cx="186" cy="186" r="186" stroke="none"/>
      <circle cx="186" cy="186" r="185.5" fill="none"/>
    </g>
    <g id="Ellipse_292" data-name="Ellipse 292" transform="translate(710 2522)" fill="none" stroke="#fff" stroke-linecap="round" stroke-width="5" stroke-dasharray="10">
      <ellipse cx="249.5" cy="252" rx="249.5" ry="252" stroke="none"/>
      <ellipse cx="249.5" cy="252" rx="247" ry="249.5" fill="none"/>
    </g>
    <g id="Group_2128" data-name="Group 2128" transform="translate(-509 -216)">
      <path id="Subtraction_1" data-name="Subtraction 1" d="M-13353.5,732a207.452,207.452,0,0,1-41.012-4.084,204.311,204.311,0,0,1-38.2-11.712,204.307,204.307,0,0,1-34.568-18.532,204.451,204.451,0,0,1-30.118-24.544,203.074,203.074,0,0,1-24.85-29.748,200.312,200.312,0,0,1-18.763-34.143,198.185,198.185,0,0,1-11.857-37.73A200.067,200.067,0,0,1-13557,531a200.065,200.065,0,0,1,4.135-40.508,198.179,198.179,0,0,1,11.857-37.729,200.309,200.309,0,0,1,18.763-34.142,203.06,203.06,0,0,1,24.85-29.747,204.462,204.462,0,0,1,30.118-24.544,204.324,204.324,0,0,1,34.568-18.532,204.3,204.3,0,0,1,38.2-11.712A207.466,207.466,0,0,1-13353.5,330a207.483,207.483,0,0,1,41.013,4.083,204.316,204.316,0,0,1,38.2,11.712,204.324,204.324,0,0,1,34.568,18.532,204.536,204.536,0,0,1,30.117,24.544,203.082,203.082,0,0,1,24.849,29.747,200.252,200.252,0,0,1,18.762,34.142,198.042,198.042,0,0,1,11.857,37.729A199.994,199.994,0,0,1-13150,531a200,200,0,0,1-4.135,40.508,198.045,198.045,0,0,1-11.857,37.73,200.258,200.258,0,0,1-18.762,34.143,203.083,203.083,0,0,1-24.849,29.748,204.45,204.45,0,0,1-30.117,24.544,204.307,204.307,0,0,1-34.568,18.532,204.31,204.31,0,0,1-38.2,11.712A207.469,207.469,0,0,1-13353.5,732Zm0-368c-93.464,0-169.5,74.915-169.5,167s76.038,167,169.5,167,169.5-74.917,169.5-167S-13260.037,364-13353.5,364Z" transform="translate(14822 2457.998)" fill="#453cd6"/>
      <path id="Intersection_2" data-name="Intersection 2" d="M-13208.08,616.726A164.174,164.174,0,0,0-13184,531a164.162,164.162,0,0,0-23.948-85.509l28.954-17.954a200.082,200.082,0,0,1,13,25.222,197.869,197.869,0,0,1,11.857,37.732A199.919,199.919,0,0,1-13150,531a199.944,199.944,0,0,1-4.134,40.508,197.913,197.913,0,0,1-11.857,37.729,200.174,200.174,0,0,1-13.984,26.819Z" transform="translate(14822 2458)" fill="#0089b3"/>
      <path id="Intersection_1" data-name="Intersection 1" d="M-13529.205,463.458q3.3-5.57,6.96-10.917a202.94,202.94,0,0,1,24.851-29.747,204.292,204.292,0,0,1,30.117-24.545,204.445,204.445,0,0,1,34.568-18.533,204.3,204.3,0,0,1,38.2-11.711,207.578,207.578,0,0,1,41.012-4.083,207.566,207.566,0,0,1,41.013,4.083,204.163,204.163,0,0,1,38.2,11.711,204.359,204.359,0,0,1,34.571,18.533,204.522,204.522,0,0,1,30.114,24.545,203,203,0,0,1,24.851,29.747q3.083,4.507,5.918,9.181l-29.079,17.751a170.089,170.089,0,0,0-145.586-81.55,170.064,170.064,0,0,0-146.664,83.348Z" transform="translate(14822 2424.077)" fill="#6cac00"/>
      <path id="Intersection_3" data-name="Intersection 3" d="M-13394.511,727.914a204.3,204.3,0,0,1-38.2-11.711,204.449,204.449,0,0,1-34.568-18.533,204.294,204.294,0,0,1-30.117-24.545,202.942,202.942,0,0,1-24.851-29.747q-3.814-5.576-7.247-11.4l30.259-15.766A170.088,170.088,0,0,0-13353.5,698a170.088,170.088,0,0,0,145.056-80.683l28.321,18.974q-2.241,3.593-4.63,7.087a203,203,0,0,1-24.851,29.747,204.117,204.117,0,0,1-30.114,24.545,204.364,204.364,0,0,1-34.571,18.533,204.163,204.163,0,0,1-38.2,11.711A207.31,207.31,0,0,1-13353.5,732,207.322,207.322,0,0,1-13394.511,727.914Z" transform="translate(14822 2458)" fill="#01ccd2"/>
      <path id="Intersection_4" data-name="Intersection 4" d="M-13514.439,609.236a198.119,198.119,0,0,1-11.856-37.729,200.084,200.084,0,0,1-4.135-40.508,200.059,200.059,0,0,1,4.135-40.508,198.075,198.075,0,0,1,11.856-37.732,199.669,199.669,0,0,1,11.488-22.688l29.559,16.937A164.129,164.129,0,0,0-13496.431,531a164.125,164.125,0,0,0,24.165,85.864l-30.327,15.671A199.594,199.594,0,0,1-13514.439,609.236Z" transform="translate(14795.43 2458)" fill="#006c90"/>
    </g>
    <g id="Group_2129" data-name="Group 2129" transform="translate(0 80)">
      <g id="Path_4444" data-name="Path 4444" transform="translate(1245 2378)" fill="#fff">
        <path d="M 95.5 183.5 C 46.97662353515625 183.5 7.5 144.0233764648438 7.5 95.5 C 7.5 46.97662353515625 46.97662353515625 7.5 95.5 7.5 C 144.0233764648438 7.5 183.5 46.97662353515625 183.5 95.5 C 183.5 144.0233764648438 144.0233764648438 183.5 95.5 183.5 Z" stroke="none"/>
        <path d="M 95.5 15 C 51.11215209960938 15 15 51.11215209960938 15 95.5 C 15 139.8878479003906 51.11215209960938 176 95.5 176 C 139.8878479003906 176 176 139.8878479003906 176 95.5 C 176 51.11215209960938 139.8878479003906 15 95.5 15 M 95.5 0 C 148.2431945800781 0 191 42.75680541992188 191 95.5 C 191 148.2431945800781 148.2431945800781 191 95.5 191 C 42.75680541992188 191 0 148.2431945800781 0 95.5 C 0 42.75680541992188 42.75680541992188 0 95.5 0 Z" stroke="none" fill="#0089b3"/>
      </g>
      <path id="Path_4343" data-name="Path 4343" d="M14789.778,2172.205l-32.106,51.85h67.99Z" transform="translate(-13536 327.795)" fill="#0089b3"/>
      <g id="Group_2172" data-name="Group 2172" transform="translate(1034.595 2356.615)">
        <path id="Path_4445" data-name="Path 4445" d="M329.9,103.635h-20a1,1,0,0,0-1,1v7.126a1.981,1.981,0,0,1,.729.459,2,2,0,0,1,0,2.829l-.729.728v2.858a1,1,0,0,0,1,1h20a1,1,0,0,0,1-1v-14A1,1,0,0,0,329.9,103.635Z" fill="#64b5f6"/>
        <path id="Path_4446" data-name="Path 4446" d="M308.9,118.336v.3a1,1,0,0,0,1,1h20a1,1,0,0,0,1-1v-14a1,1,0,0,0-1-1h-20a1,1,0,0,0-1,1V109.7" fill="none" stroke="#37474f" stroke-linecap="round" stroke-linejoin="round" stroke-width="1"/>
        <line id="Line_204" data-name="Line 204" x2="14" transform="translate(312.905 108.135)" fill="none" stroke="#37474f" stroke-linecap="round" stroke-linejoin="round" stroke-width="1"/>
        <line id="Line_205" data-name="Line 205" x2="14" transform="translate(312.905 111.635)" fill="none" stroke="#37474f" stroke-linecap="round" stroke-linejoin="round" stroke-width="1"/>
        <line id="Line_206" data-name="Line 206" x2="7" transform="translate(312.905 115.135)" fill="none" stroke="#37474f" stroke-linecap="round" stroke-linejoin="round" stroke-width="1"/>
        <line id="Line_207" data-name="Line 207" y1="3.5" transform="translate(299.905 137.635)" fill="none" stroke="#37474f" stroke-linecap="round" stroke-linejoin="round" stroke-width="1"/>
        <line id="Line_208" data-name="Line 208" y2="3.5" transform="translate(311.905 137.635)" fill="none" stroke="#37474f" stroke-linecap="round" stroke-linejoin="round" stroke-width="1"/>
        <rect id="Rectangle_407" data-name="Rectangle 407" width="22" height="4" rx="1" transform="translate(294.905 143.135)" fill="none" stroke="#37474f" stroke-linecap="round" stroke-linejoin="round" stroke-width="1"/>
        <line id="Line_209" data-name="Line 209" x2="60" transform="translate(275.905 130.635)" fill="none" stroke="#37474f" stroke-linecap="round" stroke-linejoin="round" stroke-width="1"/>
        <circle id="Ellipse_303" data-name="Ellipse 303" cx="6" cy="6" r="6" transform="translate(284.905 101.635)" fill="none" stroke="#37474f" stroke-linecap="round" stroke-linejoin="round" stroke-width="1"/>
        <path id="Rectangle_408" data-name="Rectangle 408" d="M0,0H2A2,2,0,0,1,4,2V2A2,2,0,0,1,2,4H0A0,0,0,0,1,0,4V0A0,0,0,0,1,0,0Z" transform="translate(305.391 113.634) rotate(-45)" fill="none" stroke="#37474f" stroke-linecap="round" stroke-linejoin="round" stroke-width="1"/>
        <path id="Path_4447" data-name="Path 4447" d="M296.9,128.635v-9.344l2.829,2.829a2,2,0,0,0,2.829,0l5.656-5.657-2.828-2.828-4.242,4.242-2.7-2.7a5.279,5.279,0,0,0-3.733-1.546H294.4l-3.5,4-3.5-4h-1.22a5.28,5.28,0,0,0-5.28,5.28v9.72" fill="#ffca28" stroke="#37474f" stroke-linecap="round" stroke-linejoin="round" stroke-width="1"/>
        <line id="Line_210" data-name="Line 210" y2="5" transform="translate(290.905 117.635)" fill="none" stroke="#37474f" stroke-linecap="round" stroke-linejoin="round" stroke-width="1"/>
        <line id="Line_211" data-name="Line 211" y1="9.5" transform="translate(284.905 119.135)" fill="none" stroke="#37474f" stroke-linecap="round" stroke-linejoin="round" stroke-width="1"/>
        <path id="Path_4448" data-name="Path 4448" d="M275.9,110.635v20a5,5,0,0,0,5,5h50a5,5,0,0,0,5-5v-32a5,5,0,0,0-5-5h-2" fill="none" stroke="#37474f" stroke-linecap="round" stroke-linejoin="round" stroke-width="1"/>
        <line id="Line_212" data-name="Line 212" y2="3" transform="translate(275.905 104.635)" fill="none" stroke="#37474f" stroke-linecap="round" stroke-linejoin="round" stroke-width="1"/>
        <path id="Path_4449" data-name="Path 4449" d="M310.9,93.635h-30a5,5,0,0,0-5,5v3" fill="none" stroke="#37474f" stroke-linecap="round" stroke-linejoin="round" stroke-width="1"/>
        <circle id="Ellipse_304" data-name="Ellipse 304" cx="7" cy="7" r="7" transform="translate(312.905 86.635)" fill="#ef5350" stroke="#37474f" stroke-linecap="round" stroke-linejoin="round" stroke-width="1"/>
        <line id="Line_213" data-name="Line 213" x1="8.518" transform="translate(327.388 98.635)" fill="none" stroke="#37474f" stroke-linecap="round" stroke-linejoin="round" stroke-width="1"/>
        <line id="Line_214" data-name="Line 214" x1="36.518" transform="translate(275.905 98.635)" fill="none" stroke="#37474f" stroke-linecap="round" stroke-linejoin="round" stroke-width="1"/>
        <path id="Path_4450" data-name="Path 4450" d="M322.493,92.783l-3.592-2.21a1,1,0,0,0-1.524.851v4.421a1,1,0,0,0,1.524.852l3.592-2.211A1,1,0,0,0,322.493,92.783Z" fill="#fff" stroke="#37474f" stroke-linecap="round" stroke-linejoin="round" stroke-width="1"/>
      </g>
    </g>
    <g id="Group_2130" data-name="Group 2130" transform="translate(2959.984 695.339) rotate(64)">
      <g id="Ellipse_293" data-name="Ellipse 293" transform="translate(1245 2378)" fill="#fff" stroke="#01ccd2" stroke-width="15">
        <circle cx="95.5" cy="95.5" r="95.5" stroke="none"/>
        <circle cx="95.5" cy="95.5" r="88" fill="none"/>
      </g>
      <path id="Path_4343-2" data-name="Path 4343" d="M14789.778,2172.205l-32.106,51.85h67.99Z" transform="translate(-13536 327.795)" fill="#01ccd2"/>
      <g id="Group_2173" data-name="Group 2173" transform="matrix(0.438, -0.899, 0.899, 0.438, 971.734, 2634.498)">
        <path id="Path_4451" data-name="Path 4451" d="M316.644,242.885a4.5,4.5,0,0,1-3.738,2H307.13l-3.8,3.17a2.984,2.984,0,0,1-1.913.7,3.017,3.017,0,0,1-1.28-.288,2.973,2.973,0,0,1-1.727-2.717v-.864h-.5a4.5,4.5,0,0,1-3.738-2H275.906v32h60v-32Z" fill="#64b5f6"/>
        <line id="Line_215" data-name="Line 215" y1="3.5" transform="translate(299.906 281.885)" fill="none" stroke="#37474f" stroke-linecap="round" stroke-linejoin="round" stroke-width="1"/>
        <line id="Line_216" data-name="Line 216" y2="3.5" transform="translate(311.906 281.885)" fill="none" stroke="#37474f" stroke-linecap="round" stroke-linejoin="round" stroke-width="1"/>
        <rect id="Rectangle_409" data-name="Rectangle 409" width="22" height="4" rx="1" transform="translate(294.906 287.385)" fill="none" stroke="#37474f" stroke-linecap="round" stroke-linejoin="round" stroke-width="1"/>
        <line id="Line_217" data-name="Line 217" x2="60" transform="translate(275.906 274.885)" fill="none" stroke="#37474f" stroke-linecap="round" stroke-linejoin="round" stroke-width="1"/>
        <line id="Line_218" data-name="Line 218" y2="3" transform="translate(275.906 248.885)" fill="none" stroke="#37474f" stroke-linecap="round" stroke-linejoin="round" stroke-width="1"/>
        <path id="Path_4452" data-name="Path 4452" d="M317.406,237.885h13.5a5,5,0,0,1,5,5v32a5,5,0,0,1-5,5h-50a5,5,0,0,1-5-5v-20" fill="none" stroke="#37474f" stroke-linecap="round" stroke-linejoin="round" stroke-width="1"/>
        <path id="Path_4453" data-name="Path 4453" d="M275.906,245.885v-3a5,5,0,0,1,5-5h12.5" fill="none" stroke="#37474f" stroke-linecap="round" stroke-linejoin="round" stroke-width="1"/>
        <line id="Line_219" data-name="Line 219" x2="19.26" transform="translate(316.646 242.885)" fill="none" stroke="#37474f" stroke-linecap="round" stroke-linejoin="round" stroke-width="1"/>
        <line id="Line_220" data-name="Line 220" x2="18.26" transform="translate(275.906 242.885)" fill="none" stroke="#37474f" stroke-linecap="round" stroke-linejoin="round" stroke-width="1"/>
        <path id="Path_4454" data-name="Path 4454" d="M312.906,230.385h-15a2.5,2.5,0,0,0-2.5,2.5v7.5a2.5,2.5,0,0,0,2.5,2.5h2.5v2.865a1,1,0,0,0,1.64.768l4.36-3.633h6.5a2.5,2.5,0,0,0,2.5-2.5v-7.5A2.5,2.5,0,0,0,312.906,230.385Z" fill="#ef5350" stroke="#37474f" stroke-linecap="round" stroke-linejoin="round" stroke-width="1"/>
        <circle id="Ellipse_305" data-name="Ellipse 305" cx="1" cy="1" r="1" transform="translate(299.308 235.635)" fill="#37474f"/>
        <circle id="Ellipse_306" data-name="Ellipse 306" cx="1" cy="1" r="1" transform="translate(304.308 235.635)" fill="#37474f"/>
        <circle id="Ellipse_307" data-name="Ellipse 307" cx="1" cy="1" r="1" transform="translate(309.308 235.635)" fill="#37474f"/>
        <rect id="Rectangle_410" data-name="Rectangle 410" width="22" height="16" rx="1" transform="translate(306.906 250.85)" fill="#fff" stroke="#37474f" stroke-linecap="round" stroke-linejoin="round" stroke-width="1"/>
        <line id="Line_221" data-name="Line 221" x2="14" transform="translate(310.906 255.35)" fill="none" stroke="#37474f" stroke-linecap="round" stroke-linejoin="round" stroke-width="1"/>
        <line id="Line_222" data-name="Line 222" x2="14" transform="translate(310.906 258.85)" fill="none" stroke="#37474f" stroke-linecap="round" stroke-linejoin="round" stroke-width="1"/>
        <line id="Line_223" data-name="Line 223" x2="7" transform="translate(310.906 262.35)" fill="none" stroke="#37474f" stroke-linecap="round" stroke-linejoin="round" stroke-width="1"/>
        <circle id="Ellipse_308" data-name="Ellipse 308" cx="6" cy="6" r="6" transform="translate(286.911 246.385)" fill="#fff" stroke="#37474f" stroke-linecap="round" stroke-linejoin="round" stroke-width="1"/>
        <path id="Path_4455" data-name="Path 4455" d="M297.071,248.915l.447-.372a6,6,0,0,0-10.607,3.842h.566A15,15,0,0,0,297.071,248.915Z" fill="#ffca28" stroke="#37474f" stroke-linecap="round" stroke-linejoin="round" stroke-width="1"/>
        <path id="Path_4456" data-name="Path 4456" d="M289.9,259.39l-4.23,2.113a5,5,0,0,0-2.766,4.473v8.909h20.005v-8.91a5,5,0,0,0-2.764-4.472L295.9,259.38" fill="#ffca28" stroke="#37474f" stroke-linecap="round" stroke-linejoin="round" stroke-width="1"/>
        <path id="Path_4457" data-name="Path 4457" d="M298.911,268.385v6.5h-12v-6.5" fill="none" stroke="#37474f" stroke-linecap="round" stroke-linejoin="round" stroke-width="1"/>
        <path id="Path_4458" data-name="Path 4458" d="M292.911,258.385a5.957,5.957,0,0,1-3.01-.816v1.821l3,4.462,3-4.472v-1.8A5.966,5.966,0,0,1,292.911,258.385Z" fill="#fff" stroke="#37474f" stroke-linecap="round" stroke-linejoin="round" stroke-width="1"/>
        <line id="Line_224" data-name="Line 224" y2="3" transform="translate(292.906 263.852)" fill="none" stroke="#37474f" stroke-linecap="round" stroke-linejoin="round" stroke-width="1"/>
      </g>
    </g>
    <g transform="matrix(1, 0, 0, 1, 156, 2370)" filter="url(#Ellipse_294)">
      <g id="Ellipse_294-2" data-name="Ellipse 294" transform="translate(997 262)" fill="#fff" stroke="#0089b3" stroke-width="5">
        <circle cx="21.5" cy="21.5" r="21.5" stroke="none"/>
        <circle cx="21.5" cy="21.5" r="19" fill="none"/>
      </g>
    </g>
    <g transform="matrix(1, 0, 0, 1, 156, 2370)" filter="url(#Ellipse_295)">
      <g id="Ellipse_295-3" data-name="Ellipse 295" transform="translate(997 510)" fill="#fff" stroke="#01ccd2" stroke-width="5">
        <circle cx="21.5" cy="21.5" r="21.5" stroke="none"/>
        <circle cx="21.5" cy="21.5" r="19" fill="none"/>
      </g>
    </g>
    <g id="Group_2132" data-name="Group 2132" transform="translate(468 2458)">
      <g id="Group_2129-2" data-name="Group 2129" transform="translate(16.153)">
        <g id="Ellipse_293-2" data-name="Ellipse 293" transform="translate(-0.153)" fill="#fff" stroke="#6cac00" stroke-width="15">
          <circle cx="95.5" cy="95.5" r="95.5" stroke="none"/>
          <circle cx="95.5" cy="95.5" r="88" fill="none"/>
        </g>
        <path id="Path_4343-3" data-name="Path 4343" d="M14793.556,2172.205l32.106,51.85h-67.99Z" transform="translate(-14611.334 -2050.205)" fill="#6cac00"/>
      </g>
      <g id="Group_2130-2" data-name="Group 2130" transform="matrix(-0.438, 0.899, -0.899, -0.438, 265.625, 461.546)">
        <g id="Ellipse_293-3" data-name="Ellipse 293" transform="translate(23.328)" fill="#fff" stroke="#006c90" stroke-width="15">
          <circle cx="95.5" cy="95.5" r="95.5" stroke="none"/>
          <circle cx="95.5" cy="95.5" r="88" fill="none"/>
        </g>
        <path id="Path_4343-4" data-name="Path 4343" d="M32.106,51.851,0,0H67.99Z" transform="translate(0 17.15)" fill="#006c90"/>
        <g id="Group_2174" data-name="Group 2174" transform="matrix(-0.438, -0.899, 0.899, -0.438, -110.878, 548.108)">
          <path id="Path_4459" data-name="Path 4459" d="M317.058,430.34l-5.751,5.751a1,1,0,0,1-1.677-.465l-2.572-10.286-7.582-3.791a1,1,0,0,1,.2-1.865l35.48-8.87a1,1,0,0,1,1.171,1.342l-8.87,22.175a1,1,0,0,1-1.376.523Z" fill="#64b5f6" stroke="#37474f" stroke-linecap="round" stroke-linejoin="round" stroke-width="1"/>
          <path id="Path_4460" data-name="Path 4460" d="M307.058,425.34l29.005-14.3-24.005,16.8,5,2.5" fill="#64b5f6" stroke="#37474f" stroke-linecap="round" stroke-linejoin="round" stroke-width="1"/>
          <line id="Line_225" data-name="Line 225" x1="1.786" y2="8.484" transform="translate(310.272 427.84)" fill="#64b5f6" stroke="#37474f" stroke-linecap="round" stroke-linejoin="round" stroke-width="1"/>
          <path id="Path_4461" data-name="Path 4461" d="M289.941,409.385l5.83,4.58a1,1,0,0,0,1.579-.511l2.591-9.069,5.709-3.568a1,1,0,0,0-.38-1.837l-28.714-4.35a1,1,0,0,0-1.1,1.3l5.61,16.83a1,1,0,0,0,1.416.568Z" fill="#ef5350" stroke="#37474f" stroke-linecap="round" stroke-linejoin="round" stroke-width="1"/>
          <path id="Path_4462" data-name="Path 4462" d="M299.941,404.385l-24.206-9.5,19.206,12-5,2.5" fill="#ef5350" stroke="#37474f" stroke-linecap="round" stroke-linejoin="round" stroke-width="1"/>
          <line id="Line_226" data-name="Line 226" x2="2.613" y2="7.251" transform="translate(294.058 406.885)" fill="#ef5350" stroke="#37474f" stroke-linecap="round" stroke-linejoin="round" stroke-width="1"/>
          <path id="Path_4463" data-name="Path 4463" d="M322.246,389.385a5,5,0,0,0-9.9-1.017,4.95,4.95,0,0,0,1.214,4.372,4.225,4.225,0,0,1,1.185,2.848v.3h5v-.3a4.263,4.263,0,0,1,1.2-2.861A4.927,4.927,0,0,0,322.246,389.385Z" fill="#ffca28" stroke="#37474f" stroke-linecap="round" stroke-linejoin="round" stroke-width="1"/>
          <path id="Rectangle_411" data-name="Rectangle 411" d="M0,0H5A0,0,0,0,1,5,0V2.5A2.5,2.5,0,0,1,2.5,5h0A2.5,2.5,0,0,1,0,2.5V0A0,0,0,0,1,0,0Z" transform="translate(314.746 395.885)" fill="none" stroke="#37474f" stroke-linecap="round" stroke-linejoin="round" stroke-width="1"/>
          <line id="Line_227" data-name="Line 227" x2="5" transform="translate(314.746 398.385)" fill="none" stroke="#37474f" stroke-linecap="round" stroke-linejoin="round" stroke-width="1"/>
          <line id="Line_228" data-name="Line 228" y2="2" transform="translate(317.246 379.385)" fill="none" stroke="#37474f" stroke-linecap="round" stroke-linejoin="round" stroke-width="1"/>
          <line id="Line_229" data-name="Line 229" x2="1.414" y2="1.414" transform="translate(310.832 381.678)" fill="none" stroke="#37474f" stroke-linecap="round" stroke-linejoin="round" stroke-width="1"/>
          <line id="Line_230" data-name="Line 230" x1="1.414" y2="1.414" transform="translate(322.246 381.678)" fill="none" stroke="#37474f" stroke-linecap="round" stroke-linejoin="round" stroke-width="1"/>
          <line id="Line_231" data-name="Line 231" y1="5" transform="translate(317.246 390.885)" fill="none" stroke="#37474f" stroke-linecap="round" stroke-linejoin="round" stroke-width="1"/>
          <path id="Path_4464" data-name="Path 4464" d="M284.558,414.5v10.387a2.5,2.5,0,0,0,2.5,2.5h18.45" fill="none" stroke="#37474f" stroke-linecap="round" stroke-linejoin="round" stroke-width="1"/>
          <path id="Path_4465" data-name="Path 4465" d="M328.558,410.4V375.885a2.5,2.5,0,0,0-2.5-2.5h-30.5l-11,11v9.434" fill="none" stroke="#37474f" stroke-linecap="round" stroke-linejoin="round" stroke-width="1"/>
          <path id="Path_4466" data-name="Path 4466" d="M293.058,384.385h-8.5l11-11v8.5A2.5,2.5,0,0,1,293.058,384.385Z" fill="none" stroke="#37474f" stroke-linecap="round" stroke-linejoin="round" stroke-width="1"/>
        </g>
      </g>
      <g transform="matrix(1, 0, 0, 1, -312, -88)" filter="url(#Path_4344)">
        <g id="Path_4344-2" data-name="Path 4344" transform="translate(568.15 262)" fill="#fff">
          <path d="M 21.5 40.5 C 16.42491912841797 40.5 11.65359973907471 38.52365112304688 8.064970016479492 34.93503189086914 C 4.476349830627441 31.34639930725098 2.5 26.57508087158203 2.5 21.5 C 2.5 16.42491912841797 4.476349830627441 11.65359973907471 8.064970016479492 8.064970016479492 C 11.65359973907471 4.476349830627441 16.42491912841797 2.5 21.5 2.5 C 26.57508087158203 2.5 31.34639930725098 4.476349830627441 34.93503189086914 8.064970016479492 C 38.52365112304688 11.65359973907471 40.5 16.42491912841797 40.5 21.5 C 40.5 26.57508087158203 38.52365112304688 31.34639930725098 34.93503189086914 34.93503189086914 C 31.34639930725098 38.52365112304688 26.57508087158203 40.5 21.5 40.5 Z" stroke="none"/>
          <path d="M 21.5 5 C 17.09268951416016 5 12.94918060302734 6.716300964355469 9.832740783691406 9.832740783691406 C 6.716300964355469 12.94918060302734 5 17.09268951416016 5 21.5 C 5 25.90731048583984 6.716300964355469 30.05081939697266 9.832740783691406 33.16725921630859 C 12.94918060302734 36.28369903564453 17.09268951416016 38 21.5 38 C 25.90731048583984 38 30.05081939697266 36.28369903564453 33.16725921630859 33.16725921630859 C 36.28369903564453 30.05081939697266 38 25.90731048583984 38 21.5 C 38 17.09268951416016 36.28369903564453 12.94918060302734 33.16725921630859 9.832740783691406 C 30.05081939697266 6.716300964355469 25.90731048583984 5 21.5 5 M 21.5 0 C 33.37411880493164 0 43 9.625881195068359 43 21.5 C 43 33.37411880493164 33.37411880493164 43 21.5 43 C 9.625881195068359 43 0 33.37411880493164 0 21.5 C 0 9.625881195068359 9.625881195068359 0 21.5 0 Z" stroke="none" fill="#6cac00"/>
        </g>
      </g>
      <g transform="matrix(1, 0, 0, 1, -312, -88)" filter="url(#Ellipse_295-2)">
        <g id="Ellipse_295-4" data-name="Ellipse 295" transform="translate(568.15 510)" fill="#fff" stroke="#006c90" stroke-width="5">
          <circle cx="21.5" cy="21.5" r="21.5" stroke="none"/>
          <circle cx="21.5" cy="21.5" r="19" fill="none"/>
        </g>
      </g>
      <g id="Group_2171" data-name="Group 2171" transform="translate(-626.406 -1028.885)">
        <path id="Path_4436" data-name="Path 4436" d="M749.906,1109.885a7.5,7.5,0,1,1,7.5-7.5" fill="none" stroke="#37474f" stroke-linecap="round" stroke-linejoin="round" stroke-width="1"/>
        <path id="Path_4437" data-name="Path 4437" d="M749.906,1105.885a3.5,3.5,0,1,1,3.5-3.5" fill="none" stroke="#37474f" stroke-linecap="round" stroke-linejoin="round" stroke-width="1"/>
        <path id="Path_4438" data-name="Path 4438" d="M757.406,1102.385v41.5a1,1,0,0,1-1,1h-1" fill="none" stroke="#37474f" stroke-linecap="round" stroke-linejoin="round" stroke-width="1"/>
        <path id="Path_4439" data-name="Path 4439" d="M753.405,1102.385v50a2.5,2.5,0,0,1-2.5,2.5h-37a2.5,2.5,0,0,1-2.5-2.5v-40.5" fill="none" stroke="#37474f" stroke-linecap="round" stroke-linejoin="round" stroke-width="1"/>
        <path id="Path_4440" data-name="Path 4440" d="M763.406,1143.885h6v-43.5a2.5,2.5,0,0,0-2.5-2.5h-1a2.5,2.5,0,0,0-2.5,2.5Z" fill="#64b5f6" stroke="#37474f" stroke-linecap="round" stroke-linejoin="round" stroke-width="1"/>
        <path id="Path_4441" data-name="Path 4441" d="M763.406,1143.885h6v5l-3,6-3-6Z" fill="none" stroke="#37474f" stroke-linecap="round" stroke-linejoin="round" stroke-width="1"/>
        <path id="Path_4442" data-name="Path 4442" d="M764.406,1150.885l2,4,2-4Z" fill="none" stroke="#37474f" stroke-linecap="round" stroke-linejoin="round" stroke-width="1"/>
        <path id="Rectangle_405" data-name="Rectangle 405" d="M1,0H13a1,1,0,0,1,1,1V2.5a0,0,0,0,1,0,0H0a0,0,0,0,1,0,0V1A1,1,0,0,1,1,0Z" transform="translate(760.905 1117.385) rotate(-90)" fill="none" stroke="#37474f" stroke-linecap="round" stroke-linejoin="round" stroke-width="1"/>
        <rect id="Rectangle_406" data-name="Rectangle 406" width="18" height="4" rx="1" transform="translate(723.405 1116.885)" fill="#ef5350" stroke="#37474f" stroke-linecap="round" stroke-linejoin="round" stroke-width="1"/>
        <line id="Line_198" data-name="Line 198" x2="30" transform="translate(717.405 1125.885)" fill="#ffca28" stroke="#37474f" stroke-linecap="round" stroke-linejoin="round" stroke-width="1"/>
        <line id="Line_199" data-name="Line 199" x2="30" transform="translate(717.405 1130.885)" fill="#ffca28" stroke="#37474f" stroke-linecap="round" stroke-linejoin="round" stroke-width="1"/>
        <line id="Line_200" data-name="Line 200" x2="30" transform="translate(717.405 1135.885)" fill="#ffca28" stroke="#37474f" stroke-linecap="round" stroke-linejoin="round" stroke-width="1"/>
        <line id="Line_201" data-name="Line 201" x2="30" transform="translate(717.405 1140.885)" fill="#ffca28" stroke="#37474f" stroke-linecap="round" stroke-linejoin="round" stroke-width="1"/>
        <path id="Path_4443" data-name="Path 4443" d="M716.906,1094.885h-3a7.5,7.5,0,0,0,0,15h36a7.5,7.5,0,0,1,0-15h-24" fill="#ffca28" stroke="#37474f" stroke-linecap="round" stroke-linejoin="round" stroke-width="1"/>
        <line id="Line_202" data-name="Line 202" x1="3" transform="translate(719.906 1094.885)" fill="#ffca28" stroke="#37474f" stroke-linecap="round" stroke-linejoin="round" stroke-width="1"/>
        <line id="Line_203" data-name="Line 203" x1="6" transform="translate(763.406 1123.885)" fill="none" stroke="#37474f" stroke-linecap="round" stroke-linejoin="round" stroke-width="1"/>
      </g>
    </g>
    <text id="Online_registration" data-name="Online  registration" transform="translate(311 2529)" fill="#f7fff7" font-size="30" font-family="Poppins"><tspan x="-154.77" y="0" xml:space="preserve">Online  registration</tspan></text>
    <text id="_1" data-name="1" transform="translate(579 2482)" fill="#f7fff7" font-size="100" font-family="Poppins" opacity="0.15"><tspan x="-21.05" y="0">1</tspan></text>
    <text id="_2" data-name="2" transform="translate(1340 2482)" fill="#f7fff7" font-size="100" font-family="Poppins" opacity="0.15"><tspan x="-28.55" y="0">2</tspan></text>
    <text id="_3" data-name="3" transform="translate(1329 2906)" fill="#f7fff7" font-size="100" font-family="Poppins" opacity="0.15"><tspan x="-30.25" y="0">3</tspan></text>
    <text id="_4" data-name="4" transform="translate(579 2906)" fill="#f7fff7" font-size="100" font-family="Poppins" opacity="0.15"><tspan x="-33.85" y="0">4</tspan></text>
    <text id="Grading_feedback" data-name="Grading, feedback" transform="translate(303 2956)" fill="#f7fff7" font-size="30" font-family="Poppins"><tspan x="-146.865" y="0">Grading, feedback</tspan></text>
    <text id="Ready_to_start_teaching" data-name="Ready to start teaching" transform="translate(1462 2519)" fill="#f7fff7" font-size="30" font-family="Poppins"><tspan x="0" y="0">Ready to start teaching</tspan></text>
    <text id="Conduct_live_class_as_per_schedule_Happy_teaching" data-name="Conduct live class
as per schedule,
Happy teaching" transform="translate(1462 2956)" fill="#f7fff7" font-size="30" font-family="Poppins"><tspan x="0" y="0">Conduct live class</tspan><tspan x="0" y="40">as per schedule,</tspan><tspan x="0" y="80">Happy teaching</tspan></text>
    <text id="Login_as_a_tutor_with_user_id_and_password" data-name="Login as a tutor with user id and password" transform="translate(156 2542)" fill="#f7fff7" font-size="20" font-family="Poppins-Medium, Poppins" font-weight="500" opacity="0.6"><tspan x="-140.14" y="22">Login as a tutor with user id </tspan><tspan x="-72.54" y="55">and password</tspan></text>
    <text id="Give_grading_and_feedback_to_students_according_to_the_performance_" data-name="Give grading and feedback to students according to the performance " transform="translate(156 2969)" fill="#f7fff7" font-size="20" font-family="Poppins-Medium, Poppins" font-weight="500" opacity="0.6"><tspan x="0" y="22">Give grading and feedback to </tspan><tspan x="0" y="55">students according to the </tspan><tspan x="0" y="88">performance </tspan></text>
    <text id="Login_to_teaching_portal_using_your_credentials" data-name="Login to teaching portal using your credentials" transform="translate(1462 2532)" fill="#f7fff7" font-size="20" font-family="Poppins-Medium, Poppins" font-weight="500" opacity="0.6"><tspan x="0" y="22">Login to teaching portal using </tspan><tspan x="0" y="55">your credentials</tspan></text>
    <text id="Interact_with_students_by_inviting_link_to_the_students" data-name="Interact with students by inviting link to the students" transform="translate(1462 3062)" fill="#f7fff7" font-size="20" font-family="Poppins-Medium, Poppins" font-weight="500" opacity="0.6"><tspan x="0" y="22">Interact with students by </tspan><tspan x="0" y="55">inviting link to the students</tspan></text>
    <g id="Group_2170" data-name="Group 2170" transform="translate(585.781 2508)">
      <path id="Path_4345" data-name="Path 4345" d="M392.367,859.326l83.754,48.66a4.12,4.12,0,0,1,.017,7.115L364.61,980.627a13.042,13.042,0,0,1-13.119.055L267.98,932.556a4.12,4.12,0,0,1-.008-7.135l114.143-66.1A10.215,10.215,0,0,1,392.367,859.326Z" transform="translate(-0.01 -610.424)" fill="#2d2862"/>
      <path id="Path_4346" data-name="Path 4346" d="M476.129,894.606l-4.83,2.837-1.285.755-23.279,13.671-1.285.755-23.278,13.671-1.285.753-23.278,13.671-1.286.755-23.276,13.671-1.286.755-7.174,4.214a13.042,13.042,0,0,1-13.118.053L331.9,948.882l-1.3-.748-23.5-13.545-1.3-.748-23.5-13.546-1.3-.747-13.048-7.523a4.12,4.12,0,0,1-.006-7.134l7.647-4.426,1.293-.749,23.448-13.573,1.293-.749,23.448-13.574,1.293-.748L349.833,857.5l1.294-.749,23.448-13.573,1.293-.749,6.248-3.617a10.212,10.212,0,0,1,10.251.009l14.281,8.3,1.291.751,23.4,13.6,1.291.752,23.4,13.6,1.291.75,18.79,10.921A4.119,4.119,0,0,1,476.129,894.606Z" transform="translate(0 -592.486)" fill="#3baad8"/>
      <g id="Group_2134" data-name="Group 2134" transform="translate(315.052 315.348)" opacity="0.4" style="mix-blend-mode: multiply;isolation: isolate">
        <ellipse id="Ellipse_296" data-name="Ellipse 296" cx="16.93" cy="9.859" rx="16.93" ry="9.859" transform="translate(0)" fill="#3baad8"/>
      </g>
      <g id="Group_2135" data-name="Group 2135" transform="translate(363.029 259.068)" opacity="0.4" style="mix-blend-mode: multiply;isolation: isolate">
        <path id="Path_4347" data-name="Path 4347" d="M1134.593,1001.851l-21.072-12.194,5.372-3.022-36.456-21.1-5.289,3.07-32.1-18.575-4.619,2.681,32.1,18.575-14.226,8.257,36.287,20.76,14.24-8.01,21.072,12.194Z" transform="translate(-1040.432 -950.033)" fill="#3baad8"/>
      </g>
      <path id="Path_4348" data-name="Path 4348" d="M1129.406,1029.845l36.456,15.865v5.232l-24.3,13.671-36.287-20.759v-5.232Z" transform="translate(-734.112 -760.77)" fill="#2d2b64"/>
      <path id="Path_4349" data-name="Path 4349" d="M1129.406,988.121l36.456,21.1-24.3,13.671-36.287-20.76Z" transform="translate(-734.112 -724.278)" fill="#d9ddf6"/>
      <path id="Path_4350" data-name="Path 4350" d="M1272.3,946.32v14.109l-.026.016-4.935,2.865.005.01-.005,0-21.288-12.229V931.242Z" transform="translate(-857.237 -674.53)" fill="#b4baec"/>
      <path id="Path_4351" data-name="Path 4351" d="M1420.752,1045.826l-4.935,2.865v-19.826l4.935,2.836Z" transform="translate(-1005.716 -759.912)" fill="#242454"/>
      <path id="Path_4352" data-name="Path 4352" d="M931.119,166.163v71.521a6.154,6.154,0,0,0,3.088,5.336l99.381,57.086a6.152,6.152,0,0,0,9.218-5.336V223.249a6.153,6.153,0,0,0-3.088-5.336l-99.381-57.086A6.153,6.153,0,0,0,931.119,166.163Z" transform="translate(-581.798 0)" fill="#d9ddf6"/>
      <path id="Path_4353" data-name="Path 4353" d="M1059.167,217.917l-99.381-57.086a6.1,6.1,0,0,0-6.43.186l99.058,56.9a6.153,6.153,0,0,1,3.089,5.336v71.521a6.077,6.077,0,0,1-2.381,4.863c-.132.1-.268.2-.407.287l.323.186a6.152,6.152,0,0,0,9.218-5.336V223.253A6.153,6.153,0,0,0,1059.167,217.917Z" transform="translate(-601.245 -0.003)" fill="#2d2862"/>
      <path id="Path_4354" data-name="Path 4354" d="M1081.354,299.481V367.64l-33.422-19.2L1045.423,347l-3.192-1.832-21.111-12.127-29.931-17.193V247.69l39.642,22.771,5.144,2.955.275.158,6.485,3.725.75.431,6.243,3.586Z" transform="translate(-634.335 -76.693)" fill="#fff"/>
      <path id="Path_4355" data-name="Path 4355" d="M1043.068,349.868V335.741L1022.3,323.812v14.127Z" transform="translate(-661.546 -143.27)" fill="#f8f7f5"/>
      <path id="Path_4356" data-name="Path 4356" d="M1043.068,486.09V471.963L1022.3,460.034v14.127Z" transform="translate(-661.546 -262.411)" fill="#f8f7f5"/>
      <path id="Path_4357" data-name="Path 4357" d="M1528.288,613.306V599.179l-20.767-11.929v14.127Z" transform="translate(-1085.922 -373.674)" fill="#f8f7f5"/>
      <path id="Path_4358" data-name="Path 4358" d="M1528.288,749.528V735.4l-20.767-11.929V737.6Z" transform="translate(-1085.922 -492.814)" fill="#f8f7f5"/>
      <g id="Group_2140" data-name="Group 2140" transform="translate(429.032 173.483)">
        <path id="Path_4359" data-name="Path 4359" d="M1594.05,281.866l-24.972-14.344-1.771,1.018,1.771,53.666,23.217,15.226,1.755-.882Z" transform="translate(-1567.243 -267.522)" fill="#f57e12"/>
        <path id="Path_4360" data-name="Path 4360" d="M1591.765,289.747,1566.794,275.4v54.684l24.971,14.344Z" transform="translate(-1566.794 -274.414)" fill="#fec144"/>
        <path id="Path_4361" data-name="Path 4361" d="M1583.779,414.993v2.328l20.712,11.9V426.89Z" transform="translate(-1581.649 -396.501)" fill="#fff"/>
        <path id="Path_4362" data-name="Path 4362" d="M1583.779,492.977v2.328l20.712,11.9v-2.328Z" transform="translate(-1581.649 -464.706)" fill="#fff"/>
        <path id="Path_4363" data-name="Path 4363" d="M1598.761,343.758l-14.982-8.606v2.328l14.982,8.606Z" transform="translate(-1581.649 -326.671)" fill="#fff"/>
        <path id="Path_4364" data-name="Path 4364" d="M1590.146,379.658,1583.779,376v2.328l6.367,3.658Z" transform="translate(-1581.649 -362.398)" fill="#fff"/>
        <path id="Path_4365" data-name="Path 4365" d="M1647.555,412.635v2.328l12.714,7.3v-2.328Z" transform="translate(-1637.428 -394.438)" fill="#f80492"/>
        <g id="Group_2136" data-name="Group 2136" transform="translate(2.13 23.382)">
          <path id="Path_4366" data-name="Path 4366" d="M1593.406,459.515l-9.627-5.53v2.328l9.627,5.53Z" transform="translate(-1583.779 -453.985)" fill="#fff"/>
          <path id="Path_4367" data-name="Path 4367" d="M1673.55,505.551v2.328l9.455,5.431v-2.328Z" transform="translate(-1662.293 -499.085)" fill="#fff"/>
        </g>
        <path id="Path_4368" data-name="Path 4368" d="M1583.779,622.952v2.328l20.712,11.9v-2.328Z" transform="translate(-1581.649 -578.382)" fill="#fff"/>
        <path id="Path_4369" data-name="Path 4369" d="M1590.146,587.617l-6.367-3.658v2.328l6.367,3.658Z" transform="translate(-1581.649 -544.28)" fill="#f80492"/>
        <path id="Path_4370" data-name="Path 4370" d="M1647.555,620.594v2.328l12.714,7.3V627.9Z" transform="translate(-1637.428 -576.32)" fill="#fff"/>
        <g id="Group_2139" data-name="Group 2139" transform="translate(2.13 49.459)">
          <g id="Group_2137" data-name="Group 2137">
            <path id="Path_4371" data-name="Path 4371" d="M1593.406,667.474l-9.627-5.53v2.328l9.627,5.53Z" transform="translate(-1583.779 -661.944)" fill="#fff"/>
          </g>
          <g id="Group_2138" data-name="Group 2138" transform="translate(11.257 6.466)">
            <path id="Path_4372" data-name="Path 4372" d="M1673.55,713.51v2.328L1683,721.27v-2.328Z" transform="translate(-1673.55 -713.51)" fill="#f80492"/>
          </g>
        </g>
      </g>
      <g id="Group_2142" data-name="Group 2142" transform="translate(336.989 206.094)">
        <path id="Path_4373" data-name="Path 4373" d="M860.026,577.587V541.926l-24.971-14.344-1.771,1.018,1.2,36.507,23.641,13.609Z" transform="translate(-833.22 -527.582)" fill="#f57e12"/>
        <path id="Path_4374" data-name="Path 4374" d="M857.742,585.615V549.807l-24.971-14.344v35.808Z" transform="translate(-832.771 -534.475)" fill="#fec144"/>
        <path id="Path_4375" data-name="Path 4375" d="M849.755,675.053v2.328l20.712,11.9v-2.328Z" transform="translate(-847.626 -656.561)" fill="#fff"/>
        <path id="Path_4376" data-name="Path 4376" d="M849.755,753.038v2.328l20.712,11.9v-2.328Z" transform="translate(-847.626 -724.767)" fill="#fff"/>
        <path id="Path_4377" data-name="Path 4377" d="M864.738,603.818l-14.982-8.606v2.328l14.982,8.606Z" transform="translate(-847.626 -586.732)" fill="#fff"/>
        <path id="Path_4378" data-name="Path 4378" d="M856.123,639.719l-6.367-3.658v2.328l6.367,3.658Z" transform="translate(-847.626 -622.458)" fill="#fff"/>
        <path id="Path_4379" data-name="Path 4379" d="M913.532,672.7v2.328l12.714,7.3V680Z" transform="translate(-903.405 -654.499)" fill="#f80492"/>
        <g id="Group_2141" data-name="Group 2141" transform="translate(2.13 23.382)">
          <path id="Path_4380" data-name="Path 4380" d="M859.383,719.576l-9.627-5.53v2.328l9.627,5.53Z" transform="translate(-849.755 -714.046)" fill="#fff"/>
          <path id="Path_4381" data-name="Path 4381" d="M939.527,765.612v2.328l9.455,5.431v-2.328Z" transform="translate(-928.27 -759.146)" fill="#fff"/>
        </g>
      </g>
      <g id="Group_2145" data-name="Group 2145" transform="translate(425.558 250.422)">
        <path id="Path_4382" data-name="Path 4382" d="M1573.493,896.312l49.562,30.262,1.625-.854V910.685l-51.187-29.6-1.683.877Z" transform="translate(-1567.708 -881.087)" fill="#f57e12"/>
        <path id="Path_4383" data-name="Path 4383" d="M1543.182,887.842V899.63c-1.866.535-4.257,1.229-4.083,1.229s2.352,1.209,4.083,2.182v.025l51.187,29.408V917.44Z" transform="translate(-1539.091 -886.995)" fill="#fec144"/>
        <path id="Path_4384" data-name="Path 4384" d="M1604.161,925.209l-16.507-9.545v2.682l16.507,9.545Z" transform="translate(-1581.565 -911.329)" fill="#f80492"/>
        <g id="Group_2143" data-name="Group 2143" transform="translate(6.09 8.571)">
          <path id="Path_4385" data-name="Path 4385" d="M1681.013,1003.422v2.682l35.152,20.326v-2.682Z" transform="translate(-1669.307 -996.652)" fill="#fff"/>
          <path id="Path_4386" data-name="Path 4386" d="M1597.667,955.228l-10.013-5.79v2.682l10.013,5.79Z" transform="translate(-1587.655 -949.439)" fill="#fff"/>
        </g>
        <g id="Group_2144" data-name="Group 2144" transform="translate(6.09 12.947)">
          <path id="Path_4387" data-name="Path 4387" d="M1613.9,999.516l-26.248-15.177v2.682L1613.9,1002.2Z" transform="translate(-1587.655 -984.339)" fill="#fff"/>
          <path id="Path_4388" data-name="Path 4388" d="M1810.481,1113.183v2.682L1829.4,1126.8v-2.682Z" transform="translate(-1782.539 -1097.027)" fill="#f80492"/>
        </g>
      </g>
      <g id="Group_2149" data-name="Group 2149" transform="translate(349.121 187.906)">
        <path id="Path_4389" data-name="Path 4389" d="M933.168,719.048s-.414-1.642.8-1.983c.93-.261,1.867,1.718,2.959,2.311,1.054.572-.688,4.958-.688,4.958C927.629,725.786,928.087,719.13,933.168,719.048Z" transform="translate(-929.522 -675.096)" fill="#f4a590"/>
        <path id="Path_4390" data-name="Path 4390" d="M1012.316,644.158l-1.264,12.243-.265,2.563-.3,2.937v0s-4.459,8.828-7.987,8.828c-2.6,0-8.5-2.6-13.581-5.106-4.733-2.337-8.76-4.595-8.76-4.595l1.264-5.991,18.137,5.991s5.911-11.367,10.306-15.256a.052.052,0,0,1,.015-.012A7.468,7.468,0,0,1,1012.316,644.158Z" transform="translate(-973.808 -611.352)" fill="#8cd337"/>
        <g id="Group_2146" data-name="Group 2146" transform="translate(15.109 45.049)" opacity="0.56">
          <path id="Path_4391" data-name="Path 4391" d="M1072.151,741.8l-.265,2.563-.3,2.937v0s-4.459,8.828-7.987,8.828c-2.6,0-8.5-2.6-13.581-5.106C1057.353,753.368,1067.189,753.107,1072.151,741.8Z" transform="translate(-1050.016 -741.795)" fill="#2ba150"/>
        </g>
        <path id="Path_4392" data-name="Path 4392" d="M1222.361,674.031a7.82,7.82,0,0,0,1.395,5.06c.155.27.318.551.481.848.064.11.126.223.189.34.092.171.186.347.28.531s.192.381.288.583a20.667,20.667,0,0,1,1.278,3.483c.11.4.214.83.313,1.283,0,.007,0,.013,0,.02.023.1.045.209.066.316.2.96.37,2.037.5,3.254l-2.508-1.441a2.249,2.249,0,0,1-3.192-1.832l-21.111-12.127a16.088,16.088,0,0,0-.027-2.507c-.536-6.041-3.31-5.369-4.063-10.373-.017-.1-.031-.2-.044-.3a11.805,11.805,0,0,1,.374-4.862c.728-2.521,2.05-4.311,2.226-5.816.274-2.326,0-9.993,1.643-11.363a2.614,2.614,0,0,1,.731-.377,21.889,21.889,0,0,1,8.03-.758.174.174,0,0,1,.028,0c.167.01.336.02.505.034h0a35.947,35.947,0,0,1,4.173.559q1.1.216,2.249.511h0q.837.218,1.7.484l.088.027a37.769,37.769,0,0,1,7.964,3.563c.055.032.111.065.168.1q.174.1.347.212c.167.1.334.206.5.313.652.535,1.317,1.124,1.989,1.756v.692a35.718,35.718,0,0,1-3.363,11.671c-.151.335-.308.675-.47,1.023q-.133.288-.274.585C1222.5,664.449,1222.772,668.692,1222.361,674.031Z" transform="translate(-1162.685 -605.906)" fill="#8cd337"/>
        <path id="Path_4393" data-name="Path 4393" d="M1439.117,1022.554l0-.019a.1.1,0,0,1,0,.018Z" transform="translate(-1375.212 -942.282)" fill="#3186fb" style="mix-blend-mode: multiply;isolation: isolate"/>
        <g id="Group_2147" data-name="Group 2147" transform="translate(43.934 37.24)" opacity="0.56">
          <path id="Path_4394" data-name="Path 4394" d="M1283.993,705.611s-.137,4.791,7.529,7.8c5.461,2.145,7.37,5.869,8.017,7.833a20.639,20.639,0,0,0-1.277-3.483c-.424-.9-.853-1.629-1.239-2.3a7.82,7.82,0,0,1-1.394-5.06c.411-5.339.137-9.583,2.464-14.511.262-.555.51-1.088.744-1.609a35.735,35.735,0,0,0,3.364-11.67v-.691c-.672-.632-1.338-1.221-1.989-1.756q-.423-.271-.849-.526l-.168-.1a2.333,2.333,0,0,0-.964.062c-3.012.958-3.7,13.827-6.434,18.207s-4.791,6.845-10.952,5.2h-.958A6.222,6.222,0,0,0,1283.993,705.611Z" transform="translate(-1279.886 -679.517)" fill="#2ba150"/>
        </g>
        <path id="Path_4395" data-name="Path 4395" d="M1398.508,975.745c-.02.059-.04.117-.061.175a11.848,11.848,0,0,1-1.345,2.78,4.853,4.853,0,0,1-2,1.813,2.249,2.249,0,0,1-3.192-1.832,4.273,4.273,0,0,1,.493-2.725s-1.643-.411-1.369-1.642c.195-.879,2.061-.922,3.2-1.4a1.958,1.958,0,0,0,.555-.335.888.888,0,0,0,.09-.09.875.875,0,0,0,.218-.453Z" transform="translate(-1333.13 -898.111)" fill="#f4a590"/>
        <path id="Path_4396" data-name="Path 4396" d="M1398.309,695.6c-1.9-4.706-7.295-16.115-16.389-20.275l-1.812-.366c-4.416,1.709-4.986,8.547-4.986,8.547,1.019,2.2,12.351,14.018,12.351,14.018l-6.761,14.992a20.642,20.642,0,0,0,4.85,4.262l12.3-17.379A3.993,3.993,0,0,0,1398.309,695.6Z" transform="translate(-1319.245 -638.289)" fill="#8cd337"/>
        <path id="Path_4397" data-name="Path 4397" d="M1277.333,639.532l-7.055,8.231-3.234-3.822-3.233,1.47a12.671,12.671,0,0,1,4.7-7.349Z" transform="translate(-1221.892 -606.021)" fill="#fff"/>
        <circle id="Ellipse_297" data-name="Ellipse 297" cx="8.966" cy="8.966" r="8.966" transform="translate(52.795 0)" fill="#2d2862"/>
        <path id="Path_4398" data-name="Path 4398" d="M1289.908,598.755l9.993-4.381-.684-8.077-.523.2-7.554,2.945v3.422s-.278.238-.648.626C1289.372,594.674,1289.908,598.755,1289.908,598.755Z" transform="translate(-1244.605 -560.747)" fill="#f4a590"/>
        <g id="Group_2148" data-name="Group 2148" transform="translate(45.888 25.754)" opacity="0.55" style="mix-blend-mode: multiply;isolation: isolate">
          <path id="Path_4399" data-name="Path 4399" d="M1295.465,594.917c1.7,3.284,6.655,1.218,8.588-6.512l-.386-.481-7.554,2.945v3.422S1295.835,594.529,1295.465,594.917Z" transform="translate(-1295.465 -587.924)" fill="#f86c7d"/>
        </g>
        <circle id="Ellipse_298" data-name="Ellipse 298" cx="4.412" cy="4.412" r="4.412" transform="translate(50.789 8.061) rotate(-9.217)" fill="#ce0576"/>
        <path id="Path_4400" data-name="Path 4400" d="M1259.667,477.786l-3.744-.8-2.674,3.209s-2.957,15.619,5.883,16.847c9.627,1.337,9.627-13.37,9.627-13.37Z" transform="translate(-1212.24 -465.141)" fill="#f4a590"/>
        <path id="Path_4401" data-name="Path 4401" d="M1238.385,435.786c1.337-8.824,15.777-9.894,18.986-2.674,5.081,5.616-1.337,12.3-1.337,12.3s-13.7.22-14.836-6.429a3.58,3.58,0,0,0-1.149,3.221S1237.582,441.669,1238.385,435.786Z" transform="translate(-1199.514 -422.606)" fill="#2d2862"/>
        <circle id="Ellipse_299" data-name="Ellipse 299" cx="2.54" cy="2.54" r="2.54" transform="translate(50.983 19.714)" fill="#2d2862"/>
        <circle id="Ellipse_300" data-name="Ellipse 300" cx="2.54" cy="2.54" r="2.54" transform="translate(51.973 20.4)" fill="#f4a590"/>
      </g>
      <g id="Group_2150" data-name="Group 2150" transform="translate(354.587 300.91)">
        <path id="Path_4402" data-name="Path 4402" d="M1018.954,1334.58l28.856,10.316.115,6.385-45.345,26.271-29.212-16.668-.022-.807-.126-4.78-.02-.764Z" transform="translate(-973.19 -1328.202)" fill="#d80080"/>
        <path id="Path_4403" data-name="Path 4403" d="M1018.688,1283.717l29.051,16.7-45.413,26.293-29.212-16.668Z" transform="translate(-973.115 -1283.717)" fill="#f80492"/>
        <path id="Path_4404" data-name="Path 4404" d="M1280.011,1354.087l-21.234-12.116,6.026-3.481,21.149,12.158Z" transform="translate(-1222.955 -1331.621)" fill="#fff"/>
        <path id="Path_4405" data-name="Path 4405" d="M1003.016,1521.446l-.078-.936-.334-4.023-29.242-16.7.1,3.89.024.89Z" transform="translate(-973.331 -1472.693)" fill="#fff"/>
      </g>
      <g id="Group_2151" data-name="Group 2151" transform="translate(357.693 293.287)">
        <path id="Path_4406" data-name="Path 4406" d="M1043.722,1273.787l28.856,10.316.115,6.385-45.345,26.271-29.212-16.668-.022-.807-.126-4.78-.02-.764Z" transform="translate(-997.957 -1267.409)" fill="#7eb232"/>
        <path id="Path_4407" data-name="Path 4407" d="M1043.456,1222.923l29.051,16.7-45.413,26.293-29.212-16.668Z" transform="translate(-997.883 -1222.923)" fill="#8cd337"/>
        <path id="Path_4408" data-name="Path 4408" d="M1304.778,1293.293l-21.234-12.116,6.026-3.481,21.149,12.158Z" transform="translate(-1247.723 -1270.828)" fill="#7eb232"/>
        <path id="Path_4409" data-name="Path 4409" d="M1027.784,1460.652l-.078-.936-.334-4.022-29.241-16.7.1,3.891.023.89Z" transform="translate(-998.099 -1411.899)" fill="#fff"/>
      </g>
      <g id="Group_2165" data-name="Group 2165" transform="translate(307.948 271.426)">
        <g id="Group_2155" data-name="Group 2155" transform="translate(2.028 1.694)">
          <g id="Group_2152" data-name="Group 2152" transform="translate(0 0.344)">
            <path id="Path_4410" data-name="Path 4410" d="M617.35,1083.274v.344l20.331,11.66,32.439-18.762v-.344l-16.523-9.455-3.882-1.878-6.167,3.234Z" transform="translate(-617.35 -1064.839)" fill="#b5a9ad"/>
          </g>
          <g id="Group_2153" data-name="Group 2153">
            <path id="Path_4411" data-name="Path 4411" d="M617.35,1080.876l20.331,11.66,32.439-18.762-16.523-9.455-3.882-2.221-6.167,3.578Z" transform="translate(-617.35 -1062.098)" fill="#d9ddf6"/>
          </g>
          <path id="Path_4412" data-name="Path 4412" d="M641.675,1094.933l26.663-15.47,19.275,11.03-26.706,15.446Z" transform="translate(-638.625 -1077.286)" fill="#f8f7f5"/>
          <g id="Group_2154" data-name="Group 2154" transform="translate(2.927 2.185)">
            <rect id="Rectangle_366" data-name="Rectangle 366" width="0.115" height="22.208" transform="matrix(0.497, -0.868, 0.868, 0.497, 26.7, 0.099)" fill="#b5a9ad"/>
            <rect id="Rectangle_367" data-name="Rectangle 367" width="0.115" height="22.208" transform="translate(24.475 1.379) rotate(-60.221)" fill="#b5a9ad"/>
            <rect id="Rectangle_368" data-name="Rectangle 368" width="0.115" height="22.208" transform="matrix(0.497, -0.868, 0.868, 0.497, 22.25, 2.659)" fill="#b5a9ad"/>
            <rect id="Rectangle_369" data-name="Rectangle 369" width="0.115" height="22.208" transform="translate(20.025 3.938) rotate(-60.221)" fill="#b5a9ad"/>
            <rect id="Rectangle_370" data-name="Rectangle 370" width="0.115" height="22.208" transform="translate(17.8 5.218) rotate(-60.221)" fill="#b5a9ad"/>
            <rect id="Rectangle_371" data-name="Rectangle 371" width="0.115" height="22.208" transform="matrix(0.497, -0.868, 0.868, 0.497, 15.575, 6.498)" fill="#b5a9ad"/>
            <rect id="Rectangle_372" data-name="Rectangle 372" width="0.115" height="22.208" transform="matrix(0.497, -0.868, 0.868, 0.497, 13.35, 7.777)" fill="#b5a9ad"/>
            <rect id="Rectangle_373" data-name="Rectangle 373" width="0.115" height="22.208" transform="matrix(0.497, -0.868, 0.868, 0.497, 11.125, 9.057)" fill="#b5a9ad"/>
            <rect id="Rectangle_374" data-name="Rectangle 374" width="0.115" height="22.208" transform="translate(8.9 10.337) rotate(-60.221)" fill="#b5a9ad"/>
            <rect id="Rectangle_375" data-name="Rectangle 375" width="0.115" height="22.208" transform="translate(6.675 11.616) rotate(-60.221)" fill="#b5a9ad"/>
            <rect id="Rectangle_376" data-name="Rectangle 376" width="0.115" height="22.208" transform="translate(4.45 12.896) rotate(-60.221)" fill="#b5a9ad"/>
            <rect id="Rectangle_377" data-name="Rectangle 377" width="0.115" height="22.208" transform="translate(2.225 14.175) rotate(-60.221)" fill="#b5a9ad"/>
            <rect id="Rectangle_378" data-name="Rectangle 378" width="0.115" height="22.208" transform="translate(0 15.455) rotate(-60.221)" fill="#b5a9ad"/>
          </g>
        </g>
        <g id="Group_2156" data-name="Group 2156" transform="translate(0 0.652)" opacity="0.4" style="mix-blend-mode: multiply;isolation: isolate">
          <path id="Path_4413" data-name="Path 4413" d="M640.211,1056.182l-4.18-2.392-6.641,3.853-28.212,16.369v.37l21.894,12.556,34.932-20.2v-.37Z" transform="translate(-601.178 -1053.79)" fill="#3baad8"/>
        </g>
        <g id="Group_2160" data-name="Group 2160" transform="translate(2.68 1.144)">
          <g id="Group_2157" data-name="Group 2157" transform="translate(0 0.342)">
            <path id="Path_4414" data-name="Path 4414" d="M622.552,1082.219l.037.342,21.458,9.427,30.255-22.112-.037-.342-17.437-7.641-4.06-1.453-5.787,3.873Z" transform="translate(-622.552 -1060.441)" fill="#b5a9ad"/>
          </g>
          <g id="Group_2158" data-name="Group 2158">
            <path id="Path_4415" data-name="Path 4415" d="M622.552,1079.835l21.458,9.427,30.255-22.112-17.437-7.641-4.1-1.8-5.75,4.215Z" transform="translate(-622.552 -1057.715)" fill="#d9ddf6"/>
          </g>
          <path id="Path_4416" data-name="Path 4416" d="M645.778,1095.458l24.863-18.223,20.341,8.913-24.908,18.2Z" transform="translate(-642.866 -1074.787)" fill="#f8f7f5"/>
          <g id="Group_2159" data-name="Group 2159" transform="translate(2.789 2.458)">
            <rect id="Rectangle_379" data-name="Rectangle 379" width="0.115" height="22.208" transform="translate(24.912 0.105) rotate(-66.338)" fill="#b5a9ad"/>
            <rect id="Rectangle_380" data-name="Rectangle 380" width="0.115" height="22.208" transform="translate(22.836 1.614) rotate(-66.338)" fill="#b5a9ad"/>
            <rect id="Rectangle_381" data-name="Rectangle 381" width="0.115" height="22.208" transform="matrix(0.401, -0.916, 0.916, 0.401, 20.76, 3.124)" fill="#b5a9ad"/>
            <rect id="Rectangle_382" data-name="Rectangle 382" width="0.115" height="22.208" transform="translate(18.684 4.633) rotate(-66.338)" fill="#b5a9ad"/>
            <rect id="Rectangle_383" data-name="Rectangle 383" width="0.115" height="22.208" transform="translate(16.608 6.143) rotate(-66.338)" fill="#b5a9ad"/>
            <rect id="Rectangle_384" data-name="Rectangle 384" width="0.115" height="22.208" transform="translate(14.532 7.652) rotate(-66.338)" fill="#b5a9ad"/>
            <rect id="Rectangle_385" data-name="Rectangle 385" width="0.115" height="22.208" transform="matrix(0.401, -0.916, 0.916, 0.401, 12.456, 9.162)" fill="#b5a9ad"/>
            <rect id="Rectangle_386" data-name="Rectangle 386" width="0.115" height="22.208" transform="translate(10.38 10.671) rotate(-66.338)" fill="#b5a9ad"/>
            <rect id="Rectangle_387" data-name="Rectangle 387" width="0.115" height="22.208" transform="translate(8.304 12.181) rotate(-66.338)" fill="#b5a9ad"/>
            <rect id="Rectangle_388" data-name="Rectangle 388" width="0.115" height="22.208" transform="matrix(0.401, -0.916, 0.916, 0.401, 6.228, 13.69)" fill="#b5a9ad"/>
            <rect id="Rectangle_389" data-name="Rectangle 389" width="0.115" height="22.208" transform="translate(4.152 15.199) rotate(-66.338)" fill="#b5a9ad"/>
            <rect id="Rectangle_390" data-name="Rectangle 390" width="0.115" height="22.208" transform="translate(2.076 16.709) rotate(-66.338)" fill="#b5a9ad"/>
            <rect id="Rectangle_391" data-name="Rectangle 391" width="0.115" height="22.208" transform="matrix(0.401, -0.916, 0.916, 0.401, 0, 18.218)" fill="#b5a9ad"/>
          </g>
        </g>
        <g id="Group_2164" data-name="Group 2164" transform="translate(1.887 0)">
          <g id="Group_2161" data-name="Group 2161" transform="translate(0 0.344)">
            <path id="Path_4417" data-name="Path 4417" d="M616.224,1069.764v.344l20.331,11.66,32.439-18.762v-.344l-16.523-9.455-3.882-1.878-6.167,3.234Z" transform="translate(-616.224 -1051.33)" fill="#b5a9ad"/>
          </g>
          <g id="Group_2162" data-name="Group 2162">
            <path id="Path_4418" data-name="Path 4418" d="M616.224,1067.367l20.331,11.66,32.439-18.762-16.523-9.455-3.882-2.221-6.167,3.578Z" transform="translate(-616.224 -1048.588)" fill="#d9ddf6"/>
          </g>
          <path id="Path_4419" data-name="Path 4419" d="M640.549,1081.423l26.663-15.47,19.275,11.03-26.706,15.445Z" transform="translate(-637.499 -1063.776)" fill="#f8f7f5"/>
          <g id="Group_2163" data-name="Group 2163" transform="translate(2.927 2.185)">
            <rect id="Rectangle_392" data-name="Rectangle 392" width="0.115" height="22.208" transform="matrix(0.497, -0.868, 0.868, 0.497, 26.7, 0.099)" fill="#b5a9ad"/>
            <rect id="Rectangle_393" data-name="Rectangle 393" width="0.115" height="22.208" transform="matrix(0.497, -0.868, 0.868, 0.497, 24.475, 1.379)" fill="#b5a9ad"/>
            <rect id="Rectangle_394" data-name="Rectangle 394" width="0.115" height="22.208" transform="translate(22.25 2.659) rotate(-60.221)" fill="#b5a9ad"/>
            <rect id="Rectangle_395" data-name="Rectangle 395" width="0.115" height="22.208" transform="translate(20.025 3.938) rotate(-60.221)" fill="#b5a9ad"/>
            <rect id="Rectangle_396" data-name="Rectangle 396" width="0.115" height="22.208" transform="matrix(0.497, -0.868, 0.868, 0.497, 17.8, 5.218)" fill="#b5a9ad"/>
            <rect id="Rectangle_397" data-name="Rectangle 397" width="0.115" height="22.208" transform="translate(15.575 6.498) rotate(-60.221)" fill="#b5a9ad"/>
            <rect id="Rectangle_398" data-name="Rectangle 398" width="0.115" height="22.208" transform="translate(13.35 7.777) rotate(-60.221)" fill="#b5a9ad"/>
            <rect id="Rectangle_399" data-name="Rectangle 399" width="0.115" height="22.208" transform="translate(11.125 9.057) rotate(-60.221)" fill="#b5a9ad"/>
            <rect id="Rectangle_400" data-name="Rectangle 400" width="0.115" height="22.208" transform="matrix(0.497, -0.868, 0.868, 0.497, 8.9, 10.337)" fill="#b5a9ad"/>
            <rect id="Rectangle_401" data-name="Rectangle 401" width="0.115" height="22.208" transform="matrix(0.497, -0.868, 0.868, 0.497, 6.675, 11.616)" fill="#b5a9ad"/>
            <rect id="Rectangle_402" data-name="Rectangle 402" width="0.115" height="22.208" transform="translate(4.45 12.896) rotate(-60.221)" fill="#b5a9ad"/>
            <rect id="Rectangle_403" data-name="Rectangle 403" width="0.115" height="22.208" transform="matrix(0.497, -0.868, 0.868, 0.497, 2.225, 14.175)" fill="#b5a9ad"/>
            <rect id="Rectangle_404" data-name="Rectangle 404" width="0.115" height="22.208" transform="matrix(0.497, -0.868, 0.868, 0.497, 0, 15.455)" fill="#b5a9ad"/>
          </g>
        </g>
      </g>
      <g id="Group_2168" data-name="Group 2168" transform="translate(310.301 239.017)">
        <g id="Group_2166" data-name="Group 2166" transform="translate(0 38.445)">
          <path id="Path_4420" data-name="Path 4420" d="M620.67,1098.917c-2.238,4.726,3.363,5.985,3.512-.994l-2.753-1.2C618.6,1098.944,620.67,1098.917,620.67,1098.917Z" transform="translate(-619.941 -1096.724)" fill="#f4a590"/>
          <path id="Path_4421" data-name="Path 4421" d="M931.648,1105.541s1.774-1.061-1.8-1.468l-1.715,2.465C931.926,1112.4,936.034,1108.389,931.648,1105.541Z" transform="translate(-889.49 -1103.151)" fill="#f4a590"/>
        </g>
        <path id="Path_4422" data-name="Path 4422" d="M631.984,906.3s1.909-11.136,6.959-13.652l.742-.3c3.943,2.518-.375,10.261-2.7,16.56-1.216,3.3-5.471,11.2-5.471,11.2l-3.386-2.17Z" transform="translate(-627.104 -879.533)" fill="#fac03b"/>
        <path id="Path_4423" data-name="Path 4423" d="M790.4,1481.592c.5.57,6.34,1.425,6.055,4.06-.356,1.353-8.69,1.211-10.186.57s-1.282-4.06-1.282-4.06Z" transform="translate(-764.278 -1394.886)" fill="#fac03b"/>
        <path id="Path_4424" data-name="Path 4424" d="M713.1,1435.442c-.214,3.633.783,3.847,2.066,3.775s5.339-3.413,5.234-4.2-3.667-.644-3.667-.644Z" transform="translate(-701.395 -1353.58)" fill="#fac03b"/>
        <path id="Path_4425" data-name="Path 4425" d="M713.446,1133.51c-.214.5-3.134,23.364-3.134,23.364s-.285,3.917-5.414,2.849v-20.586s-1.5-13.106-.641-18.663,7.764,1.282,7.764,1.282Z" transform="translate(-693.453 -1077.149)" fill="#2d2862"/>
        <path id="Path_4426" data-name="Path 4426" d="M747.744,1120.881l-12.109,2.351a47.827,47.827,0,0,0,3.419,8.548l2.778,34.9a8.455,8.455,0,0,0,5.912,0S748.528,1139.9,747.744,1120.881Z" transform="translate(-721.127 -1079.407)" fill="#2d2862"/>
        <path id="Path_4427" data-name="Path 4427" d="M715.524,922.772c-7.408,6.981-15.528,2.992-17.38,0q0-.61.006-1.205c.1-12.617,1.16-20.489.672-21.7a9.2,9.2,0,0,1-.487-1.632,8.4,8.4,0,0,1-.134-2.353c.32-3.725,2.643-4.93,6.495-2.595,4.7,2.849,10.115,3.419,11.112,7.266a17.511,17.511,0,0,1,.379,3.135A158.549,158.549,0,0,1,715.524,922.772Z" transform="translate(-688.338 -879.303)" fill="#fac03b"/>
        <g id="Group_2167" data-name="Group 2167" transform="translate(9.935 24.101)" opacity="0.5">
          <path id="Path_4428" data-name="Path 4428" d="M716.56,1001.547c-7.278,7.116-15.47,3.278-17.377.321q-.01-.61-.016-1.205c5.345,2.358,13.521-.95,12.561-4.228a23.805,23.805,0,0,1-.261-14.1l5.4.115A158.561,158.561,0,0,1,716.56,1001.547Z" transform="translate(-699.167 -982.334)" fill="#f57e12"/>
        </g>
        <path id="Path_4429" data-name="Path 4429" d="M810.777,942.436s-3.448-10.76-8.8-12.544l-.776-.189c-3.552,3.045.432,11.088,4.987,16.02a92.877,92.877,0,0,0,9.7,8.952l2.418-3.043Z" transform="translate(-777.277 -912.202)" fill="#fac03b"/>
        <path id="Path_4430" data-name="Path 4430" d="M730.141,817.028s-4.607,2.16-4.607-1.3v-3.167a6.465,6.465,0,0,1-2.3-5.759c.432-3.743,6.479-6.478,9.358-2.879,1.584,2.3,1.235,9.048.72,10.078-.72,1.44-3.311.144-3.311.144Z" transform="translate(-710.238 -800.724)" fill="#f4a590"/>
        <path id="Path_4431" data-name="Path 4431" d="M766.969,890.131l.083,1.647a3.829,3.829,0,0,1-1.594-2.66,15.127,15.127,0,0,0,1.8,1.14C767.077,890.185,766.969,890.131,766.969,890.131Z" transform="translate(-747.211 -876.706)" fill="#ffbd8b" style="mix-blend-mode: multiply;isolation: isolate"/>
        <path id="Path_4432" data-name="Path 4432" d="M722.021,798.809c0-1.44,2.3-2.3,3.023-3.6a8.143,8.143,0,0,0,.576-3.6,7.779,7.779,0,0,1-1.728-.576c-.432-.288-6.479-3.023-9.358,2.735-2.879,2.735-.432,7.2,2.3,8.206,0,1.44,3.887,1.008,4.031,0A17.264,17.264,0,0,1,722.021,798.809Z" transform="translate(-701.543 -790.135)" fill="#2d2862"/>
        <circle id="Ellipse_301" data-name="Ellipse 301" cx="1.368" cy="1.368" r="1.368" transform="translate(18.329 9.178) rotate(-45)" fill="#f4a590"/>
        <path id="Path_4433" data-name="Path 4433" d="M741.253,899.33c-4.953,1.869-4.5-2.291-4.5-2.291s-1.7,1.924.044,3.539,5.293.243,5.878-.624Z" transform="translate(-721.457 -883.633)" fill="#fffdff"/>
      </g>
      <g id="Group_2169" data-name="Group 2169" transform="translate(383.922 324.002)" opacity="0.4" style="mix-blend-mode: multiply;isolation: isolate">
        <path id="Path_4434" data-name="Path 4434" d="M1252.508,1467.868l-45.457,26.258,4.659,2.682,45.175-26.258Z" transform="translate(-1207.051 -1467.868)" fill="#3baad8"/>
      </g>
    </g>
  </g>
</svg>
