<svg xmlns="http://www.w3.org/2000/svg" width="383.741" height="257.755" viewBox="0 0 383.741 257.755">
  <g id="Overlay2" transform="translate(-757.259 -1178)">
    <g id="Group_2120" data-name="Group 2120" transform="translate(404.512 1035.76)">
      <g id="Group_2113" data-name="Group 2113" transform="translate(352.747 142.24)">
        <g id="Group_2108" data-name="Group 2108">
          <path id="Path_4298" data-name="Path 4298" d="M357.837,144.785a2.545,2.545,0,1,1-2.545-2.545A2.546,2.546,0,0,1,357.837,144.785Z" transform="translate(-352.747 -142.24)" fill="#ff672d"/>
          <path id="Path_4299" data-name="Path 4299" d="M364.687,144.785a2.545,2.545,0,1,1-2.544-2.545A2.545,2.545,0,0,1,364.687,144.785Z" transform="translate(-351.025 -142.24)" fill="#ff672d"/>
          <path id="Path_4300" data-name="Path 4300" d="M371.538,144.785a2.545,2.545,0,1,1-2.545-2.545A2.545,2.545,0,0,1,371.538,144.785Z" transform="translate(-349.303 -142.24)" fill="#ff672d"/>
          <path id="Path_4301" data-name="Path 4301" d="M378.389,144.785a2.545,2.545,0,1,1-2.545-2.545A2.546,2.546,0,0,1,378.389,144.785Z" transform="translate(-347.582 -142.24)" fill="#ff672d"/>
          <path id="Path_4302" data-name="Path 4302" d="M385.239,144.785a2.545,2.545,0,1,1-2.544-2.545A2.545,2.545,0,0,1,385.239,144.785Z" transform="translate(-345.86 -142.24)" fill="#ff672d"/>
          <path id="Path_4303" data-name="Path 4303" d="M392.09,144.785a2.545,2.545,0,1,1-2.545-2.545A2.546,2.546,0,0,1,392.09,144.785Z" transform="translate(-344.139 -142.24)" fill="#ff672d"/>
        </g>
        <g id="Group_2109" data-name="Group 2109" transform="translate(0 8.305)">
          <path id="Path_4304" data-name="Path 4304" d="M357.837,151.421a2.545,2.545,0,1,1-2.545-2.544A2.545,2.545,0,0,1,357.837,151.421Z" transform="translate(-352.747 -148.877)" fill="#ff672d"/>
          <path id="Path_4305" data-name="Path 4305" d="M364.687,151.421a2.545,2.545,0,1,1-2.544-2.544A2.544,2.544,0,0,1,364.687,151.421Z" transform="translate(-351.025 -148.877)" fill="#ff672d"/>
          <path id="Path_4306" data-name="Path 4306" d="M371.538,151.421a2.545,2.545,0,1,1-2.545-2.544A2.544,2.544,0,0,1,371.538,151.421Z" transform="translate(-349.303 -148.877)" fill="#ff672d"/>
          <circle id="Ellipse_255" data-name="Ellipse 255" cx="2.545" cy="2.545" r="2.545" transform="translate(25.717)" fill="#ff672d"/>
          <circle id="Ellipse_256" data-name="Ellipse 256" cx="2.545" cy="2.545" r="2.545" transform="translate(34.29)" fill="#ff672d"/>
          <circle id="Ellipse_257" data-name="Ellipse 257" cx="2.545" cy="2.545" r="2.545" transform="translate(42.862)" fill="#ff672d"/>
        </g>
        <g id="Group_2110" data-name="Group 2110" transform="translate(0 16.609)">
          <path id="Path_4307" data-name="Path 4307" d="M357.837,158.058a2.545,2.545,0,1,1-2.545-2.545A2.546,2.546,0,0,1,357.837,158.058Z" transform="translate(-352.747 -155.513)" fill="#ff672d"/>
          <path id="Path_4308" data-name="Path 4308" d="M364.687,158.058a2.545,2.545,0,1,1-2.544-2.545A2.545,2.545,0,0,1,364.687,158.058Z" transform="translate(-351.025 -155.513)" fill="#ff672d"/>
          <path id="Path_4309" data-name="Path 4309" d="M371.538,158.058a2.545,2.545,0,1,1-2.545-2.545A2.545,2.545,0,0,1,371.538,158.058Z" transform="translate(-349.303 -155.513)" fill="#ff672d"/>
          <path id="Path_4310" data-name="Path 4310" d="M378.389,158.058a2.545,2.545,0,1,1-2.545-2.545A2.546,2.546,0,0,1,378.389,158.058Z" transform="translate(-347.582 -155.513)" fill="#ff672d"/>
          <path id="Path_4311" data-name="Path 4311" d="M385.239,158.058a2.545,2.545,0,1,1-2.544-2.545A2.545,2.545,0,0,1,385.239,158.058Z" transform="translate(-345.86 -155.513)" fill="#ff672d"/>
          <path id="Path_4312" data-name="Path 4312" d="M392.09,158.058a2.545,2.545,0,1,1-2.545-2.545A2.546,2.546,0,0,1,392.09,158.058Z" transform="translate(-344.139 -155.513)" fill="#ff672d"/>
        </g>
        <g id="Group_2111" data-name="Group 2111" transform="translate(0 24.914)">
          <path id="Path_4313" data-name="Path 4313" d="M357.837,164.7a2.545,2.545,0,1,1-2.545-2.545A2.545,2.545,0,0,1,357.837,164.7Z" transform="translate(-352.747 -162.15)" fill="#ff672d"/>
          <path id="Path_4314" data-name="Path 4314" d="M364.687,164.7a2.545,2.545,0,1,1-2.544-2.545A2.544,2.544,0,0,1,364.687,164.7Z" transform="translate(-351.025 -162.15)" fill="#ff672d"/>
          <path id="Path_4315" data-name="Path 4315" d="M371.538,164.7a2.545,2.545,0,1,1-2.545-2.545A2.544,2.544,0,0,1,371.538,164.7Z" transform="translate(-349.303 -162.15)" fill="#ff672d"/>
          <path id="Path_4316" data-name="Path 4316" d="M378.389,164.7a2.545,2.545,0,1,1-2.545-2.545A2.545,2.545,0,0,1,378.389,164.7Z" transform="translate(-347.582 -162.15)" fill="#ff672d"/>
          <path id="Path_4317" data-name="Path 4317" d="M385.239,164.7a2.545,2.545,0,1,1-2.544-2.545A2.544,2.544,0,0,1,385.239,164.7Z" transform="translate(-345.86 -162.15)" fill="#ff672d"/>
          <path id="Path_4318" data-name="Path 4318" d="M392.09,164.7a2.545,2.545,0,1,1-2.545-2.545A2.545,2.545,0,0,1,392.09,164.7Z" transform="translate(-344.139 -162.15)" fill="#ff672d"/>
        </g>
        <g id="Group_2112" data-name="Group 2112" transform="translate(0 33.217)">
          <path id="Path_4319" data-name="Path 4319" d="M357.837,171.331a2.545,2.545,0,1,1-2.545-2.545A2.546,2.546,0,0,1,357.837,171.331Z" transform="translate(-352.747 -168.786)" fill="#ff672d"/>
          <path id="Path_4320" data-name="Path 4320" d="M364.687,171.331a2.545,2.545,0,1,1-2.544-2.545A2.545,2.545,0,0,1,364.687,171.331Z" transform="translate(-351.025 -168.786)" fill="#ff672d"/>
          <path id="Path_4321" data-name="Path 4321" d="M371.538,171.331a2.545,2.545,0,1,1-2.545-2.545A2.545,2.545,0,0,1,371.538,171.331Z" transform="translate(-349.303 -168.786)" fill="#ff672d"/>
          <circle id="Ellipse_258" data-name="Ellipse 258" cx="2.545" cy="2.545" r="2.545" transform="translate(25.717 0)" fill="#ff672d"/>
          <circle id="Ellipse_259" data-name="Ellipse 259" cx="2.545" cy="2.545" r="2.545" transform="translate(34.29 0)" fill="#ff672d"/>
          <circle id="Ellipse_260" data-name="Ellipse 260" cx="2.545" cy="2.545" r="2.545" transform="translate(42.862 0)" fill="#ff672d"/>
        </g>
      </g>
      <g id="Group_2119" data-name="Group 2119" transform="translate(709.724 243.858)">
        <g id="Group_2114" data-name="Group 2114" transform="translate(0)">
          <circle id="Ellipse_261" data-name="Ellipse 261" cx="1.42" cy="1.42" r="1.42" fill="#ff672d"/>
          <circle id="Ellipse_262" data-name="Ellipse 262" cx="1.42" cy="1.42" r="1.42" transform="translate(4.785 0)" fill="#ff672d"/>
          <circle id="Ellipse_263" data-name="Ellipse 263" cx="1.42" cy="1.42" r="1.42" transform="translate(9.57 0)" fill="#ff672d"/>
          <path id="Path_4322" data-name="Path 4322" d="M652.339,224.869a1.42,1.42,0,1,1-1.42-1.42A1.42,1.42,0,0,1,652.339,224.869Z" transform="translate(-635.145 -223.449)" fill="#ff672d"/>
          <path id="Path_4323" data-name="Path 4323" d="M656.164,224.869a1.42,1.42,0,1,1-1.42-1.42A1.42,1.42,0,0,1,656.164,224.869Z" transform="translate(-634.184 -223.449)" fill="#ff672d"/>
          <circle id="Ellipse_264" data-name="Ellipse 264" cx="1.42" cy="1.42" r="1.42" transform="translate(23.924 0)" fill="#ff672d"/>
        </g>
        <g id="Group_2115" data-name="Group 2115" transform="translate(0 4.635)">
          <circle id="Ellipse_265" data-name="Ellipse 265" cx="1.42" cy="1.42" r="1.42" transform="translate(0 0)" fill="#ff672d"/>
          <circle id="Ellipse_266" data-name="Ellipse 266" cx="1.42" cy="1.42" r="1.42" transform="translate(4.785 0)" fill="#ff672d"/>
          <circle id="Ellipse_267" data-name="Ellipse 267" cx="1.42" cy="1.42" r="1.42" transform="translate(9.57 0)" fill="#ff672d"/>
          <path id="Path_4324" data-name="Path 4324" d="M652.339,228.573a1.42,1.42,0,1,1-1.42-1.42A1.421,1.421,0,0,1,652.339,228.573Z" transform="translate(-635.145 -227.153)" fill="#ff672d"/>
          <path id="Path_4325" data-name="Path 4325" d="M656.164,228.573a1.42,1.42,0,1,1-1.42-1.42A1.421,1.421,0,0,1,656.164,228.573Z" transform="translate(-634.184 -227.153)" fill="#ff672d"/>
          <circle id="Ellipse_268" data-name="Ellipse 268" cx="1.42" cy="1.42" r="1.42" transform="translate(23.924 0)" fill="#ff672d"/>
        </g>
        <g id="Group_2116" data-name="Group 2116" transform="translate(0 9.27)">
          <circle id="Ellipse_269" data-name="Ellipse 269" cx="1.42" cy="1.42" r="1.42" transform="translate(0 0)" fill="#ff672d"/>
          <circle id="Ellipse_270" data-name="Ellipse 270" cx="1.42" cy="1.42" r="1.42" transform="translate(4.785 0.001)" fill="#ff672d"/>
          <circle id="Ellipse_271" data-name="Ellipse 271" cx="1.42" cy="1.42" r="1.42" transform="translate(9.57 0.001)" fill="#ff672d"/>
          <path id="Path_4326" data-name="Path 4326" d="M652.339,232.279a1.42,1.42,0,1,1-1.42-1.422A1.42,1.42,0,0,1,652.339,232.279Z" transform="translate(-635.145 -230.857)" fill="#ff672d"/>
          <path id="Path_4327" data-name="Path 4327" d="M656.164,232.279a1.42,1.42,0,1,1-1.42-1.422A1.42,1.42,0,0,1,656.164,232.279Z" transform="translate(-634.184 -230.857)" fill="#ff672d"/>
          <circle id="Ellipse_272" data-name="Ellipse 272" cx="1.42" cy="1.42" r="1.42" transform="translate(23.924 0.001)" fill="#ff672d"/>
        </g>
        <g id="Group_2117" data-name="Group 2117" transform="translate(0 13.906)">
          <circle id="Ellipse_273" data-name="Ellipse 273" cx="1.42" cy="1.42" r="1.42" fill="#ff672d"/>
          <circle id="Ellipse_274" data-name="Ellipse 274" cx="1.42" cy="1.42" r="1.42" transform="translate(4.785 0)" fill="#ff672d"/>
          <circle id="Ellipse_275" data-name="Ellipse 275" cx="1.42" cy="1.42" r="1.42" transform="translate(9.57 0)" fill="#ff672d"/>
          <path id="Path_4328" data-name="Path 4328" d="M652.339,235.982a1.42,1.42,0,1,1-1.42-1.42A1.42,1.42,0,0,1,652.339,235.982Z" transform="translate(-635.145 -234.562)" fill="#ff672d"/>
          <path id="Path_4329" data-name="Path 4329" d="M656.164,235.982a1.42,1.42,0,1,1-1.42-1.42A1.42,1.42,0,0,1,656.164,235.982Z" transform="translate(-634.184 -234.562)" fill="#ff672d"/>
          <circle id="Ellipse_276" data-name="Ellipse 276" cx="1.42" cy="1.42" r="1.42" transform="translate(23.924 0)" fill="#ff672d"/>
        </g>
        <g id="Group_2118" data-name="Group 2118" transform="translate(0 18.541)">
          <circle id="Ellipse_277" data-name="Ellipse 277" cx="1.42" cy="1.42" r="1.42" fill="#ff672d"/>
          <circle id="Ellipse_278" data-name="Ellipse 278" cx="1.42" cy="1.42" r="1.42" transform="translate(4.785 0)" fill="#ff672d"/>
          <circle id="Ellipse_279" data-name="Ellipse 279" cx="1.42" cy="1.42" r="1.42" transform="translate(9.57 0)" fill="#ff672d"/>
          <path id="Path_4330" data-name="Path 4330" d="M652.339,239.686a1.42,1.42,0,1,1-1.42-1.42A1.42,1.42,0,0,1,652.339,239.686Z" transform="translate(-635.145 -238.266)" fill="#ff672d"/>
          <path id="Path_4331" data-name="Path 4331" d="M656.164,239.686a1.42,1.42,0,1,1-1.42-1.42A1.42,1.42,0,0,1,656.164,239.686Z" transform="translate(-634.184 -238.266)" fill="#ff672d"/>
          <circle id="Ellipse_280" data-name="Ellipse 280" cx="1.42" cy="1.42" r="1.42" transform="translate(23.924 0)" fill="#ff672d"/>
        </g>
      </g>
    </g>
    <g id="Group_2122" data-name="Group 2122" transform="translate(482.923 1062.949)">
      <path id="Path_4332" data-name="Path 4332" d="M312.357,369.238a3.14,3.14,0,1,1-3.14-3.14A3.14,3.14,0,0,1,312.357,369.238Z" fill="none" stroke="#ff672d" stroke-miterlimit="10" stroke-width="0.856"/>
      <path id="Path_4333" data-name="Path 4333" d="M630.625,291.455a3.283,3.283,0,1,1-3.282-3.282A3.282,3.282,0,0,1,630.625,291.455Z" fill="none" stroke="#ff672d" stroke-miterlimit="10" stroke-width="0.856"/>
      <g id="Group_2121" data-name="Group 2121">
        <circle id="Ellipse_281" data-name="Ellipse 281" cx="3.283" cy="3.283" r="3.283" transform="translate(380.721 116.051)" fill="none" stroke="#ff672d" stroke-miterlimit="10" stroke-width="0.856"/>
        <path id="Path_4334" data-name="Path 4334" d="M464.5,171.855a4.995,4.995,0,1,1-4.995-4.995A4.995,4.995,0,0,1,464.5,171.855Z" fill="none" stroke="#ff672d" stroke-miterlimit="10" stroke-width="0.856"/>
        <path id="Path_4335" data-name="Path 4335" d="M626.629,139.457a4,4,0,1,1-4-4A4,4,0,0,1,626.629,139.457Z" fill="none" stroke="#ff672d" stroke-miterlimit="10" stroke-width="0.856"/>
      </g>
    </g>
  </g>
</svg>
