<svg xmlns="http://www.w3.org/2000/svg" width="417.406" height="370.072" viewBox="0 0 417.406 370.072">
  <g id="Overlay1" transform="translate(-1812.267 -123.49)">
    <path id="Path_4264" data-name="Path 4264" d="M2174.052,489.177a1.692,1.692,0,0,1,1.691,2.192,2.917,2.917,0,0,1-2.693,2.193,1.693,1.693,0,0,1-1.691-2.193A2.916,2.916,0,0,1,2174.052,489.177Z" fill="#fff"/>
    <path id="Path_4265" data-name="Path 4265" d="M2186.246,489.177a1.692,1.692,0,0,1,1.691,2.192,2.915,2.915,0,0,1-2.693,2.193,1.692,1.692,0,0,1-1.691-2.193A2.918,2.918,0,0,1,2186.246,489.177Z" fill="#fff"/>
    <path id="Path_4266" data-name="Path 4266" d="M2198.441,489.177a1.693,1.693,0,0,1,1.691,2.192,2.918,2.918,0,0,1-2.694,2.193,1.693,1.693,0,0,1-1.691-2.193A2.917,2.917,0,0,1,2198.441,489.177Z" fill="#fff"/>
    <path id="Path_4267" data-name="Path 4267" d="M2210.635,489.177a1.692,1.692,0,0,1,1.691,2.192,2.917,2.917,0,0,1-2.693,2.193,1.693,1.693,0,0,1-1.691-2.193A2.916,2.916,0,0,1,2210.635,489.177Z" fill="#fff"/>
    <path id="Path_4268" data-name="Path 4268" d="M2176.933,476.572a1.693,1.693,0,0,1,1.692,2.192,2.917,2.917,0,0,1-2.694,2.192,1.691,1.691,0,0,1-1.691-2.192A2.916,2.916,0,0,1,2176.933,476.572Z" fill="#fff"/>
    <path id="Path_4269" data-name="Path 4269" d="M2189.128,476.572a1.692,1.692,0,0,1,1.691,2.192,2.917,2.917,0,0,1-2.693,2.192,1.692,1.692,0,0,1-1.692-2.192A2.916,2.916,0,0,1,2189.128,476.572Z" fill="#fff"/>
    <path id="Path_4270" data-name="Path 4270" d="M2201.322,476.572a1.692,1.692,0,0,1,1.691,2.192,2.915,2.915,0,0,1-2.693,2.192,1.692,1.692,0,0,1-1.691-2.192A2.916,2.916,0,0,1,2201.322,476.572Z" fill="#fff"/>
    <path id="Path_4271" data-name="Path 4271" d="M2213.516,476.572a1.693,1.693,0,0,1,1.692,2.192,2.917,2.917,0,0,1-2.694,2.192,1.692,1.692,0,0,1-1.691-2.192A2.916,2.916,0,0,1,2213.516,476.572Z" fill="#fff"/>
    <path id="Path_4272" data-name="Path 4272" d="M2179.815,463.966a1.692,1.692,0,0,1,1.691,2.193,2.918,2.918,0,0,1-2.693,2.192,1.692,1.692,0,0,1-1.691-2.192A2.915,2.915,0,0,1,2179.815,463.966Z" fill="#fff"/>
    <path id="Path_4273" data-name="Path 4273" d="M2192.009,463.966a1.692,1.692,0,0,1,1.691,2.193,2.915,2.915,0,0,1-2.693,2.192,1.692,1.692,0,0,1-1.691-2.192A2.918,2.918,0,0,1,2192.009,463.966Z" fill="#fff"/>
    <path id="Path_4274" data-name="Path 4274" d="M2204.2,463.966a1.692,1.692,0,0,1,1.691,2.193,2.918,2.918,0,0,1-2.694,2.192,1.693,1.693,0,0,1-1.691-2.192A2.918,2.918,0,0,1,2204.2,463.966Z" fill="#fff"/>
    <path id="Path_4275" data-name="Path 4275" d="M2216.4,463.966a1.692,1.692,0,0,1,1.691,2.193,2.917,2.917,0,0,1-2.693,2.192,1.692,1.692,0,0,1-1.691-2.192A2.916,2.916,0,0,1,2216.4,463.966Z" fill="#fff"/>
    <ellipse id="Ellipse_251" data-name="Ellipse 251" cx="2.457" cy="1.956" rx="2.457" ry="1.956" transform="translate(2179.06 453.729) rotate(-41.74)" fill="#fff"/>
    <path id="Path_4276" data-name="Path 4276" d="M2194.891,451.361a1.692,1.692,0,0,1,1.691,2.192,2.916,2.916,0,0,1-2.693,2.192,1.691,1.691,0,0,1-1.691-2.192A2.914,2.914,0,0,1,2194.891,451.361Z" fill="#fff"/>
    <path id="Path_4277" data-name="Path 4277" d="M2207.085,451.361a1.692,1.692,0,0,1,1.691,2.192,2.914,2.914,0,0,1-2.693,2.192,1.691,1.691,0,0,1-1.691-2.192A2.916,2.916,0,0,1,2207.085,451.361Z" fill="#fff"/>
    <path id="Path_4278" data-name="Path 4278" d="M2219.28,451.361a1.692,1.692,0,0,1,1.691,2.192,2.916,2.916,0,0,1-2.694,2.192,1.692,1.692,0,0,1-1.691-2.192A2.917,2.917,0,0,1,2219.28,451.361Z" fill="#fff"/>
    <path id="Path_4279" data-name="Path 4279" d="M2185.578,438.756a1.692,1.692,0,0,1,1.691,2.192,2.914,2.914,0,0,1-2.693,2.192,1.692,1.692,0,0,1-1.691-2.192A2.916,2.916,0,0,1,2185.578,438.756Z" fill="#fff"/>
    <path id="Path_4280" data-name="Path 4280" d="M2197.773,438.756a1.693,1.693,0,0,1,1.691,2.192,2.917,2.917,0,0,1-2.694,2.192,1.692,1.692,0,0,1-1.691-2.192A2.916,2.916,0,0,1,2197.773,438.756Z" fill="#fff"/>
    <path id="Path_4281" data-name="Path 4281" d="M2209.967,438.756a1.691,1.691,0,0,1,1.691,2.192,2.917,2.917,0,0,1-2.693,2.192,1.693,1.693,0,0,1-1.692-2.192A2.917,2.917,0,0,1,2209.967,438.756Z" fill="#fff"/>
    <path id="Path_4282" data-name="Path 4282" d="M2222.161,438.756a1.692,1.692,0,0,1,1.691,2.192,2.917,2.917,0,0,1-2.693,2.192,1.692,1.692,0,0,1-1.691-2.192A2.915,2.915,0,0,1,2222.161,438.756Z" fill="#fff"/>
    <path id="Path_4283" data-name="Path 4283" d="M2188.46,426.15a1.692,1.692,0,0,1,1.691,2.192,2.917,2.917,0,0,1-2.693,2.193,1.693,1.693,0,0,1-1.692-2.193A2.917,2.917,0,0,1,2188.46,426.15Z" fill="#fff"/>
    <path id="Path_4284" data-name="Path 4284" d="M2200.654,426.15a1.692,1.692,0,0,1,1.691,2.192,2.915,2.915,0,0,1-2.693,2.193,1.692,1.692,0,0,1-1.691-2.193A2.916,2.916,0,0,1,2200.654,426.15Z" fill="#fff"/>
    <path id="Path_4285" data-name="Path 4285" d="M2212.849,426.15a1.693,1.693,0,0,1,1.691,2.192,2.918,2.918,0,0,1-2.694,2.193,1.692,1.692,0,0,1-1.691-2.193A2.917,2.917,0,0,1,2212.849,426.15Z" fill="#fff"/>
    <path id="Path_4286" data-name="Path 4286" d="M2225.043,426.15a1.692,1.692,0,0,1,1.691,2.192,2.917,2.917,0,0,1-2.694,2.193,1.693,1.693,0,0,1-1.691-2.193A2.917,2.917,0,0,1,2225.043,426.15Z" fill="#fff"/>
    <path id="Path_4287" data-name="Path 4287" d="M2191.341,413.545a1.692,1.692,0,0,1,1.692,2.192,2.916,2.916,0,0,1-2.694,2.192,1.692,1.692,0,0,1-1.691-2.192A2.917,2.917,0,0,1,2191.341,413.545Z" fill="#fff"/>
    <path id="Path_4288" data-name="Path 4288" d="M2203.536,413.545a1.692,1.692,0,0,1,1.691,2.192,2.917,2.917,0,0,1-2.694,2.192,1.692,1.692,0,0,1-1.691-2.192A2.916,2.916,0,0,1,2203.536,413.545Z" fill="#fff"/>
    <path id="Path_4289" data-name="Path 4289" d="M2215.73,413.545a1.691,1.691,0,0,1,1.691,2.192,2.915,2.915,0,0,1-2.693,2.192,1.691,1.691,0,0,1-1.691-2.192A2.914,2.914,0,0,1,2215.73,413.545Z" fill="#fff"/>
    <path id="Path_4290" data-name="Path 4290" d="M2227.924,413.545a1.692,1.692,0,0,1,1.692,2.192,2.916,2.916,0,0,1-2.694,2.192,1.692,1.692,0,0,1-1.691-2.192A2.917,2.917,0,0,1,2227.924,413.545Z" fill="#fff"/>
    <g id="Group_2107" data-name="Group 2107" transform="translate(1665.302 -989.455)">
      <g id="Group_2106" data-name="Group 2106" transform="translate(156 1131)">
        <g id="Group_2105" data-name="Group 2105" transform="translate(0 0)">
          <g id="Group_2103" data-name="Group 2103" transform="translate(0 0)">
            <path id="Path_4291" data-name="Path 4291" d="M313.721,369.92A3.822,3.822,0,1,1,309.9,366.1,3.822,3.822,0,0,1,313.721,369.92Z" transform="translate(-306.077 -61.734)" fill="none" stroke="#fff" stroke-miterlimit="10" stroke-width="0.856"/>
            <path id="Path_4292" data-name="Path 4292" d="M632.051,292.168a4,4,0,1,1-3.995-3.995A4,4,0,0,1,632.051,292.168Z" transform="translate(-237.002 -78.661)" fill="none" stroke="#fff" stroke-miterlimit="10" stroke-width="0.856"/>
            <g id="Group_2102" data-name="Group 2102" transform="translate(90.858)">
              <circle id="Ellipse_252" data-name="Ellipse 252" cx="3.996" cy="3.996" r="3.996" fill="none" stroke="#fff" stroke-miterlimit="10" stroke-width="0.856"/>
              <path id="Path_4293" data-name="Path 4293" d="M466.668,172.94a6.08,6.08,0,1,1-6.08-6.08A6.08,6.08,0,0,1,466.668,172.94Z" transform="translate(-364.692 -105.014)" fill="none" stroke="#fff" stroke-miterlimit="10" stroke-width="0.856"/>
              <path id="Path_4294" data-name="Path 4294" d="M628.365,140.325a4.864,4.864,0,1,1-4.864-4.864A4.864,4.864,0,0,1,628.365,140.325Z" transform="translate(-329.039 -111.834)" fill="none" stroke="#fff" stroke-miterlimit="10" stroke-width="0.856"/>
            </g>
          </g>
          <circle id="Ellipse_253" data-name="Ellipse 253" cx="54.561" cy="54.561" r="54.561" transform="matrix(0.259, -0.966, 0.966, 0.259, -8.586, 87.798)" fill="none" stroke="#fff" stroke-linecap="round" stroke-miterlimit="10" stroke-width="0.732"/>
          <g id="Group_2104" data-name="Group 2104" transform="translate(15.309 6.289)">
            <path id="Path_4295" data-name="Path 4295" d="M390.943,221.225a42.909,42.909,0,1,1,74.122-18.812" transform="translate(-380.269 -149.971)" fill="none" stroke="#fff" stroke-linecap="round" stroke-miterlimit="10" stroke-width="0.732"/>
            <path id="Path_4296" data-name="Path 4296" d="M419.627,221.686a42.731,42.731,0,0,1-22.931-6.631" transform="translate(-376.701 -135.833)" fill="none" stroke="#fff" stroke-linecap="round" stroke-miterlimit="10" stroke-width="0.732"/>
            <path id="Path_4297" data-name="Path 4297" d="M448.006,199.915s-1.675,4.905-4.905,6.461" transform="translate(-366.62 -139.122)" fill="none" stroke="#fff" stroke-linecap="round" stroke-miterlimit="10" stroke-width="0.732"/>
          </g>
          <circle id="Ellipse_254" data-name="Ellipse 254" cx="22.814" cy="22.814" r="22.814" transform="translate(32.044 68.055) rotate(-80.728)" fill="none" stroke="#fff" stroke-linecap="round" stroke-miterlimit="10" stroke-width="0.732"/>
        </g>
      </g>
    </g>
  </g>
</svg>
