<svg xmlns="http://www.w3.org/2000/svg" width="59" height="59" viewBox="0 0 59 59">
  <g id="Personlized_Teaching" transform="translate(-132.405 -2247.386)">
    <path id="Path_4221" data-name="Path 4221" d="M172.9,2305.386V2295.6a5,5,0,0,1,1.054-3.069l1.733-2.229a20,20,0,0,0,4.213-12.279v-2.138a18,18,0,0,0-18-18h0a17.917,17.917,0,0,0-9.967,3.009" fill="none" stroke="#37474f" stroke-linecap="round" stroke-linejoin="round" stroke-width="1"/>
    <path id="Path_4222" data-name="Path 4222" d="M145.111,2269.4a17.951,17.951,0,0,0-1.206,6.491v1l-5.653,6.864a1,1,0,0,0,.772,1.636H144.9v6.5a5,5,0,0,0,5,5h4.5a2.5,2.5,0,0,1,2.5,2.5v6" fill="none" stroke="#37474f" stroke-linecap="round" stroke-linejoin="round" stroke-width="1"/>
    <path id="Path_4223" data-name="Path 4223" d="M148.945,2263.4a18.046,18.046,0,0,0-2.337,3" fill="none" stroke="#37474f" stroke-linecap="round" stroke-linejoin="round" stroke-width="1"/>
    <path id="Path_4224" data-name="Path 4224" d="M171.9,2276.886a10,10,0,0,0-10-10v10Z" fill="#fff" stroke="#37474f" stroke-linecap="round" stroke-linejoin="round" stroke-width="1"/>
    <path id="Path_4225" data-name="Path 4225" d="M151.9,2276.886a10,10,0,0,0,10,10v-10Z" fill="#ef5350" stroke="#37474f" stroke-linecap="round" stroke-linejoin="round" stroke-width="1"/>
    <path id="Path_4226" data-name="Path 4226" d="M161.9,2286.886a10,10,0,0,0,10-10h-10Z" fill="#64b5f6" stroke="#37474f" stroke-linecap="round" stroke-linejoin="round" stroke-width="1"/>
    <path id="Path_4227" data-name="Path 4227" d="M161.9,2266.886a10,10,0,0,0-10,10h10Z" fill="#ffca28" stroke="#37474f" stroke-linecap="round" stroke-linejoin="round" stroke-width="1"/>
    <line id="Line_176" data-name="Line 176" x1="20" y1="20" transform="translate(136.905 2251.886)" fill="none" stroke="#37474f" stroke-linecap="round" stroke-linejoin="round" stroke-width="1"/>
    <line id="Line_177" data-name="Line 177" y1="20" x2="20" transform="translate(166.905 2251.886)" fill="none" stroke="#37474f" stroke-linecap="round" stroke-linejoin="round" stroke-width="1"/>
    <line id="Line_178" data-name="Line 178" x2="20" y2="20" transform="translate(166.905 2281.886)" fill="none" stroke="#37474f" stroke-linecap="round" stroke-linejoin="round" stroke-width="1"/>
    <line id="Line_179" data-name="Line 179" x1="20" y2="20" transform="translate(136.905 2281.886)" fill="none" stroke="#37474f" stroke-linecap="round" stroke-linejoin="round" stroke-width="1"/>
    <circle id="Ellipse_243" data-name="Ellipse 243" cx="4" cy="4" r="4" transform="translate(132.905 2247.886)" fill="none" stroke="#37474f" stroke-linecap="round" stroke-linejoin="round" stroke-width="1"/>
    <circle id="Ellipse_244" data-name="Ellipse 244" cx="4" cy="4" r="4" transform="translate(182.905 2247.886)" fill="none" stroke="#37474f" stroke-linecap="round" stroke-linejoin="round" stroke-width="1"/>
    <circle id="Ellipse_245" data-name="Ellipse 245" cx="4" cy="4" r="4" transform="translate(132.905 2297.886)" fill="none" stroke="#37474f" stroke-linecap="round" stroke-linejoin="round" stroke-width="1"/>
    <circle id="Ellipse_246" data-name="Ellipse 246" cx="4" cy="4" r="4" transform="translate(182.905 2297.886)" fill="none" stroke="#37474f" stroke-linecap="round" stroke-linejoin="round" stroke-width="1"/>
  </g>
</svg>
