<svg xmlns="http://www.w3.org/2000/svg" width="64" height="57.018" viewBox="0 0 64 57.018">
  <g id="Teach_in_Ur_Lang" transform="translate(-561.905 -2680.366)">
    <path id="Path_4202" data-name="Path 4202" d="M599.405,2708.885a14.013,14.013,0,0,1,9.469-13.233,19.938,19.938,0,0,0-29.937,0,13.981,13.981,0,0,1,0,26.466,19.938,19.938,0,0,0,29.937,0A14.014,14.014,0,0,1,599.405,2708.885Z" fill="#64b5f6"/>
    <path id="Path_4203" data-name="Path 4203" d="M608.782,2695.549a19.937,19.937,0,0,0-29.755,0" fill="none" stroke="#37474f" stroke-linecap="round" stroke-linejoin="round" stroke-width="1"/>
    <path id="Path_4204" data-name="Path 4204" d="M579.028,2722.22a19.936,19.936,0,0,0,29.755,0" fill="none" stroke="#37474f" stroke-linecap="round" stroke-linejoin="round" stroke-width="1"/>
    <path id="Path_4205" data-name="Path 4205" d="M579.028,2695.551c3.662,2.042,8.961,3.334,14.877,3.334s11.216-1.292,14.877-3.334" fill="none" stroke="#37474f" stroke-linecap="round" stroke-linejoin="round" stroke-width="1"/>
    <path id="Path_4206" data-name="Path 4206" d="M608.782,2722.218c-3.661-2.041-8.961-3.333-14.877-3.333s-11.215,1.292-14.877,3.333" fill="none" stroke="#37474f" stroke-linecap="round" stroke-linejoin="round" stroke-width="1"/>
    <line id="Line_172" data-name="Line 172" y2="40" transform="translate(593.905 2688.885)" fill="none" stroke="#37474f" stroke-linecap="round" stroke-linejoin="round" stroke-width="1"/>
    <line id="Line_173" data-name="Line 173" x2="11" transform="translate(588.405 2708.885)" fill="none" stroke="#37474f" stroke-linecap="round" stroke-linejoin="round" stroke-width="1"/>
    <circle id="Ellipse_239" data-name="Ellipse 239" cx="12" cy="12" r="12" transform="translate(601.405 2696.885)" fill="none" stroke="#37474f" stroke-linecap="round" stroke-linejoin="round" stroke-width="1"/>
    <path id="Path_4207" data-name="Path 4207" d="M619.942,2711.719l-4.043-1.839-2.5,3.5-2.5-3.49-4.029,1.829A2.5,2.5,0,0,0,605.4,2714v3.814a11.94,11.94,0,0,0,8,3.076h0a11.942,11.942,0,0,0,8-3.076v-3.815A2.5,2.5,0,0,0,619.942,2711.719Z" fill="#ef5350" stroke="#37474f" stroke-linecap="round" stroke-linejoin="round" stroke-width="1"/>
    <line id="Line_174" data-name="Line 174" y2="5" transform="translate(613.403 2713.38)" fill="none" stroke="#37474f" stroke-linecap="round" stroke-linejoin="round" stroke-width="1"/>
    <circle id="Ellipse_240" data-name="Ellipse 240" cx="5" cy="5" r="5" transform="translate(608.408 2699.385)" fill="none" stroke="#37474f" stroke-linecap="round" stroke-linejoin="round" stroke-width="1"/>
    <path id="Path_4208" data-name="Path 4208" d="M616.875,2701.494l.372-.31a5,5,0,0,0-8.839,3.2h.472A12.5,12.5,0,0,0,616.875,2701.494Z" fill="none" stroke="#37474f" stroke-linecap="round" stroke-linejoin="round" stroke-width="1"/>
    <path id="Path_4209" data-name="Path 4209" d="M613.408,2709.385a4.949,4.949,0,0,1-2.51-.7v1.2l2.5,3.49,2.5-3.5V2708.7A4.95,4.95,0,0,1,613.408,2709.385Z" fill="none" stroke="#37474f" stroke-linecap="round" stroke-linejoin="round" stroke-width="1"/>
    <circle id="Ellipse_241" data-name="Ellipse 241" cx="12" cy="12" r="12" transform="translate(562.405 2696.885)" fill="none" stroke="#37474f" stroke-linecap="round" stroke-linejoin="round" stroke-width="1"/>
    <path id="Path_4210" data-name="Path 4210" d="M604.364,2698.214c-2.194-5.6-6.053-9.329-10.459-9.329s-8.264,3.729-10.458,9.329" fill="none" stroke="#37474f" stroke-linecap="round" stroke-linejoin="round" stroke-width="1"/>
    <path id="Path_4211" data-name="Path 4211" d="M583.447,2719.556c2.194,5.6,6.052,9.329,10.458,9.329s8.265-3.729,10.459-9.329" fill="none" stroke="#37474f" stroke-linecap="round" stroke-linejoin="round" stroke-width="1"/>
    <path id="Path_4212" data-name="Path 4212" d="M580.942,2711.719l-4.043-1.839-2.5,3.5-2.5-3.49-4.029,1.829A2.5,2.5,0,0,0,566.4,2714v3.814a11.94,11.94,0,0,0,8,3.076h0a11.942,11.942,0,0,0,8-3.076v-3.815A2.5,2.5,0,0,0,580.942,2711.719Z" fill="#ffca28" stroke="#37474f" stroke-linecap="round" stroke-linejoin="round" stroke-width="1"/>
    <line id="Line_175" data-name="Line 175" y2="5" transform="translate(574.403 2713.38)" fill="none" stroke="#37474f" stroke-linecap="round" stroke-linejoin="round" stroke-width="1"/>
    <circle id="Ellipse_242" data-name="Ellipse 242" cx="5" cy="5" r="5" transform="translate(569.408 2699.385)" fill="none" stroke="#37474f" stroke-linecap="round" stroke-linejoin="round" stroke-width="1"/>
    <path id="Path_4213" data-name="Path 4213" d="M577.875,2701.494l.372-.31a5,5,0,0,0-8.839,3.2h.472A12.5,12.5,0,0,0,577.875,2701.494Z" fill="none" stroke="#37474f" stroke-linecap="round" stroke-linejoin="round" stroke-width="1"/>
    <path id="Path_4214" data-name="Path 4214" d="M574.408,2709.385a4.949,4.949,0,0,1-2.51-.7v1.2l2.5,3.49,2.5-3.5V2708.7A4.95,4.95,0,0,1,574.408,2709.385Z" fill="none" stroke="#37474f" stroke-linecap="round" stroke-linejoin="round" stroke-width="1"/>
    <path id="Path_4215" data-name="Path 4215" d="M613.7,2728.684a28,28,0,0,1-39.6,0" fill="none" stroke="#37474f" stroke-linecap="round" stroke-linejoin="round" stroke-width="1"/>
    <path id="Path_4216" data-name="Path 4216" d="M585.557,2682.152a28,28,0,0,1,28.147,6.934" fill="none" stroke="#37474f" stroke-linecap="round" stroke-linejoin="round" stroke-width="1"/>
    <path id="Path_4217" data-name="Path 4217" d="M579.68,2684.759a28.035,28.035,0,0,1,2.787-1.44" fill="none" stroke="#37474f" stroke-linecap="round" stroke-linejoin="round" stroke-width="1"/>
    <path id="Path_4218" data-name="Path 4218" d="M574.106,2689.086a28.373,28.373,0,0,1,3.029-2.628" fill="none" stroke="#37474f" stroke-linecap="round" stroke-linejoin="round" stroke-width="1"/>
    <path id="Path_4219" data-name="Path 4219" d="M613.7,2684.843v4.243h-4.243" fill="none" stroke="#37474f" stroke-linecap="round" stroke-linejoin="round" stroke-width="1"/>
    <path id="Path_4220" data-name="Path 4220" d="M574.106,2732.927v-4.243h4.243" fill="none" stroke="#37474f" stroke-linecap="round" stroke-linejoin="round" stroke-width="1"/>
  </g>
</svg>
